<?xml version="1.0" encoding="UTF-8" standalone="no"?>
<!-- Created with Inkscape (http://www.inkscape.org/) -->

<svg
   xmlns:dc="http://purl.org/dc/elements/1.1/"
   xmlns:cc="http://creativecommons.org/ns#"
   xmlns:rdf="http://www.w3.org/1999/02/22-rdf-syntax-ns#"
   xmlns:svg="http://www.w3.org/2000/svg"
   xmlns="http://www.w3.org/2000/svg"
   xmlns:sodipodi="http://sodipodi.sourceforge.net/DTD/sodipodi-0.dtd"
   xmlns:inkscape="http://www.inkscape.org/namespaces/inkscape"
   width="278.30209"
   height="181.44785"
   id="svg2"
   inkscape:label="Pozadí"
   version="1.1"
   inkscape:version="0.48.4 r9939"
   sodipodi:docname="kere.svg">
  <sodipodi:namedview
     id="base"
     pagecolor="#ffffff"
     bordercolor="#666666"
     borderopacity="1.0"
     inkscape:pageopacity="0.0"
     inkscape:pageshadow="2"
     inkscape:zoom="2.8"
     inkscape:cx="-0.81835552"
     inkscape:cy="76.689888"
     inkscape:document-units="px"
     inkscape:current-layer="layer1"
     showgrid="false"
     inkscape:window-width="1920"
     inkscape:window-height="1017"
     inkscape:window-x="-8"
     inkscape:window-y="-8"
     inkscape:window-maximized="1"
     showguides="true"
     inkscape:guide-bbox="true"
     fit-margin-top="0"
     fit-margin-left="0"
     fit-margin-right="0"
     fit-margin-bottom="0">
    <sodipodi:guide
       orientation="0,1"
       position="-503.76955,-145.44112"
       id="guide3058" />
    <sodipodi:guide
       orientation="0,1"
       position="-118.75318,-171.08522"
       id="guide3072" />
    <sodipodi:guide
       orientation="0,1"
       position="-90.746957,-10.080698"
       id="guide3043" />
    <sodipodi:guide
       orientation="0,1"
       position="-124.082,0.525903"
       id="guide3045" />
  </sodipodi:namedview>
  <defs
     id="defs3" />
  <metadata
     id="metadata6">
    <rdf:RDF>
      <cc:Work
         rdf:about="">
        <dc:format>image/svg+xml</dc:format>
        <dc:type
           rdf:resource="http://purl.org/dc/dcmitype/StillImage" />
        <dc:title />
      </cc:Work>
    </rdf:RDF>
  </metadata>
  <g
     inkscape:label="Vrstva 1"
     inkscape:groupmode="layer"
     id="layer1"
     transform="translate(-298.05526,-225.5625)">
    <path
       id="path3024"
       d="m 348.81039,407.01035 0,-2.88 0.98502,-2.70632 m -0.98502,2.70632 0,-2.88 -0.98501,-2.70632 m 0.98501,2.70632 0,-2.88 m 0,2.88 0.98502,-2.70632 1.85122,-2.2062 m -1.85122,2.2062 0.98502,-2.70631 0,-2.88 m 0,2.88 0.98501,-2.70632 m -2.95505,8.11895 0,-2.88 0.98502,-2.70632 m -0.98502,2.70632 0,-2.88 -0.98501,-2.70632 m 0.98501,2.70632 0,-2.88 m 0,2.88 -0.98501,-2.70632 0,-2.88 m 0,2.88 -0.98503,-2.70631 -1.85122,-2.20621 m 1.85122,2.20621 -0.98501,-2.70632 m 2.95505,8.11895 0,-2.88 0.98502,-2.70632 m -0.98502,2.70632 0,-2.88 -0.98501,-2.70632 m 0.98501,2.70632 0,-2.88 m 0,8.64 0.98502,-2.70632 1.85122,-2.2062 m -1.85122,2.2062 0.98502,-2.70631 0,-2.88 m 0,2.88 0.98501,-2.70632 m -0.98501,2.70632 1.85123,-2.20621 2.49415,-1.44 m -2.49415,1.44 1.85122,-2.20621 0.98502,-2.70632 m -0.98502,2.70632 1.85123,-2.2062 m -5.55368,6.61862 0.98501,-2.70632 1.85123,-2.2062 m -1.85123,2.2062 0.98503,-2.70631 0,-2.88 m 0,2.88 0.98501,-2.70632 m -0.98501,2.70632 0,-2.88 0.98501,-2.70632 m -0.98501,2.70632 0,-2.88 -0.98503,-2.70632 m 0.98503,2.70632 0,-2.88 m 0,8.64 0.98501,-2.70632 1.85124,-2.2062 m -1.85124,2.2062 0.98502,-2.70631 0,-2.88 m 0,2.88 0.98503,-2.70632 m -6.89514,18.94421 0,-2.88 0.98502,-2.70632 m -0.98502,2.70632 0,-2.88 -0.98501,-2.70632 m 0.98501,2.70632 0,-2.88 m 0,2.88 0.98502,-2.70632 1.85122,-2.2062 m -1.85122,2.2062 0.98502,-2.70631 0,-2.88 m 0,2.88 0.98501,-2.70632 m -2.95505,8.11895 0,-2.88 0.98502,-2.70632 m -0.98502,2.70632 0,-2.88 -0.98501,-2.70632 m 0.98501,2.70632 0,-2.88 m 0,2.88 -0.98501,-2.70632 0,-2.88 m 0,2.88 -0.98503,-2.70631 -1.85122,-2.20621 m 1.85122,2.20621 -0.98501,-2.70632 m 2.95505,8.11895 0,-2.88 0.98502,-2.70632 m -0.98502,2.70632 0,-2.88 -0.98501,-2.70632 m 0.98501,2.70632 0,-2.88 m 0,8.64 -0.98501,-2.70632 0,-2.88 m 0,2.88 -0.98503,-2.70631 -1.85122,-2.20621 m 1.85122,2.20621 -0.98501,-2.70632 m 0.98501,2.70632 0,-2.88 0.98503,-2.70632 m -0.98503,2.70632 0,-2.88 -0.98501,-2.70632 m 0.98501,2.70632 0,-2.88 m 0,8.64 -0.98501,-2.70632 0,-2.88 m 0,2.88 -0.98502,-2.70631 -1.85123,-2.20621 m 1.85123,2.20621 -0.98502,-2.70632 m 0.98502,2.70632 -1.85123,-2.20621 -0.98501,-2.70631 m 0.98501,2.70631 -1.85123,-2.2062 -2.49415,-1.44 m 2.49415,1.44 -1.85123,-2.20622 m 5.55369,6.61863 -0.98502,-2.70632 0,-2.88 m 0,2.88 -0.98501,-2.70631 -1.85123,-2.20621 m 1.85123,2.20621 -0.98502,-2.70632 m 6.89512,18.94421 0,-2.88 0.98502,-2.70632 m -0.98502,2.70632 0,-2.88 -0.98501,-2.70632 m 0.98501,2.70632 0,-2.88 m 0,2.88 0.98502,-2.70632 1.85122,-2.2062 m -1.85122,2.2062 0.98502,-2.70631 0,-2.88 m 0,2.88 0.98501,-2.70632 m -2.95505,8.11895 0,-2.88 0.98502,-2.70632 m -0.98502,2.70632 0,-2.88 -0.98501,-2.70632 m 0.98501,2.70632 0,-2.88 m 0,2.88 -0.98501,-2.70632 0,-2.88 m 0,2.88 -0.98503,-2.70631 -1.85122,-2.20621 m 1.85122,2.20621 -0.98501,-2.70632 m 2.95505,8.11895 0,-2.88 0.98502,-2.70632 m -0.98502,2.70632 0,-2.88 -0.98501,-2.70632 m 0.98501,2.70632 0,-2.88 m 0,20.16 0.98502,-2.70632 1.85122,-2.2062 m -1.85122,2.2062 0.98502,-2.70631 0,-2.88 m 0,2.88 0.98501,-2.70632 m -0.98501,2.70632 1.85123,-2.20621 2.49415,-1.44 m -2.49415,1.44 1.85122,-2.20621 0.98502,-2.70632 m -0.98502,2.70632 1.85123,-2.2062 m -5.55368,6.61862 0.98501,-2.70632 1.85123,-2.2062 m -1.85123,2.2062 0.98503,-2.70631 0,-2.88 m 0,2.88 0.98501,-2.70632 m -0.98501,2.70632 0,-2.88 0.98501,-2.70632 m -0.98501,2.70632 0,-2.88 -0.98503,-2.70632 m 0.98503,2.70632 0,-2.88 m 0,8.64 0.98501,-2.70632 1.85124,-2.2062 m -1.85124,2.2062 0.98502,-2.70631 0,-2.88 m 0,2.88 0.98503,-2.70632 m -2.95506,8.11895 1.85122,-2.20621 2.49416,-1.44 m -2.49416,1.44 1.85123,-2.2062 0.98502,-2.70632 m -0.98502,2.70632 1.85123,-2.20622 m -1.85123,2.20622 2.49415,-1.44 2.83625,-0.50011 m -2.83625,0.50011 2.49416,-1.44 1.85122,-2.20622 m -1.85122,2.20622 2.49415,-1.44 m -7.48246,4.32 1.85123,-2.20622 2.49415,-1.44 m -2.49415,1.44 1.85123,-2.20621 0.98502,-2.70631 m -0.98502,2.70631 1.85123,-2.2062 m -1.85123,2.2062 0.98502,-2.70631 1.85123,-2.2062 m -1.85123,2.2062 0.98501,-2.70631 0,-2.88 m 0,2.88 0.98503,-2.70632 m -2.95506,8.11894 1.85123,-2.2062 2.49415,-1.44 m -2.49415,1.44 1.85122,-2.20621 0.98503,-2.70632 m -0.98503,2.70632 1.85123,-2.2062 m -12.95859,15.44345 0.98501,-2.70632 1.85124,-2.2062 m -1.85124,2.2062 0.98502,-2.70631 0,-2.88 m 0,2.88 0.98503,-2.70632 m -0.98503,2.70632 1.85123,-2.20621 2.49415,-1.44 m -2.49415,1.44 1.85123,-2.2062 0.98502,-2.70632 m -0.98502,2.70632 1.85123,-2.20622 m -5.55369,6.61863 0.98503,-2.70632 1.85122,-2.2062 m -1.85122,2.2062 0.98501,-2.70632 0,-2.88 m 0,2.88 0.98501,-2.7063 m -0.98501,2.7063 0,-2.88 0.98501,-2.7063 m -0.98501,2.7063 0,-2.88 -0.98501,-2.7063 m 0.98501,2.7063 0,-2.88 m 0,8.64 0.98501,-2.7063 1.85123,-2.20622 m -1.85123,2.20622 0.98503,-2.70632 0,-2.88 m 0,2.88 0.98501,-2.70631 m -2.95505,8.11893 0,-2.88 0.98502,-2.7063 m -0.98502,2.7063 0,-2.88 -0.98501,-2.7063 m 0.98501,2.7063 0,-2.88 m 0,2.88 0.98502,-2.7063 1.85123,-2.20622 m -1.85123,2.20622 0.98502,-2.70632 0,-2.88 m 0,2.88 0.98501,-2.70631 m -2.95505,8.11893 0,-2.88 0.98502,-2.7063 m -0.98502,2.7063 0,-2.88 -0.98501,-2.7063 m 0.98501,2.7063 0,-2.88 m 0,2.88 -0.98501,-2.7063 0,-2.88 m 0,2.88 -0.98503,-2.70632 -1.85123,-2.20621 m 1.85123,2.20621 -0.98502,-2.70631 m 2.95506,8.11893 0,-2.88 0.98502,-2.7063 m -0.98502,2.7063 0,-2.88 -0.98501,-2.7063 m 0.98501,2.7063 0,-2.88 m 0,20.16 0.98502,-2.7063 1.85123,-2.20622 m -1.85123,2.20622 0.98502,-2.70632 0,-2.88 m 0,2.88 0.98501,-2.70631 m -0.98501,2.70631 1.85122,-2.20621 2.49416,-1.44 m -2.49416,1.44 1.85123,-2.2062 0.98502,-2.70631 m -0.98502,2.70631 1.85123,-2.20621 m -5.55368,6.61862 0.98501,-2.70631 1.85123,-2.20622 m -1.85123,2.20622 0.98502,-2.70632 0,-2.88 m 0,2.88 0.98502,-2.70632 m -0.98502,2.70632 0,-2.88 0.98502,-2.70632 m -0.98502,2.70632 0,-2.88 -0.98502,-2.70632 m 0.98502,2.70632 0,-2.88 m 0,8.64 0.98502,-2.70632 1.85123,-2.2062 m -1.85123,2.2062 0.98502,-2.70631 0,-2.88 m 0,2.88 0.98501,-2.70631 m -14.77527,40.59472 0,-2.88 0.98502,-2.70632 m -0.98502,2.70632 0,-2.88 -0.98501,-2.70632 m 0.98501,2.70632 0,-2.88 m 0,2.88 0.98502,-2.70632 1.85123,-2.2062 m -1.85123,2.2062 0.98502,-2.70631 0,-2.88 m 0,2.88 0.98502,-2.70632 m -2.95505,8.11895 0,-2.88 0.98501,-2.70632 m -0.98501,2.70632 0,-2.88 -0.98502,-2.70632 m 0.98502,2.70632 0,-2.88 m 0,2.88 -0.98502,-2.70632 0,-2.88 m 0,2.88 -0.98503,-2.70631 -1.85122,-2.20621 m 1.85122,2.20621 -0.98501,-2.70632 m 2.95505,8.11895 0,-2.88 0.98502,-2.70632 m -0.98502,2.70632 0,-2.88 -0.98501,-2.70632 m 0.98501,2.70632 0,-2.88 m 0,8.64 0.98502,-2.70632 1.85123,-2.2062 m -1.85123,2.2062 0.98502,-2.70631 0,-2.88 m 0,2.88 0.98502,-2.70632 m -0.98502,2.70632 1.85123,-2.20621 2.49415,-1.44 m -2.49415,1.44 1.85122,-2.20621 0.98502,-2.70632 m -0.98502,2.70632 1.85123,-2.2062 m -5.55368,6.61862 0.98501,-2.70632 1.85123,-2.2062 m -1.85123,2.2062 0.98503,-2.70631 0,-2.88 m 0,2.88 0.98501,-2.70632 m -0.98501,2.70632 0,-2.88 0.98501,-2.70632 m -0.98501,2.70632 0,-2.88 -0.98503,-2.70632 m 0.98503,2.70632 0,-2.88 m 0,8.64 0.98501,-2.70632 1.85124,-2.2062 m -1.85124,2.2062 0.98502,-2.70631 0,-2.88 m 0,2.88 0.98503,-2.70632 m -6.89513,18.94421 0,-2.88 0.98501,-2.70632 m -0.98501,2.70632 0,-2.88 -0.98502,-2.70632 m 0.98502,2.70632 0,-2.88 m 0,2.88 0.98501,-2.70632 1.85123,-2.2062 m -1.85123,2.2062 0.98503,-2.70631 0,-2.88 m 0,2.88 0.98501,-2.70632 m -2.95505,8.11895 0,-2.88 0.98501,-2.70632 m -0.98501,2.70632 0,-2.88 -0.98501,-2.70632 m 0.98501,2.70632 0,-2.88 m 0,2.88 -0.98501,-2.70632 0,-2.88 m 0,2.88 -0.98503,-2.70631 -1.85122,-2.20621 m 1.85122,2.20621 -0.98502,-2.70632 m 2.95506,8.11895 0,-2.88 0.98501,-2.70632 m -0.98501,2.70632 0,-2.88 -0.98502,-2.70632 m 0.98502,2.70632 0,-2.88 m 0,8.64 -0.98502,-2.70632 0,-2.88 m 0,2.88 -0.98503,-2.70631 -1.85122,-2.20621 m 1.85122,2.20621 -0.98501,-2.70632 m 0.98501,2.70632 0,-2.88 0.98503,-2.70632 m -0.98503,2.70632 0,-2.88 -0.98501,-2.70632 m 0.98501,2.70632 0,-2.88 m 0,8.64 -0.98501,-2.70632 0,-2.88 m 0,2.88 -0.98501,-2.70631 -1.85123,-2.20621 m 1.85123,2.20621 -0.98503,-2.70632 m 0.98503,2.70632 -1.85123,-2.20621 -0.98502,-2.70631 m 0.98502,2.70631 -1.85123,-2.2062 -2.49415,-1.44 m 2.49415,1.44 -1.85123,-2.20622 m 5.55369,6.61863 -0.98503,-2.70632 0,-2.88 m 0,2.88 -0.98501,-2.70631 -1.85123,-2.20621 m 1.85123,2.20621 -0.98502,-2.70632 m 6.89512,18.94421 0,-2.88 0.98502,-2.70632 m -0.98502,2.70632 0,-2.88 -0.98501,-2.70632 m 0.98501,2.70632 0,-2.88 m 0,2.88 0.98502,-2.70632 1.85123,-2.2062 m -1.85123,2.2062 0.98502,-2.70631 0,-2.88 m 0,2.88 0.98502,-2.70632 m -2.95505,8.11895 0,-2.88 0.98501,-2.70632 m -0.98501,2.70632 0,-2.88 -0.98502,-2.70632 m 0.98502,2.70632 0,-2.88 m 0,2.88 -0.98502,-2.70632 0,-2.88 m 0,2.88 -0.98503,-2.70631 -1.85122,-2.20621 m 1.85122,2.20621 -0.98501,-2.70632 m 2.95505,8.11895 0,-2.88 0.98502,-2.70632 m -0.98502,2.70632 0,-2.88 -0.98501,-2.70632 m 0.98501,2.70632 0,-2.88 m 0,20.16 -0.98501,-2.70632 0,-2.88 m 0,2.88 -0.98503,-2.70631 -1.85122,-2.20621 m 1.85122,2.20621 -0.98501,-2.70632 m 0.98501,2.70632 0,-2.88 0.98503,-2.70632 m -0.98503,2.70632 0,-2.88 -0.98501,-2.70632 m 0.98501,2.70632 0,-2.88 m 0,8.64 -0.98501,-2.70632 0,-2.88 m 0,2.88 -0.98502,-2.70631 -1.85123,-2.20621 m 1.85123,2.20621 -0.98502,-2.70632 m 0.98502,2.70632 -1.85123,-2.20621 -0.98501,-2.70631 m 0.98501,2.70631 -1.85123,-2.2062 -2.49415,-1.44 m 2.49415,1.44 -1.85123,-2.20622 m 5.5537,6.61863 -0.98503,-2.70632 0,-2.88 m 0,2.88 -0.98501,-2.70631 -1.85123,-2.20621 m 1.85123,2.20621 -0.98502,-2.70632 m 2.95505,8.11895 0,-2.88 0.98502,-2.70632 m -0.98502,2.70632 0,-2.88 -0.98502,-2.70632 m 0.98502,2.70632 0,-2.88 m 0,2.88 0.98502,-2.70632 1.85123,-2.2062 m -1.85123,2.2062 0.98501,-2.70631 0,-2.88 m 0,2.88 0.98503,-2.70632 m -2.95505,8.11895 0,-2.88 0.98501,-2.70632 m -0.98501,2.70632 0,-2.88 -0.98503,-2.70632 m 0.98503,2.70632 0,-2.88 m 0,2.88 -0.98503,-2.70632 0,-2.88 m 0,2.88 -0.98501,-2.70631 -1.85123,-2.20621 m 1.85123,2.20621 -0.98502,-2.70632 m 2.95505,8.11895 0,-2.88 0.98502,-2.70632 m -0.98502,2.70632 0,-2.88 -0.98502,-2.70632 m 0.98502,2.70632 0,-2.88 m 0,20.16 -0.98502,-2.70632 0,-2.88 m 0,2.88 -0.98501,-2.70631 -1.85123,-2.20621 m 1.85123,2.20621 -0.98502,-2.70632 m 0.98502,2.70632 0,-2.88 0.98501,-2.70632 m -0.98501,2.70632 0,-2.88 -0.98502,-2.70632 m 0.98502,2.70632 0,-2.88 m 0,8.64 -0.98502,-2.70632 0,-2.88 m 0,2.88 -0.98502,-2.70632 -1.85123,-2.2062 m 1.85123,2.2062 -0.98502,-2.7063 m 0.98502,2.7063 -1.85123,-2.2062 -0.98502,-2.70632 m 0.98502,2.70632 -1.85122,-2.20621 -2.49416,-1.44 m 2.49416,1.44 -1.85123,-2.2062 m 5.55368,6.61861 -0.98502,-2.7063 0,-2.88 m 0,2.88 -0.98501,-2.70632 -1.85123,-2.20621 m 1.85123,2.20621 -0.98502,-2.70631 m 2.95505,8.11893 -1.85123,-2.2062 -0.98502,-2.70632 m 0.98502,2.70632 -1.85122,-2.20621 -2.49416,-1.44 m 2.49416,1.44 -1.85123,-2.2062 m 1.85123,2.2062 -0.98503,-2.70631 0,-2.88 m 0,2.88 -0.98501,-2.70631 -1.85124,-2.20621 m 1.85124,2.20621 -0.98502,-2.70631 m 2.95506,8.11893 -1.85123,-2.2062 -0.98502,-2.70632 m 0.98502,2.70632 -1.85123,-2.20621 -2.49416,-1.44 m 2.49416,1.44 -1.85123,-2.20621 m 1.85123,2.20621 -2.49416,-1.44 -1.85123,-2.20621 m 1.85123,2.20621 -2.49415,-1.44 -2.83624,-0.50011 m 2.83624,0.50011 -2.49415,-1.44 m 7.48246,4.32 -1.85123,-2.20621 -0.98502,-2.70631 m 0.98502,2.70631 -1.85123,-2.2062 -2.49416,-1.44 m 2.49416,1.44 -1.85123,-2.20622 m 12.9586,15.44345 -0.98502,-2.7063 0,-2.88 m 0,2.88 -0.98501,-2.70632 -1.85123,-2.20621 m 1.85123,2.20621 -0.98502,-2.70631 m 0.98502,2.70631 0,-2.88 0.98501,-2.70631 m -0.98501,2.70631 0,-2.88 -0.98502,-2.70631 m 0.98502,2.70631 0,-2.88 m 0,8.64 -0.98502,-2.70631 0,-2.88 m 0,2.88 -0.98503,-2.70632 -1.85123,-2.20621 m 1.85123,2.20621 -0.98501,-2.70632 m 0.98501,2.70632 -1.85123,-2.20621 -0.98501,-2.70631 m 0.98501,2.70631 -1.85123,-2.20621 -2.49415,-1.44 m 2.49415,1.44 -1.85122,-2.2062 m 5.55368,6.61862 -0.98501,-2.70632 0,-2.88 m 0,2.88 -0.98502,-2.70631 -1.85123,-2.20621 m 1.85123,2.20621 -0.98502,-2.70631 m 14.77527,40.59472 0,-2.88 0.98502,-2.70632 m -0.98502,2.70632 0,-2.88 -0.98501,-2.70632 m 0.98501,2.70632 0,-2.88 m 0,2.88 0.98502,-2.70632 1.85122,-2.2062 m -1.85122,2.2062 0.98502,-2.70631 0,-2.88 m 0,2.88 0.98501,-2.70632 m -2.95505,8.11895 0,-2.88 0.98502,-2.70632 m -0.98502,2.70632 0,-2.88 -0.98501,-2.70632 m 0.98501,2.70632 0,-2.88 m 0,2.88 -0.98501,-2.70632 0,-2.88 m 0,2.88 -0.98503,-2.70631 -1.85122,-2.20621 m 1.85122,2.20621 -0.98501,-2.70632 m 2.95505,8.11895 0,-2.88 0.98502,-2.70632 m -0.98502,2.70632 0,-2.88 -0.98501,-2.70632 m 0.98501,2.70632 0,-2.88 m 0,8.64 0.98502,-2.70632 1.85122,-2.2062 m -1.85122,2.2062 0.98502,-2.70631 0,-2.88 m 0,2.88 0.98501,-2.70632 m -0.98501,2.70632 1.85123,-2.20621 2.49415,-1.44 m -2.49415,1.44 1.85122,-2.20621 0.98502,-2.70632 m -0.98502,2.70632 1.85123,-2.2062 m -5.55368,6.61862 0.98501,-2.70632 1.85123,-2.2062 m -1.85123,2.2062 0.98503,-2.70631 0,-2.88 m 0,2.88 0.98501,-2.70632 m -0.98501,2.70632 0,-2.88 0.98501,-2.70632 m -0.98501,2.70632 0,-2.88 -0.98503,-2.70632 m 0.98503,2.70632 0,-2.88 m 0,8.64 0.98501,-2.70632 1.85124,-2.2062 m -1.85124,2.2062 0.98502,-2.70631 0,-2.88 m 0,2.88 0.98503,-2.70632 m -6.89514,18.94421 0,-2.88 0.98502,-2.70632 m -0.98502,2.70632 0,-2.88 -0.98501,-2.70632 m 0.98501,2.70632 0,-2.88 m 0,2.88 0.98502,-2.70632 1.85122,-2.2062 m -1.85122,2.2062 0.98502,-2.70631 0,-2.88 m 0,2.88 0.98501,-2.70632 m -2.95505,8.11895 0,-2.88 0.98502,-2.70632 m -0.98502,2.70632 0,-2.88 -0.98501,-2.70632 m 0.98501,2.70632 0,-2.88 m 0,2.88 -0.98501,-2.70632 0,-2.88 m 0,2.88 -0.98503,-2.70631 -1.85122,-2.20621 m 1.85122,2.20621 -0.98501,-2.70632 m 2.95505,8.11895 0,-2.88 0.98502,-2.70632 m -0.98502,2.70632 0,-2.88 -0.98501,-2.70632 m 0.98501,2.70632 0,-2.88 m 0,8.64 -0.98501,-2.70632 0,-2.88 m 0,2.88 -0.98503,-2.70631 -1.85122,-2.20621 m 1.85122,2.20621 -0.98501,-2.70632 m 0.98501,2.70632 0,-2.88 0.98503,-2.70632 m -0.98503,2.70632 0,-2.88 -0.98501,-2.70632 m 0.98501,2.70632 0,-2.88 m 0,8.64 -0.98501,-2.70632 0,-2.88 m 0,2.88 -0.98502,-2.70631 -1.85123,-2.20621 m 1.85123,2.20621 -0.98502,-2.70632 m 0.98502,2.70632 -1.85123,-2.20621 -0.98501,-2.70631 m 0.98501,2.70631 -1.85123,-2.2062 -2.49415,-1.44 m 2.49415,1.44 -1.85123,-2.20622 m 5.55369,6.61863 -0.98502,-2.70632 0,-2.88 m 0,2.88 -0.98501,-2.70631 -1.85123,-2.20621 m 1.85123,2.20621 -0.98502,-2.70632 m 6.89512,18.94421 0,-2.88 0.98502,-2.70632 m -0.98502,2.70632 0,-2.88 -0.98501,-2.70632 m 0.98501,2.70632 0,-2.88 m 0,2.88 0.98502,-2.70632 1.85122,-2.2062 m -1.85122,2.2062 0.98502,-2.70631 0,-2.88 m 0,2.88 0.98501,-2.70632 m -2.95505,8.11895 0,-2.88 0.98502,-2.70632 m -0.98502,2.70632 0,-2.88 -0.98501,-2.70632 m 0.98501,2.70632 0,-2.88 m 0,2.88 -0.98501,-2.70632 0,-2.88 m 0,2.88 -0.98503,-2.70631 -1.85122,-2.20621 m 1.85122,2.20621 -0.98501,-2.70632 m 2.95505,8.11895 0,-2.88 0.98502,-2.70632 m -0.98502,2.70632 0,-2.88 -0.98501,-2.70632 m 0.98501,2.70632 0,-2.88 m 0,43.2 0.98502,-2.70632 1.85122,-2.2062 m -1.85122,2.2062 0.98502,-2.70631 0,-2.88 m 0,2.88 0.98501,-2.70632 m -0.98501,2.70632 1.85123,-2.20621 2.49415,-1.44 m -2.49415,1.44 1.85122,-2.20621 0.98502,-2.70632 m -0.98502,2.70632 1.85123,-2.2062 m -5.55368,6.61862 0.98501,-2.70632 1.85123,-2.2062 m -1.85123,2.2062 0.98503,-2.70631 0,-2.88 m 0,2.88 0.98501,-2.70632 m -0.98501,2.70632 0,-2.88 0.98501,-2.70632 m -0.98501,2.70632 0,-2.88 -0.98503,-2.70632 m 0.98503,2.70632 0,-2.88 m 0,8.64 0.98501,-2.70632 1.85124,-2.2062 m -1.85124,2.2062 0.98502,-2.70631 0,-2.88 m 0,2.88 0.98503,-2.70632 m -2.95506,8.11895 1.85122,-2.20621 2.49416,-1.44 m -2.49416,1.44 1.85123,-2.2062 0.98502,-2.70632 m -0.98502,2.70632 1.85123,-2.20622 m -1.85123,2.20622 2.49415,-1.44 2.83625,-0.50011 m -2.83625,0.50011 2.49416,-1.44 1.85122,-2.20622 m -1.85122,2.20622 2.49415,-1.44 m -7.48246,4.32 1.85123,-2.20622 2.49415,-1.44 m -2.49415,1.44 1.85123,-2.20621 0.98502,-2.70631 m -0.98502,2.70631 1.85123,-2.2062 m -1.85123,2.2062 0.98502,-2.70631 1.85123,-2.2062 m -1.85123,2.2062 0.98501,-2.70631 0,-2.88 m 0,2.88 0.98503,-2.70632 m -2.95506,8.11894 1.85123,-2.2062 2.49415,-1.44 m -2.49415,1.44 1.85122,-2.20621 0.98503,-2.70632 m -0.98503,2.70632 1.85123,-2.2062 m -12.95859,15.44345 0.98501,-2.70632 1.85124,-2.2062 m -1.85124,2.2062 0.98502,-2.70631 0,-2.88 m 0,2.88 0.98503,-2.70632 m -0.98503,2.70632 1.85123,-2.20621 2.49415,-1.44 m -2.49415,1.44 1.85123,-2.2062 0.98502,-2.70632 m -0.98502,2.70632 1.85123,-2.20622 m -5.55369,6.61863 0.98503,-2.70632 1.85122,-2.2062 m -1.85122,2.2062 0.98501,-2.70632 0,-2.88 m 0,2.88 0.98501,-2.7063 m -0.98501,2.7063 0,-2.88 0.98501,-2.7063 m -0.98501,2.7063 0,-2.88 -0.98501,-2.7063 m 0.98501,2.7063 0,-2.88 m 0,8.64 0.98501,-2.7063 1.85123,-2.20622 m -1.85123,2.20622 0.98503,-2.70632 0,-2.88 m 0,2.88 0.98501,-2.70631 m -2.95505,8.11893 0,-2.88 0.98501,-2.7063 m -0.98501,2.7063 0,-2.88 -0.98501,-2.7063 m 0.98501,2.7063 0,-2.88 m 0,2.88 0.98501,-2.7063 1.85123,-2.20622 m -1.85123,2.20622 0.98503,-2.70632 0,-2.88 m 0,2.88 0.98501,-2.70631 m -2.95505,8.11893 0,-2.88 0.98501,-2.7063 m -0.98501,2.7063 0,-2.88 -0.98501,-2.7063 m 0.98501,2.7063 0,-2.88 m 0,2.88 -0.98501,-2.7063 0,-2.88 m 0,2.88 -0.98503,-2.70632 -1.85123,-2.20621 m 1.85123,2.20621 -0.98502,-2.70631 m 2.95506,8.11893 0,-2.88 0.98501,-2.7063 m -0.98501,2.7063 0,-2.88 -0.98501,-2.7063 m 0.98501,2.7063 0,-2.88 m 0,20.16 0.98501,-2.7063 1.85123,-2.20622 m -1.85123,2.20622 0.98503,-2.70632 0,-2.88 m 0,2.88 0.98501,-2.70631 m -0.98501,2.70631 1.85122,-2.20621 2.49416,-1.44 m -2.49416,1.44 1.85123,-2.2062 0.98502,-2.70631 m -0.98502,2.70631 1.85123,-2.20621 m -5.55368,6.61862 0.98501,-2.70631 1.85123,-2.20622 m -1.85123,2.20622 0.98502,-2.70632 0,-2.88 m 0,2.88 0.98502,-2.70632 m -0.98502,2.70632 0,-2.88 0.98502,-2.70632 m -0.98502,2.70632 0,-2.88 -0.98502,-2.70632 m 0.98502,2.70632 0,-2.88 m 0,8.64 0.98502,-2.70632 1.85123,-2.2062 m -1.85123,2.2062 0.98501,-2.70631 0,-2.88 m 0,2.88 0.98502,-2.70631 m -6.89512,18.94419 1.85123,-2.2062 2.49415,-1.44 m -2.49415,1.44 1.85123,-2.20621 0.98501,-2.70631 m -0.98501,2.70631 1.85122,-2.2062 m -1.85122,2.2062 2.49415,-1.44 2.83624,-0.50011 m -2.83624,0.50011 2.49415,-1.44 1.85123,-2.2062 m -1.85123,2.2062 2.49415,-1.44 m -7.48245,4.32 1.85122,-2.2062 2.49416,-1.44 m -2.49416,1.44 1.85123,-2.20621 0.98502,-2.70632 m -0.98502,2.70632 1.85123,-2.20621 m -1.85123,2.20621 0.98502,-2.70632 1.85122,-2.2062 m -1.85122,2.2062 0.98502,-2.70632 0,-2.88 m 0,2.88 0.98501,-2.7063 m -2.95505,8.11894 1.85123,-2.20621 2.49415,-1.44 m -2.49415,1.44 1.85123,-2.2062 0.98501,-2.70632 m -0.98501,2.70632 1.85123,-2.20622 m -5.55369,6.61863 2.49415,-1.44 2.83625,-0.50011 m -2.83625,0.50011 2.49416,-1.44 1.85122,-2.20621 m -1.85122,2.20621 2.49415,-1.44 m -2.49415,1.44 2.83624,-0.50011 2.83625,0.50011 m -2.83625,-0.50011 2.83625,-0.5001 2.49415,-1.44 m -2.49415,1.44 2.83624,-0.50012 m -8.50873,1.50033 2.49415,-1.44 2.83624,-0.50011 m -2.83624,0.50011 2.49415,-1.44 1.85124,-2.20621 m -1.85124,2.20621 2.49416,-1.44 m -2.49416,1.44 1.85124,-2.20621 2.49415,-1.44 m -2.49415,1.44 1.85122,-2.2062 0.98502,-2.70632 m -0.98502,2.70632 1.85123,-2.20622 m -5.55369,6.61863 2.49416,-1.44 2.83624,-0.50011 m -2.83624,0.50011 2.49415,-1.44 1.85123,-2.20621 m -1.85123,2.20621 2.49415,-1.44 m -17.45907,10.08 1.85123,-2.20621 2.49415,-1.44 m -2.49415,1.44 1.85123,-2.2062 0.98501,-2.70632 m -0.98501,2.70632 1.85123,-2.20622 m -1.85123,2.20622 2.49415,-1.44 2.83624,-0.50011 m -2.83624,0.50011 2.49415,-1.44 1.85123,-2.20622 m -1.85123,2.20622 2.49415,-1.44 m -7.48245,4.32 1.85123,-2.20622 2.49415,-1.44 m -2.49415,1.44 1.85122,-2.2062 0.98502,-2.70632 m -0.98502,2.70632 1.85123,-2.20622 m -1.85123,2.20622 0.98502,-2.70632 1.85123,-2.20621 m -1.85123,2.20621 0.98502,-2.70631 0,-2.88 m 0,2.88 0.98501,-2.70632 m -2.95505,8.11895 1.85123,-2.20622 2.49415,-1.44 m -2.49415,1.44 1.85123,-2.2062 0.98501,-2.70632 m -0.98501,2.70632 1.85123,-2.20621 m -5.55369,6.61863 0.98502,-2.70632 1.85123,-2.20621 m -1.85123,2.20621 0.98502,-2.70631 0,-2.88 m 0,2.88 0.98501,-2.70632 m -0.98501,2.70632 1.85123,-2.20621 2.49415,-1.44 m -2.49415,1.44 1.85123,-2.20621 0.98501,-2.70632 m -0.98501,2.70632 1.85122,-2.20621 m -5.55368,6.61863 0.98501,-2.70632 1.85123,-2.2062 m -1.85123,2.2062 0.98503,-2.70632 0,-2.88 m 0,2.88 0.98501,-2.7063 m -0.98501,2.7063 0,-2.88 0.98501,-2.7063 m -0.98501,2.7063 0,-2.88 -0.98503,-2.7063 m 0.98503,2.7063 0,-2.88 m 0,8.64 0.98501,-2.7063 1.85123,-2.20622 m -1.85123,2.20622 0.98502,-2.70632 0,-2.88 m 0,2.88 0.98502,-2.70631 m -6.89513,18.9442 1.85123,-2.20622 2.49415,-1.44 m -2.49415,1.44 1.85123,-2.2062 0.98501,-2.70632 m -0.98501,2.70632 1.85123,-2.20621 m -1.85123,2.20621 2.49415,-1.44 2.83624,-0.50011 m -2.83624,0.50011 2.49415,-1.44 1.85123,-2.20621 m -1.85123,2.20621 2.49416,-1.44 m -7.48246,4.32 1.85123,-2.20621 2.49415,-1.44 m -2.49415,1.44 1.85123,-2.20621 0.98501,-2.70631 m -0.98501,2.70631 1.85122,-2.2062 m -1.85122,2.2062 0.98501,-2.70631 1.85123,-2.20621 m -1.85123,2.20621 0.98502,-2.70631 0,-2.88 m 0,2.88 0.98502,-2.70632 m -2.95505,8.11894 1.85122,-2.2062 2.49416,-1.44 m -2.49416,1.44 1.85123,-2.20622 0.98502,-2.70631 m -0.98502,2.70631 1.85123,-2.20619 m -27.76842,33.0931 0.98501,-2.7063 1.85123,-2.20622 m -1.85123,2.20622 0.98503,-2.70632 0,-2.88 m 0,2.88 0.98501,-2.70631 m -0.98501,2.70631 1.85122,-2.20621 2.49416,-1.44 m -2.49416,1.44 1.85123,-2.2062 0.98502,-2.70631 m -0.98502,2.70631 1.85123,-2.20621 m -5.55368,6.61862 0.98501,-2.70631 1.85123,-2.20622 m -1.85123,2.20622 0.98502,-2.70632 0,-2.88 m 0,2.88 0.98502,-2.70632 m -0.98502,2.70632 0,-2.88 0.98502,-2.70632 m -0.98502,2.70632 0,-2.88 -0.98502,-2.70632 m 0.98502,2.70632 0,-2.88 m 0,8.64 0.98502,-2.70632 1.85123,-2.2062 m -1.85123,2.2062 0.98501,-2.70631 0,-2.88 m 0,2.88 0.98502,-2.70631 m -2.95505,8.11894 1.85123,-2.20621 2.49415,-1.44 m -2.49415,1.44 1.85123,-2.20621 0.98501,-2.70631 m -0.98501,2.70631 1.85123,-2.2062 m -1.85123,2.2062 2.49415,-1.44 2.83624,-0.5001 m -2.83624,0.5001 2.49415,-1.44 1.85123,-2.2062 m -1.85123,2.2062 2.49416,-1.44 m -7.48246,4.32 1.85123,-2.2062 2.49415,-1.44 m -2.49415,1.44 1.85123,-2.20621 0.98501,-2.70631 m -0.98501,2.70631 1.85122,-2.20621 m -1.85122,2.20621 0.98501,-2.70631 1.85123,-2.20622 m -1.85123,2.20622 0.98501,-2.70632 0,-2.88 m 0,2.88 0.98503,-2.70632 m -2.95505,8.11895 1.85122,-2.20621 2.49416,-1.44 m -2.49416,1.44 1.85123,-2.20621 0.98502,-2.70631 m -0.98502,2.70631 1.85123,-2.2062 m -12.9586,15.44345 0.98502,-2.70632 1.85123,-2.2062 m -1.85123,2.2062 0.98501,-2.70631 0,-2.88 m 0,2.88 0.98502,-2.70631 m -0.98502,2.70631 1.85123,-2.20621 2.49415,-1.44 m -2.49415,1.44 1.85123,-2.20621 0.98502,-2.70632 m -0.98502,2.70632 1.85123,-2.2062 m -5.55369,6.61862 0.98502,-2.70631 1.85123,-2.20621 m -1.85123,2.20621 0.98502,-2.70631 0,-2.88 m 0,2.88 0.98502,-2.70632 m -0.98502,2.70632 0,-2.88 0.98502,-2.70632 m -0.98502,2.70632 0,-2.88 -0.98502,-2.70632 m 0.98502,2.70632 0,-2.88 m 0,8.64 0.98502,-2.70632 1.85123,-2.20621 m -1.85123,2.20621 0.98502,-2.70632 0,-2.88 m 0,2.88 0.98501,-2.70631 m -2.95505,8.11895 0,-2.88 0.98502,-2.70632 m -0.98502,2.70632 0,-2.88 -0.98502,-2.70632 m 0.98502,2.70632 0,-2.88 m 0,2.88 0.98502,-2.70632 1.85123,-2.20621 m -1.85123,2.20621 0.98502,-2.70632 0,-2.88 m 0,2.88 0.98501,-2.70631 m -2.95505,8.11895 0,-2.88 0.98502,-2.70632 m -0.98502,2.70632 0,-2.88 -0.98502,-2.70632 m 0.98502,2.70632 0,-2.88 m 0,2.88 -0.98502,-2.70632 0,-2.88 m 0,2.88 -0.98502,-2.70632 -1.85123,-2.20621 m 1.85123,2.20621 -0.98501,-2.70631 m 2.95505,8.11895 0,-2.88 0.98502,-2.70632 m -0.98502,2.70632 0,-2.88 -0.98502,-2.70632 m 0.98502,2.70632 0,-2.88 m 0,20.16 0.98502,-2.70632 1.85123,-2.20621 m -1.85123,2.20621 0.98502,-2.70632 0,-2.88 m 0,2.88 0.98501,-2.70631 m -0.98501,2.70631 1.85122,-2.20621 2.49416,-1.44 m -2.49416,1.44 1.85123,-2.2062 0.98502,-2.70632 m -0.98502,2.70632 1.85123,-2.20622 m -5.55368,6.61863 0.98501,-2.70631 1.85123,-2.20621 m -1.85123,2.20621 0.98502,-2.70632 0,-2.88 m 0,2.88 0.98502,-2.70631 m -0.98502,2.70631 0,-2.88 0.98502,-2.70631 m -0.98502,2.70631 0,-2.88 -0.98502,-2.70631 m 0.98502,2.70631 0,-2.88 m 0,8.64 0.98502,-2.70631 1.85122,-2.20621 m -1.85122,2.20621 0.98502,-2.70631 0,-2.88 m 0,2.88 0.98501,-2.70632 m -6.89512,18.94421 0,-2.88 0.98502,-2.70632 m -0.98502,2.70632 0,-2.88 -0.98502,-2.70632 m 0.98502,2.70632 0,-2.88 m 0,2.88 0.98502,-2.70632 1.85123,-2.20621 m -1.85123,2.20621 0.98502,-2.70632 0,-2.88 m 0,2.88 0.98501,-2.70631 m -2.95505,8.11895 0,-2.88 0.98502,-2.70632 m -0.98502,2.70632 0,-2.88 -0.98502,-2.70632 m 0.98502,2.70632 0,-2.88 m 0,2.88 -0.98502,-2.70632 0,-2.88 m 0,2.88 -0.98502,-2.70632 -1.85123,-2.20621 m 1.85123,2.20621 -0.98501,-2.70631 m 2.95505,8.11895 0,-2.88 0.98502,-2.70632 m -0.98502,2.70632 0,-2.88 -0.98502,-2.70632 m 0.98502,2.70632 0,-2.88 m 0,8.64 0.98502,-2.70632 1.85123,-2.20621 m -1.85123,2.20621 0.98502,-2.70632 0,-2.88 m 0,2.88 0.98501,-2.70631 m -0.98501,2.70631 1.85122,-2.20621 2.49416,-1.44 m -2.49416,1.44 1.85123,-2.2062 0.98502,-2.70632 m -0.98502,2.70632 1.85123,-2.20622 m -5.55368,6.61863 0.98501,-2.70631 1.85123,-2.20621 m -1.85123,2.20621 0.98502,-2.70632 0,-2.88 m 0,2.88 0.98502,-2.70631 m -0.98502,2.70631 0,-2.88 0.98502,-2.70631 m -0.98502,2.70631 0,-2.88 -0.98502,-2.70631 m 0.98502,2.70631 0,-2.88 m 0,8.64 0.98502,-2.70631 1.85122,-2.20621 m -1.85122,2.20621 0.98502,-2.70631 0,-2.88 m 0,2.88 0.98501,-2.70632 m -6.89512,18.94421 0,-2.88 0.98502,-2.70632 m -0.98502,2.70632 0,-2.88 -0.98502,-2.70632 m 0.98502,2.70632 0,-2.88 m 0,2.88 0.98502,-2.70632 1.85123,-2.20621 m -1.85123,2.20621 0.98502,-2.70632 0,-2.88 m 0,2.88 0.98501,-2.70631 m -2.95505,8.11895 0,-2.88 0.98502,-2.70632 m -0.98502,2.70632 0,-2.88 -0.98502,-2.70632 m 0.98502,2.70632 0,-2.88 m 0,2.88 -0.98502,-2.70632 0,-2.88 m 0,2.88 -0.98502,-2.70632 -1.85123,-2.20621 m 1.85123,2.20621 -0.98501,-2.70631 m 2.95505,8.11895 0,-2.88 0.98502,-2.70632 m -0.98502,2.70632 0,-2.88 -0.98502,-2.70632 m 0.98502,2.70632 0,-2.88 m 0,8.64 -0.98502,-2.70632 0,-2.88 m 0,2.88 -0.98502,-2.70632 -1.85123,-2.20621 m 1.85123,2.20621 -0.98501,-2.70631 m 0.98501,2.70631 0,-2.88 0.98502,-2.70631 m -0.98502,2.70631 0,-2.88 -0.98501,-2.70631 m 0.98501,2.70631 0,-2.88 m 0,8.64 -0.98501,-2.70631 0,-2.88 m 0,2.88 -0.98502,-2.70632 -1.85122,-2.2062 m 1.85122,2.2062 -0.98502,-2.70631 m 0.98502,2.70631 -1.85122,-2.2062 -0.98503,-2.70632 m 0.98503,2.70632 -1.85123,-2.20622 -2.49415,-1.44 m 2.49415,1.44 -1.85123,-2.2062 m 5.55368,6.61862 -0.98502,-2.70631 0,-2.88 m 0,2.88 -0.98501,-2.70631 -1.85123,-2.20621 m 1.85123,2.20621 -0.98503,-2.70632 m 6.89513,18.94421 0,-2.88 0.98502,-2.70632 m -0.98502,2.70632 0,-2.88 -0.98502,-2.70632 m 0.98502,2.70632 0,-2.88 m 0,2.88 0.98502,-2.70632 1.85123,-2.20621 m -1.85123,2.20621 0.98502,-2.70632 0,-2.88 m 0,2.88 0.98501,-2.70631 m -2.95505,8.11895 0,-2.88 0.98502,-2.70632 m -0.98502,2.70632 0,-2.88 -0.98502,-2.70632 m 0.98502,2.70632 0,-2.88 m 0,2.88 -0.98502,-2.70632 0,-2.88 m 0,2.88 -0.98502,-2.70632 -1.85123,-2.20621 m 1.85123,2.20621 -0.98501,-2.70631 m 2.95505,8.11895 0,-2.88 0.98502,-2.70632 m -0.98502,2.70632 0,-2.88 -0.98502,-2.70632 m 0.98502,2.70632 0,-2.88 m 0,43.2 0.98502,-2.70632 1.85123,-2.20621 m -1.85123,2.20621 0.98502,-2.70632 0,-2.88 m 0,2.88 0.98501,-2.70631 m -0.98501,2.70631 1.85122,-2.20621 2.49416,-1.44 m -2.49416,1.44 1.85123,-2.2062 0.98502,-2.70632 m -0.98502,2.70632 1.85123,-2.20622 m -5.55368,6.61863 0.98501,-2.70631 1.85123,-2.20621 m -1.85123,2.20621 0.98502,-2.70632 0,-2.88 m 0,2.88 0.98502,-2.70631 m -0.98502,2.70631 0,-2.88 0.98502,-2.70631 m -0.98502,2.70631 0,-2.88 -0.98502,-2.70631 m 0.98502,2.70631 0,-2.88 m 0,8.64 0.98502,-2.70631 1.85122,-2.20621 m -1.85122,2.20621 0.98502,-2.70631 0,-2.88 m 0,2.88 0.98501,-2.70632 m -2.95505,8.11894 1.85123,-2.2062 2.49416,-1.44 m -2.49416,1.44 1.85123,-2.20622 0.98501,-2.70631 m -0.98501,2.70631 1.85123,-2.2062 m -1.85123,2.2062 2.49416,-1.44 2.83624,-0.5001 m -2.83624,0.5001 2.49415,-1.44 1.85123,-2.2062 m -1.85123,2.2062 2.49415,-1.44 m -7.48246,4.32 1.85123,-2.2062 2.49416,-1.44 m -2.49416,1.44 1.85123,-2.20621 0.98502,-2.70631 m -0.98502,2.70631 1.85123,-2.20621 m -1.85123,2.20621 0.98502,-2.70631 1.85123,-2.20621 m -1.85123,2.20621 0.98501,-2.70633 0,-2.88 m 0,2.88 0.98502,-2.7063 m -2.95505,8.11894 1.85123,-2.20621 2.49415,-1.44 m -2.49415,1.44 1.85123,-2.2062 0.98501,-2.70632 m -0.98501,2.70632 1.85123,-2.20622 m -12.95861,15.44346 0.98502,-2.70631 1.85122,-2.20621 m -1.85122,2.20621 0.98502,-2.70631 0,-2.88 m 0,2.88 0.98501,-2.70632 m -0.98501,2.70632 1.85123,-2.20621 2.49415,-1.44 m -2.49415,1.44 1.85123,-2.20621 0.98502,-2.70631 m -0.98502,2.70631 1.85122,-2.20621 m -5.55368,6.61863 0.98501,-2.70632 1.85124,-2.20621 m -1.85124,2.20621 0.98503,-2.70632 0,-2.88 m 0,2.88 0.98502,-2.70632 m -0.98502,2.70632 0,-2.88 0.98502,-2.70632 m -0.98502,2.70632 0,-2.88 -0.98503,-2.70632 m 0.98503,2.70632 0,-2.88 m 0,8.64 0.98502,-2.70632 1.85123,-2.20619 m -1.85123,2.20619 0.98501,-2.70631 0,-2.88 m 0,2.88 0.98502,-2.70631 m -2.95505,8.11894 0,-2.88 0.98502,-2.70632 m -0.98502,2.70632 0,-2.88 -0.98503,-2.70632 m 0.98503,2.70632 0,-2.88 m 0,2.88 0.98502,-2.70632 1.85123,-2.20619 m -1.85123,2.20619 0.98501,-2.70631 0,-2.88 m 0,2.88 0.98502,-2.70631 m -2.95505,8.11894 0,-2.88 0.98502,-2.70632 m -0.98502,2.70632 0,-2.88 -0.98503,-2.70632 m 0.98503,2.70632 0,-2.88 m 0,2.88 -0.98503,-2.70632 0,-2.88 m 0,2.88 -0.98501,-2.70631 -1.85123,-2.2062 m 1.85123,2.2062 -0.98502,-2.70631 m 2.95506,8.11894 0,-2.88 0.98502,-2.70632 m -0.98502,2.70632 0,-2.88 -0.98503,-2.70632 m 0.98503,2.70632 0,-2.88 m 0,20.16 0.98502,-2.70632 1.85123,-2.20619 m -1.85123,2.20619 0.98501,-2.70631 0,-2.88 m 0,2.88 0.98502,-2.70631 m -0.98502,2.70631 1.85123,-2.2062 2.49415,-1.44 m -2.49415,1.44 1.85123,-2.20621 0.98501,-2.70632 m -0.98501,2.70632 1.85123,-2.20621 m -5.55369,6.61862 0.98502,-2.70631 1.85123,-2.2062 m -1.85123,2.2062 0.98502,-2.70631 0,-2.88 m 0,2.88 0.98501,-2.70632 m -0.98501,2.70632 0,-2.88 0.98501,-2.70632 m -0.98501,2.70632 0,-2.88 -0.98502,-2.70632 m 0.98502,2.70632 0,-2.88 m 0,8.64 0.98501,-2.70632 1.85123,-2.20621 m -1.85123,2.20621 0.98503,-2.70632 0,-2.88 m 0,2.88 0.98501,-2.70631 m -30.53556,83.89576 0,-2.88 0.98502,-2.70632 m -0.98502,2.70632 0,-2.88 -0.98501,-2.70632 m 0.98501,2.70632 0,-2.88 m 0,2.88 0.98502,-2.70632 1.85122,-2.2062 m -1.85122,2.2062 0.98502,-2.70631 0,-2.88 m 0,2.88 0.98501,-2.70632 m -2.95505,8.11895 0,-2.88 0.98502,-2.70632 m -0.98502,2.70632 0,-2.88 -0.98501,-2.70632 m 0.98501,2.70632 0,-2.88 m 0,2.88 -0.98501,-2.70632 0,-2.88 m 0,2.88 -0.98503,-2.70631 -1.85122,-2.20621 m 1.85122,2.20621 -0.98501,-2.70632 m 2.95505,8.11895 0,-2.88 0.98502,-2.70632 m -0.98502,2.70632 0,-2.88 -0.98501,-2.70632 m 0.98501,2.70632 0,-2.88 m 0,8.64 0.98502,-2.70632 1.85122,-2.2062 m -1.85122,2.2062 0.98502,-2.70631 0,-2.88 m 0,2.88 0.98501,-2.70632 m -0.98501,2.70632 1.85123,-2.20621 2.49415,-1.44 m -2.49415,1.44 1.85122,-2.20621 0.98502,-2.70632 m -0.98502,2.70632 1.85123,-2.2062 m -5.55368,6.61862 0.98501,-2.70632 1.85123,-2.2062 m -1.85123,2.2062 0.98503,-2.70631 0,-2.88 m 0,2.88 0.98501,-2.70632 m -0.98501,2.70632 0,-2.88 0.98501,-2.70632 m -0.98501,2.70632 0,-2.88 -0.98503,-2.70632 m 0.98503,2.70632 0,-2.88 m 0,8.64 0.98501,-2.70632 1.85124,-2.2062 m -1.85124,2.2062 0.98502,-2.70631 0,-2.88 m 0,2.88 0.98503,-2.70632 m -6.89514,18.94421 0,-2.88 0.98502,-2.70632 m -0.98502,2.70632 0,-2.88 -0.98501,-2.70632 m 0.98501,2.70632 0,-2.88 m 0,2.88 0.98502,-2.70632 1.85122,-2.2062 m -1.85122,2.2062 0.98502,-2.70631 0,-2.88 m 0,2.88 0.98501,-2.70632 m -2.95505,8.11895 0,-2.88 0.98502,-2.70632 m -0.98502,2.70632 0,-2.88 -0.98501,-2.70632 m 0.98501,2.70632 0,-2.88 m 0,2.88 -0.98501,-2.70632 0,-2.88 m 0,2.88 -0.98503,-2.70631 -1.85122,-2.20621 m 1.85122,2.20621 -0.98501,-2.70632 m 2.95505,8.11895 0,-2.88 0.98502,-2.70632 m -0.98502,2.70632 0,-2.88 -0.98501,-2.70632 m 0.98501,2.70632 0,-2.88 m 0,8.64 -0.98501,-2.70632 0,-2.88 m 0,2.88 -0.98503,-2.70631 -1.85122,-2.20621 m 1.85122,2.20621 -0.98501,-2.70632 m 0.98501,2.70632 0,-2.88 0.98503,-2.70632 m -0.98503,2.70632 0,-2.88 -0.98501,-2.70632 m 0.98501,2.70632 0,-2.88 m 0,8.64 -0.98501,-2.70632 0,-2.88 m 0,2.88 -0.98502,-2.70631 -1.85123,-2.20621 m 1.85123,2.20621 -0.98502,-2.70632 m 0.98502,2.70632 -1.85123,-2.20621 -0.98501,-2.70631 m 0.98501,2.70631 -1.85123,-2.2062 -2.49415,-1.44 m 2.49415,1.44 -1.85123,-2.20622 m 5.55369,6.61863 -0.98502,-2.70632 0,-2.88 m 0,2.88 -0.98501,-2.70631 -1.85123,-2.20621 m 1.85123,2.20621 -0.98502,-2.70632 m 6.89512,18.94421 0,-2.88 0.98502,-2.70632 m -0.98502,2.70632 0,-2.88 -0.98501,-2.70632 m 0.98501,2.70632 0,-2.88 m 0,2.88 0.98502,-2.70632 1.85122,-2.2062 m -1.85122,2.2062 0.98502,-2.70631 0,-2.88 m 0,2.88 0.98501,-2.70632 m -2.95505,8.11895 0,-2.88 0.98502,-2.70632 m -0.98502,2.70632 0,-2.88 -0.98501,-2.70632 m 0.98501,2.70632 0,-2.88 m 0,2.88 -0.98501,-2.70632 0,-2.88 m 0,2.88 -0.98503,-2.70631 -1.85122,-2.20621 m 1.85122,2.20621 -0.98501,-2.70632 m 2.95505,8.11895 0,-2.88 0.98502,-2.70632 m -0.98502,2.70632 0,-2.88 -0.98501,-2.70632 m 0.98501,2.70632 0,-2.88 m 0,20.16 0.98502,-2.70632 1.85122,-2.2062 m -1.85122,2.2062 0.98502,-2.70631 0,-2.88 m 0,2.88 0.98501,-2.70632 m -0.98501,2.70632 1.85123,-2.20621 2.49415,-1.44 m -2.49415,1.44 1.85122,-2.20621 0.98502,-2.70632 m -0.98502,2.70632 1.85123,-2.2062 m -5.55368,6.61862 0.98501,-2.70632 1.85123,-2.2062 m -1.85123,2.2062 0.98503,-2.70631 0,-2.88 m 0,2.88 0.98501,-2.70632 m -0.98501,2.70632 0,-2.88 0.98501,-2.70632 m -0.98501,2.70632 0,-2.88 -0.98503,-2.70632 m 0.98503,2.70632 0,-2.88 m 0,8.64 0.98501,-2.70632 1.85124,-2.2062 m -1.85124,2.2062 0.98502,-2.70631 0,-2.88 m 0,2.88 0.98503,-2.70632 m -2.95506,8.11895 1.85122,-2.20621 2.49416,-1.44 m -2.49416,1.44 1.85123,-2.2062 0.98502,-2.70632 m -0.98502,2.70632 1.85123,-2.20622 m -1.85123,2.20622 2.49415,-1.44 2.83625,-0.50011 m -2.83625,0.50011 2.49416,-1.44 1.85122,-2.20622 m -1.85122,2.20622 2.49415,-1.44 m -7.48246,4.32 1.85123,-2.20622 2.49415,-1.44 m -2.49415,1.44 1.85123,-2.20621 0.98502,-2.70631 m -0.98502,2.70631 1.85123,-2.2062 m -1.85123,2.2062 0.98502,-2.70631 1.85123,-2.2062 m -1.85123,2.2062 0.98501,-2.70631 0,-2.88 m 0,2.88 0.98503,-2.70632 m -2.95506,8.11894 1.85123,-2.2062 2.49415,-1.44 m -2.49415,1.44 1.85122,-2.20621 0.98503,-2.70632 m -0.98503,2.70632 1.85123,-2.2062 m -12.95859,15.44345 0.98501,-2.70632 1.85124,-2.2062 m -1.85124,2.2062 0.98502,-2.70631 0,-2.88 m 0,2.88 0.98503,-2.70632 m -0.98503,2.70632 1.85123,-2.20621 2.49415,-1.44 m -2.49415,1.44 1.85123,-2.2062 0.98502,-2.70632 m -0.98502,2.70632 1.85123,-2.20622 m -5.55369,6.61863 0.98503,-2.70632 1.85122,-2.2062 m -1.85122,2.2062 0.98501,-2.70632 0,-2.88 m 0,2.88 0.98501,-2.7063 m -0.98501,2.7063 0,-2.88 0.98501,-2.7063 m -0.98501,2.7063 0,-2.88 -0.98501,-2.7063 m 0.98501,2.7063 0,-2.88 m 0,8.64 0.98501,-2.7063 1.85123,-2.20622 m -1.85123,2.20622 0.98503,-2.70632 0,-2.88 m 0,2.88 0.98501,-2.70631 m -2.95505,8.11893 0,-2.88 0.98501,-2.7063 m -0.98501,2.7063 0,-2.88 -0.98501,-2.7063 m 0.98501,2.7063 0,-2.88 m 0,2.88 0.98501,-2.7063 1.85123,-2.20622 m -1.85123,2.20622 0.98503,-2.70632 0,-2.88 m 0,2.88 0.98501,-2.70631 m -2.95505,8.11893 0,-2.88 0.98501,-2.7063 m -0.98501,2.7063 0,-2.88 -0.98501,-2.7063 m 0.98501,2.7063 0,-2.88 m 0,2.88 -0.98501,-2.7063 0,-2.88 m 0,2.88 -0.98503,-2.70632 -1.85123,-2.20621 m 1.85123,2.20621 -0.98502,-2.70631 m 2.95506,8.11893 0,-2.88 0.98501,-2.7063 m -0.98501,2.7063 0,-2.88 -0.98501,-2.7063 m 0.98501,2.7063 0,-2.88 m 0,20.16 0.98501,-2.7063 1.85123,-2.20622 m -1.85123,2.20622 0.98503,-2.70632 0,-2.88 m 0,2.88 0.98501,-2.70631 m -0.98501,2.70631 1.85122,-2.20621 2.49416,-1.44 m -2.49416,1.44 1.85123,-2.2062 0.98502,-2.70631 m -0.98502,2.70631 1.85123,-2.20621 m -5.55368,6.61862 0.98501,-2.70631 1.85123,-2.20622 m -1.85123,2.20622 0.98502,-2.70632 0,-2.88 m 0,2.88 0.98502,-2.70632 m -0.98502,2.70632 0,-2.88 0.98502,-2.70632 m -0.98502,2.70632 0,-2.88 -0.98502,-2.70632 m 0.98502,2.70632 0,-2.88 m 0,8.64 0.98502,-2.70632 1.85123,-2.2062 m -1.85123,2.2062 0.98501,-2.70631 0,-2.88 m 0,2.88 0.98502,-2.70631 m -14.77527,40.59472 0,-2.88 0.98502,-2.70632 m -0.98502,2.70632 0,-2.88 -0.98501,-2.70632 m 0.98501,2.70632 0,-2.88 m 0,2.88 0.98502,-2.70632 1.85122,-2.2062 m -1.85122,2.2062 0.98502,-2.70631 0,-2.88 m 0,2.88 0.98501,-2.70632 m -2.95505,8.11895 0,-2.88 0.98502,-2.70632 m -0.98502,2.70632 0,-2.88 -0.98501,-2.70632 m 0.98501,2.70632 0,-2.88 m 0,2.88 -0.98501,-2.70632 0,-2.88 m 0,2.88 -0.98503,-2.70631 -1.85122,-2.20621 m 1.85122,2.20621 -0.98501,-2.70632 m 2.95505,8.11895 0,-2.88 0.98502,-2.70632 m -0.98502,2.70632 0,-2.88 -0.98501,-2.70632 m 0.98501,2.70632 0,-2.88 m 0,8.64 0.98502,-2.70632 1.85122,-2.2062 m -1.85122,2.2062 0.98502,-2.70631 0,-2.88 m 0,2.88 0.98501,-2.70632 m -0.98501,2.70632 1.85123,-2.20621 2.49415,-1.44 m -2.49415,1.44 1.85122,-2.20621 0.98502,-2.70632 m -0.98502,2.70632 1.85123,-2.2062 m -5.55368,6.61862 0.98501,-2.70632 1.85123,-2.2062 m -1.85123,2.2062 0.98503,-2.70631 0,-2.88 m 0,2.88 0.98501,-2.70632 m -0.98501,2.70632 0,-2.88 0.98501,-2.70632 m -0.98501,2.70632 0,-2.88 -0.98503,-2.70632 m 0.98503,2.70632 0,-2.88 m 0,8.64 0.98501,-2.70632 1.85124,-2.2062 m -1.85124,2.2062 0.98502,-2.70631 0,-2.88 m 0,2.88 0.98503,-2.70632 m -6.89514,18.94421 0,-2.88 0.98502,-2.70632 m -0.98502,2.70632 0,-2.88 -0.98501,-2.70632 m 0.98501,2.70632 0,-2.88 m 0,2.88 0.98502,-2.70632 1.85122,-2.2062 m -1.85122,2.2062 0.98502,-2.70631 0,-2.88 m 0,2.88 0.98501,-2.70632 m -2.95505,8.11895 0,-2.88 0.98502,-2.70632 m -0.98502,2.70632 0,-2.88 -0.98501,-2.70632 m 0.98501,2.70632 0,-2.88 m 0,2.88 -0.98501,-2.70632 0,-2.88 m 0,2.88 -0.98503,-2.70631 -1.85122,-2.20621 m 1.85122,2.20621 -0.98501,-2.70632 m 2.95505,8.11895 0,-2.88 0.98502,-2.70632 m -0.98502,2.70632 0,-2.88 -0.98501,-2.70632 m 0.98501,2.70632 0,-2.88 m 0,8.64 -0.98501,-2.70632 0,-2.88 m 0,2.88 -0.98503,-2.70631 -1.85122,-2.20621 m 1.85122,2.20621 -0.98501,-2.70632 m 0.98501,2.70632 0,-2.88 0.98503,-2.70632 m -0.98503,2.70632 0,-2.88 -0.98501,-2.70632 m 0.98501,2.70632 0,-2.88 m 0,8.64 -0.98501,-2.70632 0,-2.88 m 0,2.88 -0.98502,-2.70631 -1.85123,-2.20621 m 1.85123,2.20621 -0.98502,-2.70632 m 0.98502,2.70632 -1.85123,-2.20621 -0.98501,-2.70631 m 0.98501,2.70631 -1.85123,-2.2062 -2.49415,-1.44 m 2.49415,1.44 -1.85123,-2.20622 m 5.55369,6.61863 -0.98502,-2.70632 0,-2.88 m 0,2.88 -0.98501,-2.70631 -1.85123,-2.20621 m 1.85123,2.20621 -0.98502,-2.70632 m 6.89512,18.94421 0,-2.88 0.98502,-2.70632 m -0.98502,2.70632 0,-2.88 -0.98501,-2.70632 m 0.98501,2.70632 0,-2.88 m 0,2.88 0.98502,-2.70632 1.85122,-2.2062 m -1.85122,2.2062 0.98502,-2.70631 0,-2.88 m 0,2.88 0.98501,-2.70632 m -2.95505,8.11895 0,-2.88 0.98502,-2.70632 m -0.98502,2.70632 0,-2.88 -0.98501,-2.70632 m 0.98501,2.70632 0,-2.88 m 0,2.88 -0.98501,-2.70632 0,-2.88 m 0,2.88 -0.98503,-2.70631 -1.85122,-2.20621 m 1.85122,2.20621 -0.98501,-2.70632 m 2.95505,8.11895 0,-2.88 0.98502,-2.70632 m -0.98502,2.70632 0,-2.88 -0.98501,-2.70632 m 0.98501,2.70632 0,-2.88 m 0,20.16 -0.98501,-2.70632 0,-2.88 m 0,2.88 -0.98503,-2.70631 -1.85122,-2.20621 m 1.85122,2.20621 -0.98501,-2.70632 m 0.98501,2.70632 0,-2.88 0.98503,-2.70632 m -0.98503,2.70632 0,-2.88 -0.98501,-2.70632 m 0.98501,2.70632 0,-2.88 m 0,8.64 -0.98501,-2.70632 0,-2.88 m 0,2.88 -0.98502,-2.70631 -1.85123,-2.20621 m 1.85123,2.20621 -0.98502,-2.70632 m 0.98502,2.70632 -1.85123,-2.20621 -0.98501,-2.70631 m 0.98501,2.70631 -1.85123,-2.2062 -2.49415,-1.44 m 2.49415,1.44 -1.85123,-2.20622 m 5.55369,6.61863 -0.98502,-2.70632 0,-2.88 m 0,2.88 -0.98501,-2.70631 -1.85123,-2.20621 m 1.85123,2.20621 -0.98502,-2.70632 m 2.95505,8.11895 0,-2.88 0.98502,-2.70632 m -0.98502,2.70632 0,-2.88 -0.98502,-2.70632 m 0.98502,2.70632 0,-2.88 m 0,2.88 0.98502,-2.70632 1.85123,-2.2062 m -1.85123,2.2062 0.98501,-2.70631 0,-2.88 m 0,2.88 0.98503,-2.70632 m -2.95506,8.11895 0,-2.88 0.98502,-2.70632 m -0.98502,2.70632 0,-2.88 -0.98502,-2.70632 m 0.98502,2.70632 0,-2.88 m 0,2.88 -0.98502,-2.70632 0,-2.88 m 0,2.88 -0.98501,-2.70631 -1.85123,-2.20621 m 1.85123,2.20621 -0.98502,-2.70632 m 2.95505,8.11895 0,-2.88 0.98502,-2.70632 m -0.98502,2.70632 0,-2.88 -0.98502,-2.70632 m 0.98502,2.70632 0,-2.88 m 0,20.16 -0.98502,-2.70632 0,-2.88 m 0,2.88 -0.98501,-2.70631 -1.85123,-2.20621 m 1.85123,2.20621 -0.98502,-2.70632 m 0.98502,2.70632 0,-2.88 0.98501,-2.70632 m -0.98501,2.70632 0,-2.88 -0.98502,-2.70632 m 0.98502,2.70632 0,-2.88 m 0,8.64 -0.98502,-2.70632 0,-2.88 m 0,2.88 -0.98502,-2.70632 -1.85123,-2.2062 m 1.85123,2.2062 -0.98502,-2.7063 m 0.98502,2.7063 -1.85123,-2.2062 -0.98502,-2.70632 m 0.98502,2.70632 -1.85122,-2.20621 -2.49416,-1.44 m 2.49416,1.44 -1.85123,-2.2062 m 5.55368,6.61861 -0.98502,-2.7063 0,-2.88 m 0,2.88 -0.98501,-2.70632 -1.85123,-2.20621 m 1.85123,2.20621 -0.98502,-2.70631 m 2.95505,8.11893 -1.85123,-2.2062 -0.98502,-2.70632 m 0.98502,2.70632 -1.85122,-2.20621 -2.49416,-1.44 m 2.49416,1.44 -1.85123,-2.2062 m 1.85123,2.2062 -0.98503,-2.70631 0,-2.88 m 0,2.88 -0.98501,-2.70631 -1.85124,-2.20621 m 1.85124,2.20621 -0.98502,-2.70631 m 2.95506,8.11893 -1.85123,-2.2062 -0.98502,-2.70632 m 0.98502,2.70632 -1.85123,-2.20621 -2.49416,-1.44 m 2.49416,1.44 -1.85123,-2.20621 m 1.85123,2.20621 -2.49416,-1.44 -1.85123,-2.20621 m 1.85123,2.20621 -2.49415,-1.44 -2.83624,-0.50011 m 2.83624,0.50011 -2.49415,-1.44 m 7.48246,4.32 -1.85123,-2.20621 -0.98502,-2.70631 m 0.98502,2.70631 -1.85123,-2.2062 -2.49416,-1.44 m 2.49416,1.44 -1.85123,-2.20622 m 12.9586,15.44345 -0.98502,-2.7063 0,-2.88 m 0,2.88 -0.98501,-2.70632 -1.85123,-2.20621 m 1.85123,2.20621 -0.98502,-2.70631 m 0.98502,2.70631 0,-2.88 0.98501,-2.70631 m -0.98501,2.70631 0,-2.88 -0.98502,-2.70631 m 0.98502,2.70631 0,-2.88 m 0,8.64 -0.98502,-2.70631 0,-2.88 m 0,2.88 -0.98503,-2.70632 -1.85123,-2.20621 m 1.85123,2.20621 -0.98501,-2.70632 m 0.98501,2.70632 -1.85123,-2.20621 -0.98501,-2.70631 m 0.98501,2.70631 -1.85123,-2.20621 -2.49415,-1.44 m 2.49415,1.44 -1.85122,-2.2062 m 5.55368,6.61862 -0.98501,-2.70632 0,-2.88 m 0,2.88 -0.98502,-2.70631 -1.85123,-2.20621 m 1.85123,2.20621 -0.98502,-2.70631 m 14.77527,40.59472 0,-2.88 0.98502,-2.70632 m -0.98502,2.70632 0,-2.88 -0.98501,-2.70632 m 0.98501,2.70632 0,-2.88 m 0,2.88 0.98502,-2.70632 1.85122,-2.2062 m -1.85122,2.2062 0.98502,-2.70631 0,-2.88 m 0,2.88 0.98501,-2.70632 m -2.95505,8.11895 0,-2.88 0.98502,-2.70632 m -0.98502,2.70632 0,-2.88 -0.98501,-2.70632 m 0.98501,2.70632 0,-2.88 m 0,2.88 -0.98501,-2.70632 0,-2.88 m 0,2.88 -0.98503,-2.70631 -1.85122,-2.20621 m 1.85122,2.20621 -0.98501,-2.70632 m 2.95505,8.11895 0,-2.88 0.98502,-2.70632 m -0.98502,2.70632 0,-2.88 -0.98501,-2.70632 m 0.98501,2.70632 0,-2.88 m 0,8.64 0.98502,-2.70632 1.85122,-2.2062 m -1.85122,2.2062 0.98502,-2.70631 0,-2.88 m 0,2.88 0.98501,-2.70632 m -0.98501,2.70632 1.85123,-2.20621 2.49415,-1.44 m -2.49415,1.44 1.85122,-2.20621 0.98502,-2.70632 m -0.98502,2.70632 1.85123,-2.2062 m -5.55368,6.61862 0.98501,-2.70632 1.85123,-2.2062 m -1.85123,2.2062 0.98503,-2.70631 0,-2.88 m 0,2.88 0.98501,-2.70632 m -0.98501,2.70632 0,-2.88 0.98501,-2.70632 m -0.98501,2.70632 0,-2.88 -0.98503,-2.70632 m 0.98503,2.70632 0,-2.88 m 0,8.64 0.98501,-2.70632 1.85124,-2.2062 m -1.85124,2.2062 0.98502,-2.70631 0,-2.88 m 0,2.88 0.98503,-2.70632 m -6.89514,18.94421 0,-2.88 0.98502,-2.70632 m -0.98502,2.70632 0,-2.88 -0.98501,-2.70632 m 0.98501,2.70632 0,-2.88 m 0,2.88 0.98502,-2.70632 1.85122,-2.2062 m -1.85122,2.2062 0.98502,-2.70631 0,-2.88 m 0,2.88 0.98501,-2.70632 m -2.95505,8.11895 0,-2.88 0.98502,-2.70632 m -0.98502,2.70632 0,-2.88 -0.98501,-2.70632 m 0.98501,2.70632 0,-2.88 m 0,2.88 -0.98501,-2.70632 0,-2.88 m 0,2.88 -0.98503,-2.70631 -1.85122,-2.20621 m 1.85122,2.20621 -0.98501,-2.70632 m 2.95505,8.11895 0,-2.88 0.98502,-2.70632 m -0.98502,2.70632 0,-2.88 -0.98501,-2.70632 m 0.98501,2.70632 0,-2.88 m 0,8.64 -0.98501,-2.70632 0,-2.88 m 0,2.88 -0.98503,-2.70631 -1.85122,-2.20621 m 1.85122,2.20621 -0.98501,-2.70632 m 0.98501,2.70632 0,-2.88 0.98503,-2.70632 m -0.98503,2.70632 0,-2.88 -0.98501,-2.70632 m 0.98501,2.70632 0,-2.88 m 0,8.64 -0.98501,-2.70632 0,-2.88 m 0,2.88 -0.98502,-2.70631 -1.85123,-2.20621 m 1.85123,2.20621 -0.98502,-2.70632 m 0.98502,2.70632 -1.85123,-2.20621 -0.98501,-2.70631 m 0.98501,2.70631 -1.85123,-2.2062 -2.49415,-1.44 m 2.49415,1.44 -1.85123,-2.20622 m 5.55369,6.61863 -0.98502,-2.70632 0,-2.88 m 0,2.88 -0.98501,-2.70631 -1.85123,-2.20621 m 1.85123,2.20621 -0.98502,-2.70632 m 6.89512,18.94421 0,-2.88 0.98502,-2.70632 m -0.98502,2.70632 0,-2.88 -0.98501,-2.70632 m 0.98501,2.70632 0,-2.88 m 0,2.88 0.98502,-2.70632 1.85122,-2.2062 m -1.85122,2.2062 0.98502,-2.70631 0,-2.88 m 0,2.88 0.98501,-2.70632 m -2.95505,8.11895 0,-2.88 0.98502,-2.70632 m -0.98502,2.70632 0,-2.88 -0.98501,-2.70632 m 0.98501,2.70632 0,-2.88 m 0,2.88 -0.98501,-2.70632 0,-2.88 m 0,2.88 -0.98503,-2.70631 -1.85122,-2.20621 m 1.85122,2.20621 -0.98501,-2.70632 m 2.95505,8.11895 0,-2.88 0.98502,-2.70632 m -0.98502,2.70632 0,-2.88 -0.98501,-2.70632 m 0.98501,2.70632 0,-2.88 m 0,43.2 -0.98501,-2.70632 0,-2.88 m 0,2.88 -0.98503,-2.70631 -1.85122,-2.20621 m 1.85122,2.20621 -0.98501,-2.70632 m 0.98501,2.70632 0,-2.88 0.98503,-2.70632 m -0.98503,2.70632 0,-2.88 -0.98501,-2.70632 m 0.98501,2.70632 0,-2.88 m 0,8.64 -0.98501,-2.70632 0,-2.88 m 0,2.88 -0.98502,-2.70631 -1.85123,-2.20621 m 1.85123,2.20621 -0.98502,-2.70632 m 0.98502,2.70632 -1.85123,-2.20621 -0.98501,-2.70631 m 0.98501,2.70631 -1.85123,-2.2062 -2.49415,-1.44 m 2.49415,1.44 -1.85123,-2.20622 m 5.55369,6.61863 -0.98502,-2.70632 0,-2.88 m 0,2.88 -0.98501,-2.70631 -1.85123,-2.20621 m 1.85123,2.20621 -0.98502,-2.70632 m 2.95505,8.11895 0,-2.88 0.98502,-2.70632 m -0.98502,2.70632 0,-2.88 -0.98502,-2.70632 m 0.98502,2.70632 0,-2.88 m 0,2.88 0.98502,-2.70632 1.85123,-2.2062 m -1.85123,2.2062 0.98501,-2.70631 0,-2.88 m 0,2.88 0.98503,-2.70632 m -2.95506,8.11895 0,-2.88 0.98502,-2.70632 m -0.98502,2.70632 0,-2.88 -0.98502,-2.70632 m 0.98502,2.70632 0,-2.88 m 0,2.88 -0.98502,-2.70632 0,-2.88 m 0,2.88 -0.98501,-2.70631 -1.85123,-2.20621 m 1.85123,2.20621 -0.98502,-2.70632 m 2.95505,8.11895 0,-2.88 0.98502,-2.70632 m -0.98502,2.70632 0,-2.88 -0.98502,-2.70632 m 0.98502,2.70632 0,-2.88 m 0,20.16 -0.98502,-2.70632 0,-2.88 m 0,2.88 -0.98501,-2.70631 -1.85123,-2.20621 m 1.85123,2.20621 -0.98502,-2.70632 m 0.98502,2.70632 0,-2.88 0.98501,-2.70632 m -0.98501,2.70632 0,-2.88 -0.98502,-2.70632 m 0.98502,2.70632 0,-2.88 m 0,8.64 -0.98502,-2.70632 0,-2.88 m 0,2.88 -0.98502,-2.70632 -1.85123,-2.2062 m 1.85123,2.2062 -0.98502,-2.7063 m 0.98502,2.7063 -1.85123,-2.2062 -0.98502,-2.70632 m 0.98502,2.70632 -1.85122,-2.20621 -2.49416,-1.44 m 2.49416,1.44 -1.85123,-2.2062 m 5.55368,6.61861 -0.98502,-2.7063 0,-2.88 m 0,2.88 -0.98501,-2.70632 -1.85123,-2.20621 m 1.85123,2.20621 -0.98502,-2.70631 m 2.95505,8.11893 -1.85123,-2.2062 -0.98502,-2.70632 m 0.98502,2.70632 -1.85122,-2.20621 -2.49416,-1.44 m 2.49416,1.44 -1.85123,-2.2062 m 1.85123,2.2062 -0.98503,-2.70631 0,-2.88 m 0,2.88 -0.98501,-2.70631 -1.85124,-2.20621 m 1.85124,2.20621 -0.98502,-2.70631 m 2.95506,8.11893 -1.85123,-2.2062 -0.98502,-2.70632 m 0.98502,2.70632 -1.85123,-2.20621 -2.49416,-1.44 m 2.49416,1.44 -1.85123,-2.20621 m 1.85123,2.20621 -2.49416,-1.44 -1.85123,-2.20621 m 1.85123,2.20621 -2.49415,-1.44 -2.83624,-0.50011 m 2.83624,0.50011 -2.49415,-1.44 m 7.48246,4.32 -1.85123,-2.20621 -0.98502,-2.70631 m 0.98502,2.70631 -1.85123,-2.2062 -2.49416,-1.44 m 2.49416,1.44 -1.85123,-2.20622 m 12.9586,15.44345 -0.98502,-2.7063 0,-2.88 m 0,2.88 -0.98501,-2.70632 -1.85123,-2.20621 m 1.85123,2.20621 -0.98502,-2.70631 m 0.98502,2.70631 0,-2.88 0.98501,-2.70631 m -0.98501,2.70631 0,-2.88 -0.98502,-2.70631 m 0.98502,2.70631 0,-2.88 m 0,8.64 -0.98502,-2.70631 0,-2.88 m 0,2.88 -0.98503,-2.70632 -1.85123,-2.20621 m 1.85123,2.20621 -0.98501,-2.70632 m 0.98501,2.70632 -1.85123,-2.20621 -0.98501,-2.70631 m 0.98501,2.70631 -1.85123,-2.20621 -2.49415,-1.44 m 2.49415,1.44 -1.85122,-2.2062 m 5.55368,6.61862 -0.98501,-2.70632 0,-2.88 m 0,2.88 -0.98502,-2.70631 -1.85123,-2.20621 m 1.85123,2.20621 -0.98502,-2.70631 m 6.89513,18.94419 0,-2.88 0.98502,-2.7063 m -0.98502,2.7063 0,-2.88 -0.98502,-2.7063 m 0.98502,2.7063 0,-2.88 m 0,2.88 0.98502,-2.7063 1.85122,-2.20622 m -1.85122,2.20622 0.98502,-2.70632 0,-2.88 m 0,2.88 0.98501,-2.70631 m -2.95505,8.11893 0,-2.88 0.98502,-2.7063 m -0.98502,2.7063 0,-2.88 -0.98502,-2.7063 m 0.98502,2.7063 0,-2.88 m 0,2.88 -0.98502,-2.7063 0,-2.88 m 0,2.88 -0.98501,-2.70632 -1.85123,-2.20621 m 1.85123,2.20621 -0.98502,-2.70631 m 2.95505,8.11893 0,-2.88 0.98502,-2.7063 m -0.98502,2.7063 0,-2.88 -0.98502,-2.7063 m 0.98502,2.7063 0,-2.88 m 0,8.64 0.98502,-2.7063 1.85122,-2.20622 m -1.85122,2.20622 0.98502,-2.70632 0,-2.88 m 0,2.88 0.98501,-2.70631 m -0.98501,2.70631 1.85123,-2.20621 2.49415,-1.44 m -2.49415,1.44 1.85123,-2.2062 0.98501,-2.70631 m -0.98501,2.70631 1.85122,-2.20621 m -5.55368,6.61862 0.98501,-2.70631 1.85123,-2.20622 m -1.85123,2.20622 0.98502,-2.70632 0,-2.88 m 0,2.88 0.98502,-2.70632 m -0.98502,2.70632 0,-2.88 0.98502,-2.70632 m -0.98502,2.70632 0,-2.88 -0.98502,-2.70632 m 0.98502,2.70632 0,-2.88 m 0,8.64 0.98502,-2.70632 1.85123,-2.2062 m -1.85123,2.2062 0.98501,-2.70631 0,-2.88 m 0,2.88 0.98503,-2.70631 m -6.89513,18.94419 0,-2.88 0.98502,-2.7063 m -0.98502,2.7063 0,-2.88 -0.98502,-2.7063 m 0.98502,2.7063 0,-2.88 m 0,2.88 0.98502,-2.7063 1.85122,-2.20622 m -1.85122,2.20622 0.98502,-2.70632 0,-2.88 m 0,2.88 0.98501,-2.70631 m -2.95505,8.11893 0,-2.88 0.98502,-2.7063 m -0.98502,2.7063 0,-2.88 -0.98502,-2.7063 m 0.98502,2.7063 0,-2.88 m 0,2.88 -0.98502,-2.7063 0,-2.88 m 0,2.88 -0.98501,-2.70632 -1.85123,-2.20621 m 1.85123,2.20621 -0.98502,-2.70631 m 2.95505,8.11893 0,-2.88 0.98502,-2.7063 m -0.98502,2.7063 0,-2.88 -0.98502,-2.7063 m 0.98502,2.7063 0,-2.88 m 0,8.64 -0.98502,-2.7063 0,-2.88 m 0,2.88 -0.98501,-2.70632 -1.85123,-2.20621 m 1.85123,2.20621 -0.98502,-2.70631 m 0.98502,2.70631 0,-2.88 0.98501,-2.70631 m -0.98501,2.70631 0,-2.88 -0.98502,-2.70631 m 0.98502,2.70631 0,-2.88 m 0,8.64 -0.98502,-2.70631 0,-2.88 m 0,2.88 -0.98503,-2.70632 -1.85123,-2.20621 m 1.85123,2.20621 -0.98501,-2.70632 m 0.98501,2.70632 -1.85123,-2.20621 -0.98501,-2.70631 m 0.98501,2.70631 -1.85123,-2.20621 -2.49415,-1.44 m 2.49415,1.44 -1.85122,-2.2062 m 5.55368,6.61862 -0.98501,-2.70632 0,-2.88 m 0,2.88 -0.98502,-2.70631 -1.85123,-2.20621 m 1.85123,2.20621 -0.98502,-2.70631 m 6.89513,18.94419 0,-2.88 0.98502,-2.7063 m -0.98502,2.7063 0,-2.88 -0.98502,-2.7063 m 0.98502,2.7063 0,-2.88 m 0,2.88 0.98502,-2.7063 1.85122,-2.20622 m -1.85122,2.20622 0.98502,-2.70632 0,-2.88 m 0,2.88 0.98501,-2.70631 m -2.95505,8.11893 0,-2.88 0.98502,-2.7063 m -0.98502,2.7063 0,-2.88 -0.98502,-2.7063 m 0.98502,2.7063 0,-2.88 m 0,2.88 -0.98502,-2.7063 0,-2.88 m 0,2.88 -0.98501,-2.70632 -1.85123,-2.20621 m 1.85123,2.20621 -0.98502,-2.70631 m 2.95505,8.11893 0,-2.88 0.98502,-2.7063 m -0.98502,2.7063 0,-2.88 -0.98502,-2.7063 m 0.98502,2.7063 0,-2.88 m 0,43.2 -0.98502,-2.7063 0,-2.88 m 0,2.88 -0.98501,-2.70632 -1.85123,-2.20621 m 1.85123,2.20621 -0.98502,-2.70631 m 0.98502,2.70631 0,-2.88 0.98501,-2.70631 m -0.98501,2.70631 0,-2.88 -0.98502,-2.70631 m 0.98502,2.70631 0,-2.88 m 0,8.64 -0.98502,-2.70631 0,-2.88 m 0,2.88 -0.98503,-2.70632 -1.85123,-2.20621 m 1.85123,2.20621 -0.98501,-2.70632 m 0.98501,2.70632 -1.85123,-2.20621 -0.98501,-2.70631 m 0.98501,2.70631 -1.85123,-2.20621 -2.49415,-1.44 m 2.49415,1.44 -1.85122,-2.2062 m 5.55368,6.61862 -0.98501,-2.70632 0,-2.88 m 0,2.88 -0.98502,-2.70631 -1.85123,-2.20621 m 1.85123,2.20621 -0.98502,-2.70631 m 2.95505,8.11894 0,-2.88 0.98503,-2.70632 m -0.98503,2.70632 0,-2.88 -0.98501,-2.70632 m 0.98501,2.70632 0,-2.88 m 0,2.88 0.98503,-2.70632 1.85123,-2.2062 m -1.85123,2.2062 0.98502,-2.70631 0,-2.88 m 0,2.88 0.98501,-2.70631 m -2.95506,8.11894 0,-2.88 0.98503,-2.70632 m -0.98503,2.70632 0,-2.88 -0.98501,-2.70632 m 0.98501,2.70632 0,-2.88 m 0,2.88 -0.98501,-2.70632 0,-2.88 m 0,2.88 -0.98502,-2.70631 -1.85123,-2.20621 m 1.85123,2.20621 -0.98502,-2.70631 m 2.95505,8.11894 0,-2.88 0.98503,-2.70632 m -0.98503,2.70632 0,-2.88 -0.98501,-2.70632 m 0.98501,2.70632 0,-2.88 m 0,20.16 -0.98501,-2.70632 0,-2.88 m 0,2.88 -0.98502,-2.70631 -1.85123,-2.20621 m 1.85123,2.20621 -0.98502,-2.70631 m 0.98502,2.70631 0,-2.88 0.98502,-2.70631 m -0.98502,2.70631 0,-2.88 -0.98502,-2.70631 m 0.98502,2.70631 0,-2.88 m 0,8.64 -0.98502,-2.70631 0,-2.88 m 0,2.88 -0.98502,-2.70631 -1.85122,-2.20622 m 1.85122,2.20622 -0.98502,-2.70632 m 0.98502,2.70632 -1.85122,-2.20622 -0.98503,-2.70631 m 0.98503,2.70631 -1.85123,-2.2062 -2.49415,-1.44 m 2.49415,1.44 -1.85123,-2.20621 m 5.55368,6.61863 -0.98502,-2.70632 0,-2.88 m 0,2.88 -0.98501,-2.70632 -1.85123,-2.20621 m 1.85123,2.20621 -0.98502,-2.70631 m 2.95505,8.11895 -1.85122,-2.20622 -0.98503,-2.70631 m 0.98503,2.70631 -1.85123,-2.2062 -2.49415,-1.44 m 2.49415,1.44 -1.85123,-2.20621 m 1.85123,2.20621 -0.98502,-2.70632 0,-2.88 m 0,2.88 -0.98502,-2.70631 -1.85123,-2.20622 m 1.85123,2.20622 -0.98501,-2.70632 m 2.95505,8.11895 -1.85123,-2.20621 -0.98502,-2.70632 m 0.98502,2.70632 -1.85123,-2.20621 -2.49415,-1.44 m 2.49415,1.44 -1.85123,-2.20621 m 1.85123,2.20621 -2.49415,-1.44 -1.85123,-2.20621 m 1.85123,2.20621 -2.49415,-1.44 -2.83625,-0.50011 m 2.83625,0.50011 -2.49415,-1.44 m 7.48245,4.32 -1.85123,-2.20621 -0.98502,-2.70631 m 0.98502,2.70631 -1.85122,-2.20621 -2.49416,-1.44 m 2.49416,1.44 -1.85123,-2.2062 m 12.95859,15.44346 -0.98502,-2.70632 0,-2.88 m 0,2.88 -0.98501,-2.70632 -1.85123,-2.20621 m 1.85123,2.20621 -0.98502,-2.70631 m 0.98502,2.70631 0,-2.88 0.98501,-2.70631 m -0.98501,2.70631 0,-2.88 -0.98502,-2.70631 m 0.98502,2.70631 0,-2.88 m 0,8.64 -0.98502,-2.70631 0,-2.88 m 0,2.88 -0.98502,-2.70632 -1.85123,-2.2062 m 1.85123,2.2062 -0.98501,-2.70631 m 0.98501,2.70631 -1.85123,-2.2062 -0.98501,-2.70632 m 0.98501,2.70632 -1.85123,-2.20622 -2.49415,-1.44 m 2.49415,1.44 -1.85122,-2.2062 m 5.55368,6.61862 -0.98501,-2.70631 0,-2.88 m 0,2.88 -0.98503,-2.70631 -1.85122,-2.20621 m 1.85122,2.20621 -0.98501,-2.70632 m 6.89512,18.94421 -1.85122,-2.20622 -0.98503,-2.70631 m 0.98503,2.70631 -1.85123,-2.2062 -2.49415,-1.44 m 2.49415,1.44 -1.85123,-2.20621 m 1.85123,2.20621 -0.98502,-2.70632 0,-2.88 m 0,2.88 -0.98502,-2.70631 -1.85123,-2.20622 m 1.85123,2.20622 -0.98501,-2.70632 m 2.95505,8.11895 -1.85123,-2.20621 -0.98502,-2.70632 m 0.98502,2.70632 -1.85123,-2.20621 -2.49415,-1.44 m 2.49415,1.44 -1.85123,-2.20621 m 1.85123,2.20621 -2.49415,-1.44 -1.85123,-2.20621 m 1.85123,2.20621 -2.49415,-1.44 -2.83625,-0.50011 m 2.83625,0.50011 -2.49415,-1.44 m 7.48245,4.32 -1.85123,-2.20621 -0.98502,-2.70631 m 0.98502,2.70631 -1.85122,-2.20621 -2.49416,-1.44 m 2.49416,1.44 -1.85123,-2.2062 m 5.55368,6.61862 -0.98502,-2.70631 0,-2.88 m 0,2.88 -0.98501,-2.70631 -1.85123,-2.20622 m 1.85123,2.20622 -0.98502,-2.70632 m 0.98502,2.70632 0,-2.88 0.98501,-2.70632 m -0.98501,2.70632 0,-2.88 -0.98502,-2.70632 m 0.98502,2.70632 0,-2.88 m 0,8.64 -0.98502,-2.70632 0,-2.88 m 0,2.88 -0.98502,-2.70632 -1.85123,-2.20621 m 1.85123,2.20621 -0.98502,-2.70632 m 0.98502,2.70632 -1.85123,-2.20621 -0.98501,-2.70631 m 0.98501,2.70631 -1.85123,-2.2062 -2.49415,-1.44 m 2.49415,1.44 -1.85123,-2.20622 m 5.55369,6.61863 -0.98502,-2.70632 0,-2.88 m 0,2.88 -0.98502,-2.70632 -1.85123,-2.20619 m 1.85123,2.20619 -0.98501,-2.7063 m 6.89512,18.9442 -1.85123,-2.20621 -0.98502,-2.70631 m 0.98502,2.70631 -1.85122,-2.20621 -2.49416,-1.44 m 2.49416,1.44 -1.85123,-2.2062 m 1.85123,2.2062 -0.98503,-2.70632 0,-2.88 m 0,2.88 -0.98501,-2.7063 -1.85123,-2.20622 m 1.85123,2.20622 -0.98501,-2.70632 m 2.95505,8.11894 -1.85123,-2.2062 -0.98502,-2.70632 m 0.98502,2.70632 -1.85123,-2.20621 -2.49415,-1.44 m 2.49415,1.44 -1.85123,-2.20621 m 1.85123,2.20621 -2.49415,-1.44 -1.85123,-2.20621 m 1.85123,2.20621 -2.49415,-1.44 -2.83625,-0.50011 m 2.83625,0.50011 -2.49416,-1.44 m 7.48246,4.32 -1.85123,-2.20621 -0.98502,-2.70631 m 0.98502,2.70631 -1.85123,-2.20621 -2.49415,-1.44 m 2.49415,1.44 -1.85122,-2.20621 m 5.55368,6.61863 -2.49415,-1.44 -1.85123,-2.20621 m 1.85123,2.20621 -2.49415,-1.44 -2.83625,-0.50011 m 2.83625,0.50011 -2.49416,-1.44 m 2.49416,1.44 -1.85123,-2.20621 -0.98502,-2.70631 m 0.98502,2.70631 -1.85124,-2.20621 -2.49415,-1.44 m 2.49415,1.44 -1.85123,-2.20621 m 5.5537,6.61863 -2.49416,-1.44 -1.85123,-2.20621 m 1.85123,2.20621 -2.49416,-1.44 -2.83624,-0.50011 m 2.83624,0.50011 -2.49415,-1.44 m 2.49415,1.44 -2.83624,-0.50011 -2.49415,-1.44 m 2.49415,1.44 -2.83625,-0.5001 -2.83624,0.5001 m 2.83624,-0.5001 -2.83624,-0.50011 m 8.50873,1.50032 -2.49415,-1.44 -1.85123,-2.20621 m 1.85123,2.20621 -2.49415,-1.44 -2.83624,-0.50011 m 2.83624,0.50011 -2.49415,-1.44 m 17.45907,10.08 -1.85123,-2.20621 -0.98502,-2.70631 m 0.98502,2.70631 -1.85123,-2.20621 -2.49415,-1.44 m 2.49415,1.44 -1.85122,-2.20621 m 1.85122,2.20621 -0.98502,-2.70631 0,-2.88 m 0,2.88 -0.98501,-2.70632 -1.85123,-2.2062 m 1.85123,2.2062 -0.98502,-2.70632 m 2.95505,8.11895 -1.85122,-2.20621 -0.98503,-2.70631 m 0.98503,2.70631 -1.85123,-2.20621 -2.49415,-1.43999 m 2.49415,1.43999 -1.85123,-2.2062 m 1.85123,2.2062 -2.49415,-1.43999 -1.85123,-2.20621 m 1.85123,2.20621 -2.49416,-1.44 -2.83625,-0.50011 m 2.83625,0.50011 -2.49416,-1.44 m 7.48247,4.31999 -1.85123,-2.2062 -0.98502,-2.70632 m 0.98502,2.70632 -1.85123,-2.20621 -2.49416,-1.44 m 2.49416,1.44 -1.85123,-2.20621 m 27.76842,33.09313 -0.98502,-2.70632 0,-2.88 m 0,2.88 -0.98501,-2.70632 -1.85123,-2.20621 m 1.85123,2.20621 -0.98502,-2.70631 m 0.98502,2.70631 0,-2.88 0.98501,-2.70631 m -0.98501,2.70631 0,-2.88 -0.98502,-2.70631 m 0.98502,2.70631 0,-2.88 m 0,8.64 -0.98502,-2.70631 0,-2.88 m 0,2.88 -0.98502,-2.70632 -1.85123,-2.2062 m 1.85123,2.2062 -0.98501,-2.70631 m 0.98501,2.70631 -1.85123,-2.2062 -0.98501,-2.70632 m 0.98501,2.70632 -1.85123,-2.20622 -2.49415,-1.44 m 2.49415,1.44 -1.85122,-2.2062 m 5.55368,6.61862 -0.98501,-2.70631 0,-2.88 m 0,2.88 -0.98503,-2.70631 -1.85122,-2.20621 m 1.85122,2.20621 -0.98501,-2.70632 m 2.95505,8.11894 0,-2.88 0.98502,-2.70631 m -0.98502,2.70631 0,-2.88 -0.98501,-2.70631 m 0.98501,2.70631 0,-2.88 m 0,2.88 0.98502,-2.70631 1.85123,-2.20621 m -1.85123,2.20621 0.98502,-2.70632 0,-2.88 m 0,2.88 0.98501,-2.70631 m -2.95505,8.11894 0,-2.88 0.98502,-2.70631 m -0.98502,2.70631 0,-2.88 -0.98501,-2.70631 m 0.98501,2.70631 0,-2.88 m 0,2.88 -0.98501,-2.70631 0,-2.88 m 0,2.88 -0.98503,-2.70632 -1.85122,-2.2062 m 1.85122,2.2062 -0.98501,-2.70631 m 2.95505,8.11894 0,-2.88 0.98502,-2.70631 m -0.98502,2.70631 0,-2.88 -0.98501,-2.70631 m 0.98501,2.70631 0,-2.88 m 0,20.16 -0.98501,-2.70631 0,-2.88 m 0,2.88 -0.98503,-2.70631 -1.85122,-2.20621 m 1.85122,2.20621 -0.98501,-2.70632 m 0.98501,2.70632 0,-2.88 0.98503,-2.70632 m -0.98503,2.70632 0,-2.88001 -0.98501,-2.70631 m 0.98501,2.70631 0,-2.88 m 0,8.64001 -0.98501,-2.70632 0,-2.88 m 0,2.88 -0.98501,-2.70632 -1.85123,-2.20621 m 1.85123,2.20621 -0.98503,-2.70632 m 0.98503,2.70632 -1.85123,-2.20621 -0.98503,-2.7063 m 0.98503,2.7063 -1.85123,-2.2062 -2.49415,-1.44 m 2.49415,1.44 -1.85123,-2.20621 m 5.55369,6.61862 -0.98503,-2.70632 0,-2.88 m 0,2.88 -0.98501,-2.70631 -1.85123,-2.2062 m 1.85123,2.2062 -0.98502,-2.70631 m 2.95506,8.11894 -1.85123,-2.20621 -0.98503,-2.7063 m 0.98503,2.7063 -1.85123,-2.2062 -2.49415,-1.44 m 2.49415,1.44 -1.85123,-2.20621 m 1.85123,2.20621 -0.98502,-2.70632 0,-2.88 m 0,2.88 -0.98502,-2.70631 -1.85123,-2.20621 m 1.85123,2.20621 -0.98502,-2.70632 m 2.95506,8.11895 -1.85123,-2.20621 -0.98502,-2.70632 m 0.98502,2.70632 -1.85123,-2.20621 -2.49416,-1.44 m 2.49416,1.44 -1.85122,-2.2062 m 1.85122,2.2062 -2.49416,-1.44 -1.85123,-2.2062 m 1.85123,2.2062 -2.49415,-1.44 -2.83625,-0.50011 m 2.83625,0.50011 -2.49415,-1.44 m 7.48246,4.32 -1.85122,-2.2062 -0.98503,-2.70632 m 0.98503,2.70632 -1.85123,-2.20621 -2.49416,-1.44 m 2.49416,1.44 -1.85124,-2.20621 m 12.95861,15.44345 -0.98503,-2.70632 0,-2.88 m 0,2.88 -0.98501,-2.70631 -1.85123,-2.2062 m 1.85123,2.2062 -0.98502,-2.70631 m 0.98502,2.70631 0,-2.88 0.98501,-2.70631 m -0.98501,2.70631 0,-2.88 -0.98502,-2.70631 m 0.98502,2.70631 0,-2.88 m 0,8.64 -0.98502,-2.70631 0,-2.88 m 0,2.88 -0.98502,-2.70631 -1.85123,-2.20622 m 1.85123,2.20622 -0.98501,-2.70632 m 0.98501,2.70632 -1.85123,-2.20622 -0.98502,-2.70631 m 0.98502,2.70631 -1.85123,-2.2062 -2.49416,-1.44 m 2.49416,1.44 -1.85123,-2.20621 m 5.55369,6.61863 -0.98501,-2.70632 0,-2.88 m 0,2.88 -0.98503,-2.70632 -1.85123,-2.20621 m 1.85123,2.20621 -0.98502,-2.70631 m 30.53556,83.89576 0,-2.88 0.98502,-2.70632 m -0.98502,2.70632 0,-2.88 -0.98501,-2.70632 m 0.98501,2.70632 0,-2.88 m 0,2.88 0.98502,-2.70632 1.85122,-2.2062 m -1.85122,2.2062 0.98502,-2.70631 0,-2.88 m 0,2.88 0.98501,-2.70632 m -2.95505,8.11895 0,-2.88 0.98502,-2.70632 m -0.98502,2.70632 0,-2.88 -0.98501,-2.70632 m 0.98501,2.70632 0,-2.88 m 0,2.88 -0.98501,-2.70632 0,-2.88 m 0,2.88 -0.98503,-2.70631 -1.85122,-2.20621 m 1.85122,2.20621 -0.98501,-2.70632 m 2.95505,8.11895 0,-2.88 0.98502,-2.70632 m -0.98502,2.70632 0,-2.88 -0.98501,-2.70632 m 0.98501,2.70632 0,-2.88 m 0,8.64 0.98502,-2.70632 1.85122,-2.2062 m -1.85122,2.2062 0.98502,-2.70631 0,-2.88 m 0,2.88 0.98501,-2.70632 m -0.98501,2.70632 1.85123,-2.20621 2.49415,-1.44 m -2.49415,1.44 1.85122,-2.20621 0.98502,-2.70632 m -0.98502,2.70632 1.85123,-2.2062 m -5.55368,6.61862 0.98501,-2.70632 1.85123,-2.2062 m -1.85123,2.2062 0.98503,-2.70631 0,-2.88 m 0,2.88 0.98501,-2.70632 m -0.98501,2.70632 0,-2.88 0.98501,-2.70632 m -0.98501,2.70632 0,-2.88 -0.98503,-2.70632 m 0.98503,2.70632 0,-2.88 m 0,8.64 0.98501,-2.70632 1.85124,-2.2062 m -1.85124,2.2062 0.98502,-2.70631 0,-2.88 m 0,2.88 0.98503,-2.70632 m -6.89514,18.94421 0,-2.88 0.98502,-2.70632 m -0.98502,2.70632 0,-2.88 -0.98501,-2.70632 m 0.98501,2.70632 0,-2.88 m 0,2.88 0.98502,-2.70632 1.85122,-2.2062 m -1.85122,2.2062 0.98502,-2.70631 0,-2.88 m 0,2.88 0.98502,-2.70632 m -2.95505,8.11895 0,-2.88 0.98501,-2.70632 m -0.98501,2.70632 0,-2.88 -0.98502,-2.70632 m 0.98502,2.70632 0,-2.88 m 0,2.88 -0.98502,-2.70632 0,-2.88 m 0,2.88 -0.98503,-2.70631 -1.85122,-2.20621 m 1.85122,2.20621 -0.98501,-2.70632 m 2.95505,8.11895 0,-2.88 0.98502,-2.70632 m -0.98502,2.70632 0,-2.88 -0.98501,-2.70632 m 0.98501,2.70632 0,-2.88 m 0,8.64 -0.98501,-2.70632 0,-2.88 m 0,2.88 -0.98503,-2.70631 -1.85122,-2.20621 m 1.85122,2.20621 -0.98501,-2.70632 m 0.98501,2.70632 0,-2.88 0.98503,-2.70632 m -0.98503,2.70632 0,-2.88 -0.98501,-2.70632 m 0.98501,2.70632 0,-2.88 m 0,8.64 -0.98501,-2.70632 0,-2.88 m 0,2.88 -0.98502,-2.70631 -1.85123,-2.20621 m 1.85123,2.20621 -0.98502,-2.70632 m 0.98502,2.70632 -1.85123,-2.20621 -0.98501,-2.70631 m 0.98501,2.70631 -1.85123,-2.2062 -2.49415,-1.44 m 2.49415,1.44 -1.85123,-2.20622 m 5.55369,6.61863 -0.98502,-2.70632 0,-2.88 m 0,2.88 -0.98501,-2.70631 -1.85123,-2.20621 m 1.85123,2.20621 -0.98502,-2.70632 m 6.89512,18.94421 0,-2.88 0.98502,-2.70632 m -0.98502,2.70632 0,-2.88 -0.98501,-2.70632 m 0.98501,2.70632 0,-2.88 m 0,2.88 0.98502,-2.70632 1.85122,-2.2062 m -1.85122,2.2062 0.98502,-2.70631 0,-2.88 m 0,2.88 0.98501,-2.70632 m -2.95505,8.11895 0,-2.88 0.98502,-2.70632 m -0.98502,2.70632 0,-2.88 -0.98501,-2.70632 m 0.98501,2.70632 0,-2.88 m 0,2.88 -0.98501,-2.70632 0,-2.88 m 0,2.88 -0.98503,-2.70631 -1.85122,-2.20621 m 1.85122,2.20621 -0.98501,-2.70632 m 2.95505,8.11895 0,-2.88 0.98502,-2.70632 m -0.98502,2.70632 0,-2.88 -0.98501,-2.70632 m 0.98501,2.70632 0,-2.88 m 0,20.16 0.98502,-2.70632 1.85122,-2.2062 m -1.85122,2.2062 0.98502,-2.70631 0,-2.88 m 0,2.88 0.98501,-2.70632 m -0.98501,2.70632 1.85123,-2.20621 2.49415,-1.44 m -2.49415,1.44 1.85122,-2.20621 0.98502,-2.70632 m -0.98502,2.70632 1.85123,-2.2062 m -5.55368,6.61862 0.98501,-2.70632 1.85123,-2.2062 m -1.85123,2.2062 0.98503,-2.70631 0,-2.88 m 0,2.88 0.98501,-2.70632 m -0.98501,2.70632 0,-2.88 0.98501,-2.70632 m -0.98501,2.70632 0,-2.88 -0.98503,-2.70632 m 0.98503,2.70632 0,-2.88 m 0,8.64 0.98501,-2.70632 1.85124,-2.2062 m -1.85124,2.2062 0.98502,-2.70631 0,-2.88 m 0,2.88 0.98503,-2.70632 m -2.95506,8.11895 1.85122,-2.20621 2.49416,-1.44 m -2.49416,1.44 1.85123,-2.2062 0.98502,-2.70632 m -0.98502,2.70632 1.85123,-2.20622 m -1.85123,2.20622 2.49415,-1.44 2.83625,-0.50011 m -2.83625,0.50011 2.49416,-1.44 1.85122,-2.20622 m -1.85122,2.20622 2.49415,-1.44 m -7.48246,4.32 1.85123,-2.20622 2.49415,-1.44 m -2.49415,1.44 1.85123,-2.20621 0.98502,-2.70631 m -0.98502,2.70631 1.85123,-2.2062 m -1.85123,2.2062 0.98502,-2.70631 1.85123,-2.2062 m -1.85123,2.2062 0.98501,-2.70631 0,-2.88 m 0,2.88 0.98503,-2.70632 m -2.95506,8.11894 1.85123,-2.2062 2.49415,-1.44 m -2.49415,1.44 1.85122,-2.20621 0.98503,-2.70632 m -0.98503,2.70632 1.85123,-2.2062 m -12.95859,15.44345 0.98501,-2.70632 1.85124,-2.2062 m -1.85124,2.2062 0.98502,-2.70631 0,-2.88 m 0,2.88 0.98503,-2.70632 m -0.98503,2.70632 1.85123,-2.20621 2.49415,-1.44 m -2.49415,1.44 1.85123,-2.2062 0.98502,-2.70632 m -0.98502,2.70632 1.85123,-2.20622 m -5.55369,6.61863 0.98503,-2.70632 1.85122,-2.2062 m -1.85122,2.2062 0.98501,-2.70632 0,-2.88 m 0,2.88 0.98501,-2.7063 m -0.98501,2.7063 0,-2.88 0.98501,-2.7063 m -0.98501,2.7063 0,-2.88 -0.98501,-2.7063 m 0.98501,2.7063 0,-2.88 m 0,8.64 0.98501,-2.7063 1.85123,-2.20622 m -1.85123,2.20622 0.98503,-2.70632 0,-2.88 m 0,2.88 0.98501,-2.70631 m -2.95505,8.11893 0,-2.88 0.98501,-2.7063 m -0.98501,2.7063 0,-2.88 -0.98501,-2.7063 m 0.98501,2.7063 0,-2.88 m 0,2.88 0.98501,-2.7063 1.85123,-2.20622 m -1.85123,2.20622 0.98503,-2.70632 0,-2.88 m 0,2.88 0.98501,-2.70631 m -2.95505,8.11893 0,-2.88 0.98501,-2.7063 m -0.98501,2.7063 0,-2.88 -0.98501,-2.7063 m 0.98501,2.7063 0,-2.88 m 0,2.88 -0.98501,-2.7063 0,-2.88 m 0,2.88 -0.98503,-2.70632 -1.85123,-2.20621 m 1.85123,2.20621 -0.98502,-2.70631 m 2.95506,8.11893 0,-2.88 0.98501,-2.7063 m -0.98501,2.7063 0,-2.88 -0.98501,-2.7063 m 0.98501,2.7063 0,-2.88 m 0,20.16 0.98501,-2.7063 1.85123,-2.20622 m -1.85123,2.20622 0.98503,-2.70632 0,-2.88 m 0,2.88 0.98501,-2.70631 m -0.98501,2.70631 1.85122,-2.20621 2.49416,-1.44 m -2.49416,1.44 1.85123,-2.2062 0.98502,-2.70631 m -0.98502,2.70631 1.85123,-2.20621 m -5.55368,6.61862 0.98501,-2.70631 1.85123,-2.20622 m -1.85123,2.20622 0.98502,-2.70632 0,-2.88 m 0,2.88 0.98502,-2.70632 m -0.98502,2.70632 0,-2.88 0.98502,-2.70632 m -0.98502,2.70632 0,-2.88 -0.98502,-2.70632 m 0.98502,2.70632 0,-2.88 m 0,8.64 0.98502,-2.70632 1.85123,-2.2062 m -1.85123,2.2062 0.98501,-2.70631 0,-2.88 m 0,2.88 0.98502,-2.70631 m -14.77526,40.59472 0,-2.88 0.98501,-2.70632 m -0.98501,2.70632 0,-2.88 -0.98502,-2.70632 m 0.98502,2.70632 0,-2.88 m 0,2.88 0.98501,-2.70632 1.85123,-2.2062 m -1.85123,2.2062 0.98503,-2.70631 0,-2.88 m 0,2.88 0.98501,-2.70632 m -2.95505,8.11895 0,-2.88 0.98501,-2.70632 m -0.98501,2.70632 0,-2.88 -0.98502,-2.70632 m 0.98502,2.70632 0,-2.88 m 0,2.88 -0.98502,-2.70632 0,-2.88 m 0,2.88 -0.98502,-2.70631 -1.85122,-2.20621 m 1.85122,2.20621 -0.98502,-2.70632 m 2.95506,8.11895 0,-2.88 0.98501,-2.70632 m -0.98501,2.70632 0,-2.88 -0.98502,-2.70632 m 0.98502,2.70632 0,-2.88 m 0,8.64 0.98501,-2.70632 1.85123,-2.2062 m -1.85123,2.2062 0.98503,-2.70631 0,-2.88 m 0,2.88 0.98501,-2.70632 m -0.98501,2.70632 1.85123,-2.20621 2.49415,-1.44 m -2.49415,1.44 1.85122,-2.20621 0.98502,-2.70632 m -0.98502,2.70632 1.85123,-2.2062 m -5.55369,6.61862 0.98502,-2.70632 1.85122,-2.2062 m -1.85122,2.2062 0.98502,-2.70631 0,-2.88 m 0,2.88 0.98502,-2.70632 m -0.98502,2.70632 0,-2.88 0.98502,-2.70632 m -0.98502,2.70632 0,-2.88 -0.98502,-2.70632 m 0.98502,2.70632 0,-2.88 m 0,8.64 0.98502,-2.70632 1.85123,-2.2062 m -1.85123,2.2062 0.98501,-2.70631 0,-2.88 m 0,2.88 0.98503,-2.70632 m -6.89513,18.94421 0,-2.88 0.98501,-2.70632 m -0.98501,2.70632 0,-2.88 -0.98502,-2.70632 m 0.98502,2.70632 0,-2.88 m 0,2.88 0.98501,-2.70632 1.85123,-2.2062 m -1.85123,2.2062 0.98503,-2.70631 0,-2.88 m 0,2.88 0.98501,-2.70632 m -2.95505,8.11895 0,-2.88 0.98501,-2.70632 m -0.98501,2.70632 0,-2.88 -0.98502,-2.70632 m 0.98502,2.70632 0,-2.88 m 0,2.88 -0.98502,-2.70632 0,-2.88 m 0,2.88 -0.98502,-2.70631 -1.85122,-2.20621 m 1.85122,2.20621 -0.98501,-2.70632 m 2.95505,8.11895 0,-2.88 0.98501,-2.70632 m -0.98501,2.70632 0,-2.88 -0.98502,-2.70632 m 0.98502,2.70632 0,-2.88 m 0,8.64 -0.98502,-2.70632 0,-2.88 m 0,2.88 -0.98502,-2.70631 -1.85122,-2.20621 m 1.85122,2.20621 -0.98502,-2.70632 m 0.98502,2.70632 0,-2.88 0.98502,-2.70632 m -0.98502,2.70632 0,-2.88 -0.98502,-2.70632 m 0.98502,2.70632 0,-2.88 m 0,8.64 -0.98502,-2.70632 0,-2.88 m 0,2.88 -0.98502,-2.70631 -1.85123,-2.20621 m 1.85123,2.20621 -0.98502,-2.70632 m 0.98502,2.70632 -1.85123,-2.20621 -0.98501,-2.70631 m 0.98501,2.70631 -1.85123,-2.2062 -2.49415,-1.44 m 2.49415,1.44 -1.85123,-2.20622 m 5.55369,6.61863 -0.98502,-2.70632 0,-2.88 m 0,2.88 -0.98501,-2.70631 -1.85123,-2.20621 m 1.85123,2.20621 -0.98502,-2.70632 m 6.89513,18.94421 0,-2.88 0.98501,-2.70632 m -0.98501,2.70632 0,-2.88 -0.98502,-2.70632 m 0.98502,2.70632 0,-2.88 m 0,2.88 0.98501,-2.70632 1.85123,-2.2062 m -1.85123,2.2062 0.98503,-2.70631 0,-2.88 m 0,2.88 0.98501,-2.70632 m -2.95505,8.11895 0,-2.88 0.98501,-2.70632 m -0.98501,2.70632 0,-2.88 -0.98502,-2.70632 m 0.98502,2.70632 0,-2.88 m 0,2.88 -0.98502,-2.70632 0,-2.88 m 0,2.88 -0.98502,-2.70631 -1.85122,-2.20621 m 1.85122,2.20621 -0.98502,-2.70632 m 2.95506,8.11895 0,-2.88 0.98501,-2.70632 m -0.98501,2.70632 0,-2.88 -0.98502,-2.70632 m 0.98502,2.70632 0,-2.88 m 0,20.16 -0.98502,-2.70632 0,-2.88 m 0,2.88 -0.98503,-2.70631 -1.85122,-2.20621 m 1.85122,2.20621 -0.98501,-2.70632 m 0.98501,2.70632 0,-2.88 0.98503,-2.70632 m -0.98503,2.70632 0,-2.88 -0.98501,-2.70632 m 0.98501,2.70632 0,-2.88 m 0,8.64 -0.98501,-2.70632 0,-2.88 m 0,2.88 -0.98502,-2.70631 -1.85123,-2.20621 m 1.85123,2.20621 -0.98502,-2.70632 m 0.98502,2.70632 -1.85123,-2.20621 -0.98501,-2.70631 m 0.98501,2.70631 -1.85123,-2.2062 -2.49415,-1.44 m 2.49415,1.44 -1.85123,-2.20622 m 5.55369,6.61863 -0.98502,-2.70632 0,-2.88 m 0,2.88 -0.98501,-2.70631 -1.85123,-2.20621 m 1.85123,2.20621 -0.98502,-2.70632 m 2.95505,8.11895 0,-2.88 0.98502,-2.70632 m -0.98502,2.70632 0,-2.88 -0.98502,-2.70632 m 0.98502,2.70632 0,-2.88 m 0,2.88 0.98502,-2.70632 1.85123,-2.2062 m -1.85123,2.2062 0.98501,-2.70631 0,-2.88 m 0,2.88 0.98503,-2.70632 m -2.95506,8.11895 0,-2.88 0.98502,-2.70632 m -0.98502,2.70632 0,-2.88 -0.98502,-2.70632 m 0.98502,2.70632 0,-2.88 m 0,2.88 -0.98502,-2.70632 0,-2.88 m 0,2.88 -0.98501,-2.70631 -1.85123,-2.20621 m 1.85123,2.20621 -0.98502,-2.70632 m 2.95505,8.11895 0,-2.88 0.98502,-2.70632 m -0.98502,2.70632 0,-2.88 -0.98502,-2.70632 m 0.98502,2.70632 0,-2.88 m 0,20.16 -0.98502,-2.70632 0,-2.88 m 0,2.88 -0.98501,-2.70631 -1.85123,-2.20621 m 1.85123,2.20621 -0.98502,-2.70632 m 0.98502,2.70632 0,-2.88 0.98501,-2.70632 m -0.98501,2.70632 0,-2.88 -0.98502,-2.70632 m 0.98502,2.70632 0,-2.88 m 0,8.64 -0.98502,-2.70632 0,-2.88 m 0,2.88 -0.98502,-2.70632 -1.85123,-2.2062 m 1.85123,2.2062 -0.98502,-2.7063 m 0.98502,2.7063 -1.85123,-2.2062 -0.98502,-2.70632 m 0.98502,2.70632 -1.85122,-2.20621 -2.49416,-1.44 m 2.49416,1.44 -1.85123,-2.2062 m 5.55368,6.61861 -0.98502,-2.7063 0,-2.88 m 0,2.88 -0.98501,-2.70632 -1.85123,-2.20621 m 1.85123,2.20621 -0.98502,-2.70631 m 2.95505,8.11893 -1.85123,-2.2062 -0.98502,-2.70632 m 0.98502,2.70632 -1.85122,-2.20621 -2.49416,-1.44 m 2.49416,1.44 -1.85123,-2.2062 m 1.85123,2.2062 -0.98503,-2.70631 0,-2.88 m 0,2.88 -0.98501,-2.70631 -1.85124,-2.20621 m 1.85124,2.20621 -0.98502,-2.70631 m 2.95506,8.11893 -1.85123,-2.2062 -0.98502,-2.70632 m 0.98502,2.70632 -1.85123,-2.20621 -2.49416,-1.44 m 2.49416,1.44 -1.85123,-2.20621 m 1.85123,2.20621 -2.49416,-1.44 -1.85123,-2.20621 m 1.85123,2.20621 -2.49415,-1.44 -2.83624,-0.50011 m 2.83624,0.50011 -2.49415,-1.44 m 7.48246,4.32 -1.85123,-2.20621 -0.98502,-2.70631 m 0.98502,2.70631 -1.85123,-2.2062 -2.49416,-1.44 m 2.49416,1.44 -1.85123,-2.20622 m 12.9586,15.44345 -0.98502,-2.7063 0,-2.88 m 0,2.88 -0.98501,-2.70632 -1.85123,-2.20621 m 1.85123,2.20621 -0.98502,-2.70631 m 0.98502,2.70631 0,-2.88 0.98501,-2.70631 m -0.98501,2.70631 0,-2.88 -0.98502,-2.70631 m 0.98502,2.70631 0,-2.88 m 0,8.64 -0.98502,-2.70631 0,-2.88 m 0,2.88 -0.98503,-2.70632 -1.85123,-2.20621 m 1.85123,2.20621 -0.98501,-2.70632 m 0.98501,2.70632 -1.85123,-2.20621 -0.98501,-2.70631 m 0.98501,2.70631 -1.85123,-2.20621 -2.49415,-1.44 m 2.49415,1.44 -1.85122,-2.2062 m 5.55368,6.61862 -0.98501,-2.70632 0,-2.88 m 0,2.88 -0.98502,-2.70631 -1.85123,-2.20621 m 1.85123,2.20621 -0.98502,-2.70631 m 14.77527,40.59472 0,-2.88 0.98502,-2.70632 m -0.98502,2.70632 0,-2.88 -0.98501,-2.70632 m 0.98501,2.70632 0,-2.88 m 0,2.88 0.98502,-2.70632 1.85122,-2.2062 m -1.85122,2.2062 0.98502,-2.70631 0,-2.88 m 0,2.88 0.98501,-2.70632 m -2.95505,8.11895 0,-2.88 0.98502,-2.70632 m -0.98502,2.70632 0,-2.88 -0.98501,-2.70632 m 0.98501,2.70632 0,-2.88 m 0,2.88 -0.98501,-2.70632 0,-2.88 m 0,2.88 -0.98503,-2.70631 -1.85122,-2.20621 m 1.85122,2.20621 -0.98501,-2.70632 m 2.95505,8.11895 0,-2.88 0.98502,-2.70632 m -0.98502,2.70632 0,-2.88 -0.98501,-2.70632 m 0.98501,2.70632 0,-2.88 m 0,8.64 0.98502,-2.70632 1.85122,-2.2062 m -1.85122,2.2062 0.98502,-2.70631 0,-2.88001 m 0,2.88001 0.98501,-2.70632 m -0.98501,2.70632 1.85123,-2.20621 2.49415,-1.44 m -2.49415,1.44 1.85122,-2.20621 0.98502,-2.70632 m -0.98502,2.70632 1.85123,-2.2062 m -5.55368,6.61862 0.98501,-2.70632 1.85123,-2.2062 m -1.85123,2.2062 0.98503,-2.70631 0,-2.88 m 0,2.88 0.98501,-2.70632 m -0.98501,2.70632 0,-2.88 0.98501,-2.70632 m -0.98501,2.70632 0,-2.88 -0.98503,-2.70632 m 0.98503,2.70632 0,-2.88 m 0,8.64 0.98501,-2.70632 1.85124,-2.2062 m -1.85124,2.2062 0.98502,-2.70631 0,-2.88 m 0,2.88 0.98503,-2.70632 m -6.89514,18.94421 0,-2.88 0.98502,-2.70632 m -0.98502,2.70632 0,-2.88 -0.98501,-2.70632 m 0.98501,2.70632 0,-2.88 m 0,2.88 0.98502,-2.70632 1.85122,-2.2062 m -1.85122,2.2062 0.98502,-2.70632 0,-2.87999 m 0,2.87999 0.98501,-2.70631 m -2.95505,8.11895 0,-2.88 0.98502,-2.70632 m -0.98502,2.70632 0,-2.88 -0.98501,-2.70632 m 0.98501,2.70632 0,-2.88 m 0,2.88 -0.98501,-2.70632 0,-2.88 m 0,2.88 -0.98503,-2.70631 -1.85122,-2.20621 m 1.85122,2.20621 -0.98501,-2.70632 m 2.95505,8.11895 0,-2.88 0.98502,-2.70632 m -0.98502,2.70632 0,-2.88 -0.98501,-2.70632 m 0.98501,2.70632 0,-2.88 m 0,8.64 -0.98501,-2.70632 0,-2.88 m 0,2.88 -0.98503,-2.70631 -1.85122,-2.20621 m 1.85122,2.20621 -0.98501,-2.70632 m 0.98501,2.70632 0,-2.88 0.98503,-2.70632 m -0.98503,2.70632 0,-2.88 -0.98501,-2.70632 m 0.98501,2.70632 0,-2.88 m 0,8.64 -0.98501,-2.70632 0,-2.88 m 0,2.88 -0.98502,-2.70631 -1.85123,-2.20621 m 1.85123,2.20621 -0.98502,-2.70632 m 0.98502,2.70632 -1.85123,-2.20621 -0.98501,-2.70631 m 0.98501,2.70631 -1.85123,-2.2062 -2.49415,-1.44 m 2.49415,1.44 -1.85123,-2.20622 m 5.55369,6.61863 -0.98502,-2.70632 0,-2.88 m 0,2.88 -0.98501,-2.70631 -1.85123,-2.20621 m 1.85123,2.20621 -0.98502,-2.70632 m 6.89512,18.94421 0,-2.88 0.98502,-2.70632 m -0.98502,2.70632 0,-2.88 -0.98501,-2.70632 m 0.98501,2.70632 0,-2.88 m 0,2.88 0.98502,-2.70632 1.85122,-2.2062 m -1.85122,2.2062 0.98502,-2.70631 0,-2.88 m 0,2.88 0.98501,-2.70632 m -2.95505,8.11895 0,-2.88 0.98502,-2.70632 m -0.98502,2.70632 0,-2.88 -0.98501,-2.70632 m 0.98501,2.70632 0,-2.88 m 0,2.88 -0.98501,-2.70632 0,-2.88 m 0,2.88 -0.98503,-2.70631 -1.85122,-2.20621 m 1.85122,2.20621 -0.98501,-2.70632 m 2.95505,8.11895 0,-2.88 0.98502,-2.70632 m -0.98502,2.70632 0,-2.88 -0.98501,-2.70632 m 0.98501,2.70632 0,-2.88"
       style="fill:none;stroke:#000000;stroke-width:0.36000001px;stroke-linecap:butt;stroke-linejoin:miter;stroke-opacity:1"
       inkscape:connector-curvature="0" />
    <g
       transform="matrix(0.9,0,0,0.9,252.89173,72.387537)"
       id="layer1-8"
       inkscape:label="Vrstva 1">
      <path
         inkscape:connector-curvature="0"
         style="fill:none;stroke:#000000;stroke-width:0.40000001px;stroke-linecap:butt;stroke-linejoin:miter;stroke-opacity:1"
         d="m 313.16171,371.79622 0,-3.2 0,-3.2 0,-3.2 0,-3.2 0,-3.2 0,-3.2 0,-3.2 0,-3.2 0,-3.2 0,-3.2 0,-3.2 0,-3.2 0,-3.2 0,-3.2 0,-3.2 0,-3.2 1.38771,-2.88345 1.38771,-2.88345 1.38771,-2.88344 1.3877,-2.88345 1.38772,-2.88345 1.38771,-2.88344 1.3877,-2.88345 1.38771,-2.88345 2.50087,-1.99641 2.50086,-1.99642 2.50087,-1.99641 2.50087,-1.99641 3.11923,-0.7144 3.11924,-0.7144 3.12047,0.70895 m 0,0 3.12048,0.70896 m -6.24095,-1.41791 2.50086,-1.99642 m 0,0 2.50087,-1.99641 m -5.00173,3.99283 3.11923,-0.7144 3.11924,-0.7144 3.11923,-0.7144 m 0,0 3.11924,-0.7144 m -18.71541,4.2864 1.3877,-2.88345 1.38772,-2.88345 2.50086,-1.99641 m 0,0 2.50086,-1.99642 m -5.00172,3.99283 0,-3.2 m 0,0 0,-3.2 m 0,6.4 1.38771,-2.88345 1.3877,-2.88344 1.38771,-2.88344 m 0,0 1.38771,-2.88345 m -8.32625,17.30068 2.50086,-1.99642 2.50087,-1.99641 2.50086,-1.99642 2.50086,-1.99642 2.50088,-1.9964 2.50086,-1.99642 3.11923,-0.7144 m 0,0 3.11924,-0.7144 m -6.23847,1.4288 1.38771,-2.88345 m 0,0 1.38771,-2.88345 m -2.77542,5.7669 2.50086,-1.99642 2.50087,-1.99641 2.50086,-1.99642 m 0,0 2.50087,-1.99641 m -35.01212,27.9498 0,-3.2 0,-3.2 0,-3.2 0,-3.2 1.38771,-2.88344 1.38771,-2.88345 2.50086,-1.99641 m 0,0 2.50087,-1.99642 m -5.00173,3.99283 0,-3.2 m 0,0 0,-3.2 m 0,6.4 1.38771,-2.88344 1.38771,-2.88345 1.38771,-2.88345 m 0,0 1.38771,-2.88345 m -8.32626,17.30068 -1.38771,-2.88344 -1.3877,-2.88345 0,-3.2 m 0,0 0,-3.2 m 0,6.4 -2.50087,-1.99641 m 0,0 -2.50087,-1.99642 m 5.00174,3.99283 -1.38771,-2.88344 -1.38772,-2.88345 -1.3877,-2.88345 m 0,0 -1.38771,-2.88345 m 8.32625,17.30068 0,-3.2 0,-3.2 0,-3.2 0,-3.2 0,-3.2 0,-3.2 1.38771,-2.88344 m 0,0 1.38771,-2.88345 m -2.77542,5.76689 -1.38771,-2.88344 m 0,0 -1.3877,-2.88345 m 2.77541,5.76689 0,-3.2 0,-3.2 0,-3.2 m 0,0 0,-3.2 m 0,44.8 1.38771,-2.88344 1.38771,-2.88345 1.38771,-2.88344 1.38771,-2.88345 1.38771,-2.88345 1.38771,-2.88345 1.3877,-2.88344 1.38772,-2.88344 1.38771,-2.88345 1.3877,-2.88345 1.38771,-2.88345 1.38771,-2.88345 2.50087,-1.99641 2.50086,-1.99641 3.11924,-0.71441 m 0,0 3.11924,-0.7144 m -6.23848,1.42881 1.38772,-2.88345 m 0,0 1.3877,-2.88345 m -2.77542,5.7669 2.50087,-1.99642 2.50086,-1.99641 2.50087,-1.99642 m 0,0 2.50087,-1.99641 m -15.0052,11.97848 0,-3.2 0,-3.2 1.38771,-2.88344 m 0,0 1.38771,-2.88344 m -2.77542,5.76688 -1.38771,-2.88344 m 0,0 -1.38771,-2.88344 m 2.77542,5.76688 0,-3.2 0,-3.2 0,-3.2 m 0,0 0,-3.2 m 0,19.2 1.38771,-2.88344 1.38771,-2.88344 1.38771,-2.88345 1.38771,-2.88345 1.38771,-2.88345 1.3877,-2.88344 2.50088,-1.99641 m 0,0 2.50086,-1.99642 m -5.00174,3.99283 0,-3.2 m 0,0 0,-3.2 m 0,6.4 1.38772,-2.88345 1.38771,-2.88344 1.3877,-2.88345 m 0,0 1.38772,-2.88345 m -41.63128,86.5034 -1.38771,-2.88345 -1.38771,-2.88345 -1.3877,-2.88344 -1.38772,-2.88345 -1.3877,-2.88345 -1.38771,-2.88344 -1.38771,-2.88345 -1.38771,-2.88345 0,-3.2 0,-3.2 0,-3.2 0,-3.2 1.38771,-2.88344 1.38771,-2.88345 2.50086,-1.99641 m 0,0 2.50087,-1.99642 m -5.00173,3.99283 0,-3.2 m 0,0 0,-3.2 m 0,6.4 1.38771,-2.88344 1.3877,-2.88345 1.38772,-2.88345 m 0,0 1.3877,-2.88345 m -8.32625,17.30068 -1.38771,-2.88344 -1.38771,-2.88345 0,-3.2 m 0,0 0,-3.2 m 0,6.4 -2.50087,-1.99641 m 0,0 -2.50086,-1.99642 m 5.00173,3.99283 -1.38771,-2.88344 -1.38771,-2.88345 -1.38771,-2.88345 m 0,0 -1.38771,-2.88345 m 8.32626,17.30068 0,-3.2 0,-3.2 0,-3.2 0,-3.2 0,-3.2 0,-3.2 1.38771,-2.88344 m 0,0 1.38771,-2.88345 m -2.77542,5.76689 -1.38771,-2.88344 m 0,0 -1.38771,-2.88345 m 2.77542,5.76689 0,-3.2 0,-3.2 0,-3.2 m 0,0 0,-3.2 m 0,44.8 -2.50087,-1.99641 -2.50086,-1.99642 -2.50087,-1.99641 -2.50086,-1.99641 -1.38771,-2.88345 -1.38771,-2.88345 0,-3.2 m 0,0 0,-3.2 m 0,6.4 -2.50087,-1.99641 m 0,0 -2.50086,-1.99642 m 5.00173,3.99283 -1.38771,-2.88345 -1.38771,-2.88344 -1.38771,-2.88344 m 0,0 -1.38771,-2.88345 m 8.32626,17.30068 -3.11924,-0.7144 -3.11923,-0.7144 -2.50087,-1.99642 m 0,0 -2.50087,-1.99641 m 5.00174,3.99283 -3.12048,0.70895 m 0,0 -3.12048,0.70896 m 6.24096,-1.41791 -3.11924,-0.7144 -3.11924,-0.7144 -3.11924,-0.7144 m 0,0 -3.11923,-0.7144 m 18.71542,4.2864 -2.50087,-1.99642 -2.50087,-1.99641 -2.50086,-1.99642 -2.50087,-1.99642 -2.50086,-1.9964 -2.50086,-1.99642 -1.38772,-2.88345 m 0,0 -1.38771,-2.88345 m 2.77543,5.7669 -3.11924,-0.7144 m 0,0 -3.11924,-0.7144 m 6.23848,1.4288 -2.50088,-1.99642 -2.50086,-1.99641 -2.50086,-1.99642 m 0,0 -2.50087,-1.99641 m 35.01212,27.9498 -1.38771,-2.88344 -1.38771,-2.88345 -1.38771,-2.88344 -1.38771,-2.88345 -1.38771,-2.88345 -1.3877,-2.88345 -1.38772,-2.88344 -1.3877,-2.88344 -1.38771,-2.88345 -1.38771,-2.88345 -1.38771,-2.88345 -1.38771,-2.88345 0,-3.2 0,-3.2 1.38771,-2.88344 m 0,0 1.38771,-2.88344 m -2.77542,5.76688 -1.38771,-2.88344 m 0,0 -1.38771,-2.88344 m 2.77542,5.76688 0,-3.2 0,-3.2 0,-3.2 m 0,0 0,-3.2 m 0,19.2 -2.50086,-1.99641 -2.50087,-1.99641 -1.38771,-2.88345 m 0,0 -1.38771,-2.88345 m 2.77542,5.7669 -3.11924,-0.71441 m 0,0 -3.11923,-0.7144 m 6.23847,1.42881 -2.50087,-1.99642 -2.50086,-1.99641 -2.50087,-1.99642 m 0,0 -2.50086,-1.99641 m 15.00519,11.97848 -1.38771,-2.88344 -1.38771,-2.88344 -1.38771,-2.88345 -1.38771,-2.88345 -1.3877,-2.88345 -1.38772,-2.88344 0,-3.2 m 0,0 0,-3.2 m 0,6.4 -2.50086,-1.99641 m 0,0 -2.50086,-1.99642 m 5.00172,3.99283 -1.38771,-2.88345 -1.3877,-2.88344 -1.38771,-2.88345 m 0,0 -1.38771,-2.88345 m 41.63127,86.5034 0,-3.2 0,-3.2 0,-3.2 0,-3.2 0,-3.2 0,-3.2 0,-3.2 0,-3.2 0,-3.2 0,-3.2 0,-3.2 0,-3.2 0,-3.2 0,-3.2 0,-3.2 0,-3.2 0,-3.2 0,-3.2 0,-3.20001 0,-3.2 0,-3.2 0,-3.2 0,-3.2 0,-3.2 1.38771,-2.88344 1.38771,-2.88345 1.38771,-2.88344 1.38771,-2.88345 2.50086,-1.99642 2.50087,-1.99641 3.11923,-0.7144 m 0,0 3.11924,-0.7144 m -6.23847,1.4288 1.3877,-2.88345 m 0,0 1.38772,-2.88344 m -2.77542,5.76689 2.50086,-1.99641 2.50087,-1.99642 2.50086,-1.99641 m 0,0 2.50087,-1.99642 m -15.00519,11.97849 0,-3.2 0,-3.2 1.38771,-2.88345 m 0,0 1.38771,-2.88344 m -2.77542,5.76689 -1.38771,-2.88345 m 0,0 -1.38771,-2.88344 m 2.77542,5.76689 0,-3.2 0,-3.2 0,-3.2 m 0,0 0,-3.20001 m 0,19.20001 1.38771,-2.88345 1.38771,-2.88344 1.3877,-2.88345 1.38772,-2.88345 1.3877,-2.88345 1.38771,-2.88344 2.50087,-1.99642 m 0,0 2.50086,-1.99641 m -5.00173,3.99283 0,-3.2 m 0,0 0,-3.2 m 0,6.4 1.38771,-2.88345 1.38771,-2.88345 1.38771,-2.88344 m 0,0 1.38771,-2.88345 m -19.42793,40.36825 -1.38771,-2.88344 -1.38771,-2.88345 -1.3877,-2.88344 -1.38772,-2.88345 0,-3.2 0,-3.2 1.38772,-2.88345 m 0,0 1.3877,-2.88344 m -2.77542,5.76689 -1.3877,-2.88345 m 0,0 -1.38771,-2.88344 m 2.77541,5.76689 0,-3.2 0,-3.2 0,-3.2 m 0,0 0,-3.20001 m 0,19.20001 -2.50086,-1.99642 -2.50087,-1.99641 -1.38771,-2.88345 m 0,0 -1.38771,-2.88344 m 2.77542,5.76689 -3.11924,-0.7144 m 0,0 -3.11923,-0.7144 m 6.23847,1.4288 -2.50086,-1.99641 -2.50087,-1.99642 -2.50086,-1.99641 m 0,0 -2.50087,-1.99642 m 15.00519,11.97849 -1.3877,-2.88345 -1.38771,-2.88344 -1.38771,-2.88345 -1.38771,-2.88345 -1.38771,-2.88345 -1.38771,-2.88344 0,-3.2 m 0,0 0,-3.2 m 0,6.4 -2.50087,-1.99642 m 0,0 -2.50086,-1.99641 m 5.00173,3.99283 -1.38771,-2.88345 -1.38771,-2.88345 -1.38771,-2.88344 m 0,0 -1.38771,-2.88345 m 19.42793,40.36825 0,-3.2 0,-3.2 0,-3.2 0,-3.2 0,-3.19999 0,-3.2 0,-3.2 0,-3.20001 0,-3.2 0,-3.2 0,-3.2 0,-3.2 1.38771,-2.88345 1.38771,-2.88344 2.50086,-1.99642 m 0,0 2.50087,-1.99641 m -5.00173,3.99283 0,-3.2 m 0,0 0,-3.2 m 0,6.4 1.38771,-2.88345 1.38771,-2.88344 1.38771,-2.88345 m 0,0 1.38771,-2.88345 m -8.32626,17.30068 -1.38771,-2.88345 -1.38771,-2.88344 0,-3.2 m 0,0 0,-3.2 m 0,6.4 -2.50086,-1.99642 m 0,0 -2.50087,-1.99641 m 5.00173,3.99283 -1.3877,-2.88345 -1.38772,-2.88344 -1.3877,-2.88345 m 0,0 -1.38771,-2.88345 m 8.32625,17.30068 0,-3.2 0,-3.2 0,-3.2 0,-3.2 0,-3.2 0,-3.2 1.38771,-2.88345 m 0,0 1.38771,-2.88344 m -2.77542,5.76689 -1.38771,-2.88345 m 0,0 -1.38771,-2.88344 m 2.77542,5.76689 0,-3.2 0,-3.2 0,-3.2 m 0,0 0,-3.2"
         id="path3149" />
    </g>
    <text
       xml:space="preserve"
       style="font-size:9.89999962px;font-style:normal;font-weight:normal;line-height:125%;letter-spacing:0px;word-spacing:0px;fill:#000000;fill-opacity:1;stroke:none;font-family:Sans"
       x="298.06976"
       y="397.46503"
       id="text3035"
       sodipodi:linespacing="125%"><tspan
         sodipodi:role="line"
         id="tspan3037"
         x="298.06976"
         y="397.46503">A</tspan></text>
    <text
       xml:space="preserve"
       style="font-size:9.89999962px;font-style:normal;font-weight:normal;line-height:125%;letter-spacing:0px;word-spacing:0px;fill:#000000;fill-opacity:1;stroke:none;font-family:Sans"
       x="490.00366"
       y="397.46503"
       id="text3039"
       sodipodi:linespacing="125%"><tspan
         sodipodi:role="line"
         id="tspan3041"
         x="490.00366"
         y="397.46503">B</tspan></text>
  </g>
</svg>
