<?xml version="1.0" encoding="UTF-8" standalone="no"?>
<!-- Created with Inkscape (http://www.inkscape.org/) -->

<svg
   xmlns:dc="http://purl.org/dc/elements/1.1/"
   xmlns:cc="http://creativecommons.org/ns#"
   xmlns:rdf="http://www.w3.org/1999/02/22-rdf-syntax-ns#"
   xmlns:svg="http://www.w3.org/2000/svg"
   xmlns="http://www.w3.org/2000/svg"
   xmlns:sodipodi="http://sodipodi.sourceforge.net/DTD/sodipodi-0.dtd"
   xmlns:inkscape="http://www.inkscape.org/namespaces/inkscape"
   width="725.36078"
   height="480.95193"
   id="svg2991"
   version="1.1"
   inkscape:version="0.48.4 r9939"
   sodipodi:docname="koch.svg">
  <sodipodi:namedview
     id="base"
     pagecolor="#ffffff"
     bordercolor="#666666"
     borderopacity="1.0"
     inkscape:pageopacity="0.0"
     inkscape:pageshadow="2"
     inkscape:zoom="1.6536713"
     inkscape:cx="391.34862"
     inkscape:cy="268.64735"
     inkscape:current-layer="svg2991"
     inkscape:document-units="px"
     showgrid="false"
     inkscape:window-width="1920"
     inkscape:window-height="1017"
     inkscape:window-x="-8"
     inkscape:window-y="-8"
     inkscape:window-maximized="1"
     fit-margin-top="0"
     fit-margin-left="0"
     fit-margin-bottom="0"
     fit-margin-right="0"
     showguides="true"
     inkscape:guide-bbox="true" />
  <defs
     id="defs2993" />
  <metadata
     id="metadata2996">
    <rdf:RDF>
      <cc:Work
         rdf:about="">
        <dc:format>image/svg+xml</dc:format>
        <dc:type
           rdf:resource="http://purl.org/dc/dcmitype/StillImage" />
        <dc:title />
      </cc:Work>
    </rdf:RDF>
  </metadata>
  <g
     id="layer1"
     inkscape:label="Layer 1"
     inkscape:groupmode="layer"
     transform="translate(-24.831858,-84.04808)">
    <path
       style="fill:none;stroke:#000000;stroke-width:1;stroke-linecap:butt;stroke-linejoin:miter;stroke-opacity:1;stroke-miterlimit:4;stroke-dasharray:none"
       d="m 156.33186,410.33914 49.77876,-10e-6 24.88939,-43.10967 24.88938,43.10967 49.77875,0 -24.88938,43.10968 24.88938,43.10967 -49.77875,0 -24.88937,43.10966 -24.88939,-43.10966 -49.77877,0 24.88938,-43.10967 -24.88938,-43.10967"
       id="path3186"
       inkscape:connector-curvature="0" />
    <path
       id="path3198"
       d="m 156.33186,410.33914 49.77876,-10e-6 24.88939,-43.10967 24.88938,43.10967 49.77875,0 -24.88938,43.10968 24.88938,43.10967 -49.77875,0 -24.88937,43.10966 -24.88939,-43.10966 -49.77877,0 24.88938,-43.10967 -24.88938,-43.10967"
       style="fill:none;stroke:#000000;stroke-width:1;stroke-linecap:butt;stroke-linejoin:miter;stroke-miterlimit:4;stroke-opacity:1;stroke-dasharray:none"
       inkscape:connector-curvature="0" />
    <path
       style="fill:none;stroke:#000000;stroke-width:1;stroke-linecap:butt;stroke-linejoin:miter;stroke-miterlimit:4;stroke-opacity:1;stroke-dasharray:none"
       d="m 174.66813,354.66702 -149.336272,0 74.668109,-129.3283 74.668163,129.3283"
       id="path3232"
       inkscape:connector-curvature="0" />
    <path
       id="path3248"
       d="m 461.66814,331.55743 -16.59291,0 -8.29647,14.3698 -8.29646,-14.3698 -16.59292,0 -8.29646,14.3698 8.29646,14.36989 -16.59291,0 L 387,374.6668 l -8.29646,-14.36968 -16.59292,0 8.29645,-14.36989 -8.29645,-14.3698 -16.59293,0 -8.29645,14.3698 -8.29646,-14.3698 -16.59292,0 8.29645,-14.3698 -8.29645,-14.36985 16.59292,0 8.29646,-14.36983 -8.29646,-14.36977 -16.59292,0 8.29645,-14.36984 -8.29645,-14.3698 16.59292,0 8.29646,-14.36979 8.29645,14.36979 16.59293,0 8.29645,-14.36979 -8.29645,-14.36978 16.59292,0 8.29646,-14.36989 8.29647,14.36989 16.59291,0 -8.29646,14.36978 8.29646,14.36979 16.59292,0 8.29646,-14.36979 8.29647,14.36979 16.59291,0 -8.29646,14.3698 8.29646,14.36984 -16.59291,0 -8.29647,14.36977 8.29647,14.36983 16.59291,0 -8.29646,14.36985 8.29646,14.3698"
       style="fill:none;stroke:#000000;stroke-width:1;stroke-linecap:butt;stroke-linejoin:miter;stroke-miterlimit:4;stroke-opacity:1;stroke-dasharray:none"
       inkscape:connector-curvature="0" />
    <path
       style="fill:none;stroke:#000000;stroke-width:1;stroke-linecap:butt;stroke-linejoin:miter;stroke-miterlimit:4;stroke-opacity:1;stroke-dasharray:none"
       d="m 607.65438,496.55265 -5.52996,10e-6 -2.76497,4.78907 -2.76497,-4.78907 -5.52996,-10e-6 -2.76499,4.78908 2.76498,4.78909 -5.52995,0 -2.76498,4.78908 -2.76498,-4.7891 -5.52996,2e-5 2.76499,-4.78908 -2.76499,-4.78908 -5.52994,0 -2.76499,4.78908 -2.76497,-4.78909 -5.52995,10e-6 -2.76498,4.78907 2.76498,4.78909 -5.52996,0 -2.76498,4.78907 2.76498,4.78909 5.52996,0 -2.76498,4.78908 2.76498,4.78908 -5.52996,0 -2.76498,4.78907 -2.76496,-4.78907 -5.52996,-10e-6 -2.76498,4.78909 2.76498,4.78909 -5.52995,0 -2.76498,4.78907 -2.76499,-4.78907 -5.52995,0 2.76498,-4.78909 -2.76499,-4.78908 -5.52994,0 -2.76499,4.78908 -2.76498,-4.78909 -5.52995,10e-6 2.76499,-4.78907 -2.76499,-4.78909 5.52995,-10e-6 2.76498,-4.78907 -2.76498,-4.7891 -5.52995,2e-5 2.76497,-4.78909 -2.76497,-4.78907 -5.52996,-10e-6 -2.76498,4.78909 -2.76496,-4.78909 -5.52996,10e-6 -2.76497,4.78908 2.76497,4.78908 -5.52996,0 -2.76497,4.78907 -2.76497,-4.78907 -5.52995,0 2.76498,-4.78908 -2.76498,-4.78908 -5.52996,-10e-6 -2.76498,4.78909 -2.76496,-4.78909 -5.52996,10e-6 2.76497,-4.7891 -2.76497,-4.78907 5.52994,0 2.76498,-4.78907 -2.76496,-4.78907 -5.52996,-10e-6 2.76497,-4.7891 -2.76497,-4.78907 5.52994,0 2.76498,-4.78907 2.76499,4.78907 5.52995,0 2.76497,-4.78909 -2.76497,-4.78907 5.52995,0 2.76497,-4.78909 -2.76497,-4.78908 -5.52995,0 2.76498,-4.78908 -2.76498,-4.78907 -5.52996,-10e-6 -2.76498,4.78908 -2.76496,-4.78908 -5.52996,10e-6 2.76497,-4.7891 -2.76497,-4.78909 5.52994,0 2.76498,-4.78906 -2.76496,-4.78909 -5.52996,1e-5 2.76497,-4.78909 -2.76497,-4.78907 5.52996,-2e-5 2.76496,-4.78907 2.76498,4.78907 5.52996,2e-5 2.76498,-4.78909 -2.76498,-4.78907 5.52995,0 2.76497,-4.7891 2.76499,4.78911 5.52994,-10e-6 -2.76497,4.78907 2.76497,4.78909 5.52996,-2e-5 2.76496,-4.78907 2.76498,4.78907 5.52996,2e-5 2.76499,-4.78909 -2.76499,-4.78907 5.52995,10e-6 2.76499,-4.78911 -2.76499,-4.78908 -5.52995,1e-5 2.76499,-4.78908 -2.76498,-4.78909 5.52994,0 2.76499,-4.78908 2.76497,4.78908 5.52996,0 2.76498,-4.78907 -2.76498,-4.78909 5.52995,0 2.76499,-4.78909 2.76496,4.7891 5.52997,-10e-6 -2.76499,4.78908 2.76499,4.78908 5.52995,0 2.76497,-4.78908 2.76499,4.78908 5.52995,10e-6 -2.76498,4.78907 2.76498,4.78909 -5.52995,-1e-5 -2.76499,4.78908 2.76499,4.78911 5.52995,-10e-6 -2.76499,4.78907 2.76499,4.78909 5.52995,-2e-5 2.76497,-4.78907 2.76499,4.78909 5.52994,0 2.76499,-4.78909 -2.76499,-4.78907 5.52996,10e-6 2.76499,-4.78911 2.76497,4.7891 5.52996,10e-6 -2.76499,4.78905 2.76499,4.78908 5.52996,2e-5 2.76497,-4.7891 2.76497,4.7891 5.52996,-2e-5 -2.76497,4.7891 2.76497,4.78907 -5.52995,0 -2.76498,4.78907 2.76497,4.78908 5.52996,1e-5 -2.76497,4.78909 2.76497,4.78908 -5.52995,0 -2.76498,4.78907 -2.76499,-4.78907 -5.52994,0 -2.76498,4.78908 2.76498,4.78907 -5.52996,10e-6 -2.76497,4.78908 2.76497,4.78909 5.52996,-10e-6 -2.76499,4.78908 2.76499,4.78908 5.52996,1e-5 2.76497,-4.78909 2.76497,4.78909 5.52996,-1e-5 -2.76497,4.78909 2.76497,4.7891 -5.52995,0 -2.76498,4.78906 2.76497,4.78908 5.52996,-10e-6 -2.76497,4.7891 2.76497,4.78907"
       id="path3266"
       inkscape:connector-curvature="0" />
    <path
       id="path3286"
       d="m 749.69263,331.56777 -1.84427,0 -0.92213,1.59717 -0.92212,-1.59717 -1.84427,0 -0.92214,1.59717 0.92214,1.59718 -1.84426,0 -0.92213,1.59718 -0.92214,-1.59718 -1.84426,0 0.92213,-1.59718 -0.92213,-1.59717 -1.84426,-10e-6 -0.92212,1.59718 -0.92214,-1.59717 -1.84426,-10e-6 -0.92214,1.59717 0.92214,1.59719 -1.84427,0 -0.92212,1.59718 0.92212,1.59713 1.84427,0 -0.92214,1.59718 0.92213,1.59718 -1.84425,0 -0.92213,1.59717 -0.92214,-1.59717 -1.84428,0 -0.92213,1.59717 0.92215,1.59716 -1.84426,0 -0.92213,1.59718 -0.92214,-1.59718 -1.84425,0 0.92211,-1.59716 -0.92211,-1.59717 -1.84427,0 -0.92214,1.59717 -0.92212,-1.59717 -1.84427,0 0.92214,-1.59718 -0.92212,-1.59718 1.84425,-1e-5 0.92212,-1.59712 -0.92212,-1.59718 -1.84427,0 0.92214,-1.59718 -0.92214,-1.59717 -1.84426,0 -0.92213,1.59717 -0.92213,-1.59717 -1.84427,0 -0.92212,1.59717 0.92212,1.59718 -1.84425,0 -0.92214,1.59717 -0.92213,-1.59717 -1.84426,0 0.92212,-1.59718 -0.92212,-1.59717 -1.84427,0 -0.92213,1.59717 -0.92212,-1.59717 -1.84427,0 -0.92213,1.59717 0.92213,1.59718 -1.84426,0 -0.92213,1.59718 0.92213,1.59713 1.84426,0 -0.92213,1.59718 0.92213,1.59718 -1.84424,0 -0.92214,1.59717 -0.92214,-1.59717 -1.84427,0 -0.92211,1.59717 0.92211,1.59716 -1.84426,0 -0.92213,1.59718 0.92213,1.59717 1.84426,0 -0.92212,1.59717 0.92212,1.59717 1.84427,0 0.92213,-1.59717 0.92213,1.59717 1.84426,0 -0.92213,1.59718 0.92213,1.59719 -1.84426,-2e-5 -0.92212,1.59719 0.92212,1.59718 1.84426,0 -0.92213,1.59718 0.92213,1.59717 -1.84426,0 -0.92213,1.59718 -0.92213,-1.59718 -1.84427,0 -0.92212,1.59718 0.92212,1.59717 -1.84426,0 -0.92212,1.59697 -0.92214,-1.59697 -1.84426,0 0.92213,-1.59717 -0.92213,-1.59718 -1.84427,0 -0.92213,1.59718 -0.92212,-1.59718 -1.84427,0 -0.92214,1.59718 0.92214,1.59717 -1.84426,0 -0.92213,1.59697 0.92213,1.59718 1.84426,0 -0.92214,1.59718 0.92214,1.59717 -1.84426,0 -0.92213,1.59718 -0.92214,-1.59718 -1.84425,0 -0.92214,1.59718 0.92214,1.59717 -1.84427,0 -0.92213,1.5972 -0.92214,-1.5972 -1.84425,0 0.92213,-1.59717 -0.92212,-1.59718 -1.84428,0 -0.92212,1.59718 -0.92213,-1.59718 -1.84426,0 0.92213,-1.59717 -0.92215,-1.59718 1.84427,0 0.92214,-1.59718 -0.92214,-1.59697 -1.84427,0 0.92214,-1.59717 -0.92212,-1.59718 -1.84428,0 -0.92213,1.59718 -0.92213,-1.59719 -1.84426,1e-5 -0.92213,1.59718 0.92213,1.59717 -1.84426,0 -0.92214,1.59697 -0.92212,-1.59697 -1.84427,0 0.92214,-1.59717 -0.92214,-1.59718 -1.84428,0 -0.92211,1.59718 -0.92213,-1.59718 -1.84427,0 0.92213,-1.59717 -0.92213,-1.59718 1.84427,0 0.92213,-1.59718 -0.92213,-1.59717 -1.84427,0 0.92213,-1.59719 -0.92213,-1.59718 1.84427,0 0.92213,-1.59717 0.92212,1.59716 1.84427,1e-5 0.92214,-1.59717 -0.92214,-1.59717 1.84427,0 0.92211,-1.59717 -0.92211,-1.59718 -1.84427,0 0.92214,-1.59716 -0.92214,-1.59717 -1.84427,0 -0.92212,1.59717 -0.92213,-1.59717 -1.84427,0 0.92213,-1.59718 -0.92213,-1.59718 1.84427,0 0.92213,-1.59713 -0.92213,-1.59718 -1.84427,0 0.92213,-1.59718 -0.92213,-1.59717 -1.84426,-10e-6 -0.92213,1.59718 -0.92213,-1.59717 -1.84426,-10e-6 -0.92213,1.59717 0.92213,1.59719 -1.84427,0 -0.92213,1.59718 -0.92212,-1.59718 -1.84427,0 0.92213,-1.59719 -0.92213,-1.59717 -1.84426,10e-6 -0.92213,1.59717 -0.92215,-1.59717 -1.84424,0 -0.92213,1.59717 0.92213,1.59718 -1.84427,0 -0.92213,1.59718 0.92213,1.59713 1.84427,0 -0.92213,1.59718 0.92213,1.59718 -1.84427,0 -0.92213,1.59717 -0.92215,-1.59717 -1.84424,0 -0.92214,1.59717 0.92214,1.59716 -1.84427,0 -0.92212,1.59719 -0.92212,-1.59719 -1.84427,0 0.92213,-1.59716 -0.92213,-1.59717 -1.84426,0 -0.92213,1.59717 -0.92214,-1.59717 -1.84426,0 0.92213,-1.59718 -0.92213,-1.59718 1.84426,0 0.92214,-1.59713 -0.92214,-1.59718 -1.84426,0 0.92213,-1.59718 -0.92213,-1.59717 -1.84426,0 -0.92213,1.59717 -0.92214,-1.59717 -1.84425,-10e-6 -0.92213,1.59718 0.92213,1.59718 -1.84427,0 -0.92212,1.59718 -0.92214,-1.59718 -1.84427,0 0.92214,-1.59719 -0.92214,-1.59717 -1.84425,10e-6 -0.92215,1.59717 -0.92212,-1.59718 -1.84426,10e-6 0.92213,-1.59717 -0.92213,-1.59718 1.84426,10e-6 0.92213,-1.59717 -0.92213,-1.59718 -1.84426,0 0.92213,-1.59717 -0.92213,-1.59715 1.84426,0 0.92213,-1.59717 0.92214,1.59717 1.84425,0 0.92214,-1.59717 -0.92214,-1.59719 1.84427,0 0.92214,-1.59714 -0.92214,-1.59718 -1.84427,0 0.92214,-1.59716 -0.92214,-1.59718 -1.84425,0 -0.92214,1.59718 -0.92213,-1.59718 -1.84426,0 0.92213,-1.5972 -0.92213,-1.59717 1.84426,0 0.92213,-1.59717 -0.92213,-1.59718 -1.84426,0 0.92213,-1.59717 -0.92213,-1.59714 1.84426,0 0.92213,-1.5972 0.92214,1.5972 1.84425,0 0.92214,-1.5972 -0.92214,-1.59716 1.84427,0 0.92212,-1.59714 0.92214,1.59714 1.84427,0 -0.92214,1.59716 0.92214,1.5972 1.84425,0 0.92214,-1.59719 0.92213,1.59719 1.84426,0 0.92213,-1.59719 -0.92213,-1.59717 1.84426,0 0.92214,-1.59714 -0.92214,-1.59718 -1.84426,0 0.92213,-1.59717 -0.92213,-1.59718 1.84426,0 0.92214,-1.59716 0.92213,1.59716 1.84425,0 0.92214,-1.59716 -0.92213,-1.59718 1.84427,0 0.92212,-1.59718 -0.92212,-1.59717 -1.84427,0 0.92213,-1.59718 -0.92214,-1.59718 -1.84425,0 -0.92213,1.59718 -0.92214,-1.59718 -1.84426,0 0.92213,-1.59707 -0.92213,-1.59717 1.84426,0 0.92214,-1.59719 -0.92214,-1.59717 -1.84426,0 0.92213,-1.59719 -0.92213,-1.59716 -1.84426,0 -0.92213,1.59716 -0.92214,-1.59716 -1.84425,0 -0.92214,1.59716 0.92214,1.59718 -1.84426,10e-6 -0.92215,1.59717 -0.92212,-1.59718 -1.84427,0 0.92214,-1.59718 -0.92214,-1.59716 -1.84425,0 -0.92214,1.59716 -0.92213,-1.59716 -1.84426,0 0.92213,-1.59718 -0.92213,-1.59714 1.84426,0 0.92213,-1.59719 -0.92213,-1.59717 -1.84426,-10e-6 0.92213,-1.59716 -0.92213,-1.59719 1.84426,0 0.92213,-1.59717 0.92214,1.59717 1.84425,0 0.92214,-1.59717 -0.92214,-1.59715 1.84427,0 0.92214,-1.59718 -0.92215,-1.59719 -1.84424,0 0.92212,-1.59718 -0.92214,-1.5971 -1.84425,0 -0.92215,1.59711 -0.92212,-1.59711 -1.84426,0 0.92213,-1.59717 -0.92213,-1.59718 1.84426,0 0.92213,-1.59717 -0.92213,-1.59717 -1.84426,0 0.92213,-1.5972 -0.92213,-1.59716 1.84426,1e-5 0.92212,-1.59718 0.92215,1.59717 1.84425,1e-5 0.92214,-1.59717 -0.92214,-1.59715 1.84427,0 0.92214,-1.59717 0.92212,1.59717 1.84427,0 -0.92213,1.59714 0.92213,1.59718 1.84425,-1e-5 0.92214,-1.59717 0.92213,1.59717 1.84426,0 0.92213,-1.59717 -0.92213,-1.59714 1.84426,0 0.92214,-1.59717 -0.92214,-1.5972 -1.84426,0 0.92213,-1.59717 -0.92213,-1.59718 1.84426,0 0.92214,-1.59713 0.92213,1.59713 1.84426,0 0.92213,-1.59713 -0.92213,-1.59718 1.84427,0 0.92212,-1.59719 0.92212,1.59719 1.84427,0 -0.92214,1.59718 0.92214,1.59713 1.84424,0 0.92215,-1.59713 0.92213,1.59713 1.84427,0 -0.92213,1.59718 0.92213,1.59717 -1.84427,0 -0.92213,1.5972 0.92213,1.59717 1.84427,0 -0.92213,1.59714 0.92213,1.59717 1.84424,0 0.92215,-1.59717 0.92213,1.59717 1.84426,1e-5 0.92213,-1.59717 -0.92213,-1.59715 1.84427,0 0.92212,-1.59717 0.92213,1.59717 1.84427,0 -0.92213,1.59715 0.92213,1.59717 1.84426,-1e-5 0.92213,-1.59717 0.92213,1.59718 1.84426,-1e-5 0.92213,-1.59717 -0.92213,-1.59714 1.84427,0 0.92213,-1.59717 -0.92213,-1.5972 -1.84427,0 0.92213,-1.59717 -0.92213,-1.59718 1.84427,0 0.92213,-1.59713 0.92212,1.59713 1.84427,0 0.92214,-1.59713 -0.92214,-1.59718 1.84427,0 0.92211,-1.59718 -0.92211,-1.59717 -1.84427,0 0.92214,-1.59714 -0.92214,-1.59718 -1.84427,2e-5 -0.92212,1.59716 -0.92213,-1.59718 -1.84427,0 0.92213,-1.59716 -0.92213,-1.59717 1.84427,0 0.92213,-1.59715 -0.92213,-1.59717 -1.84427,0 0.92213,-1.59716 -0.92213,-1.59718 1.84427,0 0.92213,-1.59716 0.92212,1.59716 1.84427,0 0.92214,-1.59716 -0.92214,-1.59718 1.84427,0 0.92212,-1.59718 0.92214,1.59718 1.84426,0 -0.92213,1.59718 0.92213,1.59716 1.84426,0 0.92213,-1.59716 0.92214,1.59716 1.84425,0 0.92214,-1.59716 -0.92214,-1.59718 1.84427,0 0.92214,-1.59718 -0.92214,-1.59717 -1.84427,0 0.92214,-1.59719 -0.92212,-1.59716 1.84426,0 0.92213,-1.59719 0.92212,1.59719 1.84428,0 0.92212,-1.59719 -0.92213,-1.59718 1.84425,0 0.92214,-1.59718 0.92213,1.59718 1.84427,0 -0.92214,1.59718 0.92214,1.59719 1.84425,0 0.92214,-1.59719 0.92213,1.59719 1.84426,0 -0.92214,1.59716 0.92214,1.59719 -1.84426,0 -0.92213,1.59717 0.92213,1.59718 1.84426,10e-6 -0.92214,1.59717 0.92214,1.59716 1.84427,0 0.92212,-1.59716 0.92213,1.59716 1.84427,0 0.92213,-1.59716 -0.92213,-1.59717 1.84426,-10e-6 0.92213,-1.59718 0.92214,1.59718 1.84425,0 -0.92212,1.59718 0.92212,1.59716 1.84427,0 0.92213,-1.59716 0.92213,1.59716 1.84426,0 -0.92213,1.59718 0.92213,1.59716 -1.84426,0 -0.92213,1.59717 0.92213,1.59716 1.84426,-10e-6 -0.92213,1.59717 0.92213,1.59716 -1.84426,0 -0.92213,1.59718 -0.92213,-1.59718 -1.84427,0 -0.92212,1.59718 0.92212,1.59714 -1.84426,0 -0.92213,1.59717 0.92213,1.59718 1.84426,0 -0.92211,1.59718 0.92211,1.59713 1.84427,0 0.92214,-1.59713 0.92214,1.59713 1.84424,0 -0.92213,1.59718 0.92213,1.59717 -1.84426,0 -0.92213,1.5972 0.92213,1.59717 1.84426,0 -0.92213,1.59714 0.92213,1.59717 1.84427,0 0.92212,-1.59717 0.92213,1.59717 1.84427,0 0.92212,-1.59717 -0.92212,-1.59714 1.84426,0 0.92213,-1.59717 0.92214,1.59717 1.84425,0 -0.92212,1.59714 0.92212,1.59717 1.84427,0 0.92213,-1.59717 0.92213,1.59717 1.84426,0 0.92214,-1.59717 -0.92214,-1.59714 1.84427,0 0.92212,-1.59717 -0.92212,-1.5972 -1.84427,0 0.92214,-1.59717 -0.92214,-1.59718 1.84427,0 0.92212,-1.59713 0.92214,1.59713 1.84427,0 0.92211,-1.59713 -0.92211,-1.59718 1.84425,0 0.92214,-1.59718 0.92213,1.59718 1.84426,0 -0.92215,1.59718 0.92213,1.59713 1.84428,0 0.92214,-1.59713 0.92213,1.59713 1.84425,0 -0.92213,1.59718 0.92214,1.59717 -1.84427,0 -0.92212,1.5972 0.92212,1.59717 1.84427,0 -0.92214,1.59715 0.92214,1.59717 1.84426,-1e-5 0.92214,-1.59717 0.92212,1.59718 1.84426,-1e-5 0.92213,-1.59717 -0.92213,-1.59714 1.84426,0 0.92214,-1.59717 0.92213,1.59717 1.84426,0 -0.92214,1.59714 0.92214,1.59717 1.84427,0 0.92212,-1.59717 0.92213,1.59717 1.84427,0 -0.92213,1.59717 0.92213,1.59719 -1.84428,0 -0.92212,1.59717 0.92212,1.59717 1.84428,0 -0.92213,1.59718 0.92213,1.59717 -1.84427,0 -0.92213,1.59711 -0.92212,-1.59711 -1.84427,0 -0.92214,1.59711 0.92214,1.59717 -1.84425,0 -0.92214,1.59719 0.92213,1.59718 1.84426,0 -0.92214,1.59715 0.92214,1.59717 1.84427,0 0.92212,-1.59717 0.92213,1.59717 1.84427,0 -0.92213,1.59718 0.92213,1.59717 -1.84427,0 -0.92213,1.59718 0.92212,1.59719 1.84428,0 -0.92213,1.59714 0.92213,1.59718 -1.84428,0 -0.92213,1.59716 -0.92211,-1.59716 -1.84427,0 -0.92214,1.59716 0.92214,1.59719 -1.84426,-10e-6 -0.92212,1.59718 -0.92215,-1.59717 -1.84426,0 0.92213,-1.59719 -0.92213,-1.59716 -1.84426,0 -0.92213,1.59716 -0.92214,-1.59716 -1.84425,0 -0.92214,1.59716 0.92214,1.59718 -1.84427,0 -0.92212,1.59718 0.92212,1.59719 1.84427,0 -0.92214,1.59717 0.92214,1.59707 -1.84427,0 -0.92212,1.59718 -0.92214,-1.59718 -1.84426,0 -0.92214,1.59718 0.92212,1.59718 -1.84424,0 -0.92213,1.59717 0.92213,1.59718 1.84426,0 -0.92214,1.59718 0.92214,1.59716 1.84426,0 0.92214,-1.59716 0.92212,1.59716 1.84427,0 -0.92214,1.59718 0.92214,1.59717 -1.84427,0 -0.92212,1.59718 0.92212,1.59714 1.84427,0 -0.92214,1.59716 0.92214,1.5972 1.84425,0 0.92214,-1.5972 0.92213,1.5972 1.84426,0 0.92213,-1.59719 -0.92213,-1.59717 1.84426,0 0.92215,-1.59714 0.92212,1.59714 1.84426,0 -0.92214,1.59717 0.92214,1.59719 1.84427,0 0.92212,-1.59719 0.92212,1.59719 1.84428,0 -0.92213,1.59714 0.92213,1.59717 -1.84428,0 -0.92212,1.59718 0.92213,1.59717 1.84427,0 -0.92213,1.59718 0.92213,1.59719 -1.84427,0 -0.92214,1.59718 -0.92211,-1.59718 -1.84427,0 -0.92214,1.59718 0.92214,1.59716 -1.84426,0 -0.92213,1.59718 0.92213,1.59714 1.84426,0 -0.92214,1.59719 0.92214,1.59717 1.84427,0 0.92212,-1.59717 0.92213,1.59717 1.84427,0 -0.92213,1.59715 0.92213,1.59717 -1.84428,0 -0.92212,1.59718 0.92213,1.59716 1.84427,0 -0.92213,1.59717 0.92213,1.59718"
       style="fill:none;stroke:#000000;stroke-width:1;stroke-linecap:butt;stroke-linejoin:miter;stroke-miterlimit:4;stroke-opacity:1;stroke-dasharray:none"
       inkscape:connector-curvature="0" />
    <path
       inkscape:connector-curvature="0"
       style="fill:none;stroke:#000000;stroke-width:1;stroke-linecap:butt;stroke-linejoin:miter;stroke-miterlimit:4;stroke-opacity:1;stroke-dasharray:none"
       d="m 148.59492,152.74537 157.5,0"
       id="path3388" />
    <path
       id="path3587"
       d="m 463.59492,152.74537 52.5,0 26.25,-45.46634 26.25,45.46633 52.5,1e-5"
       style="fill:none;stroke:#000000;stroke-width:1;stroke-linecap:butt;stroke-linejoin:miter;stroke-miterlimit:4;stroke-opacity:1;stroke-dasharray:none"
       inkscape:connector-curvature="0" />
    <text
       xml:space="preserve"
       style="font-size:20.86956596px;font-style:normal;font-weight:normal;line-height:125%;letter-spacing:0px;word-spacing:0px;fill:#000000;fill-opacity:1;stroke:none;font-family:Sans"
       x="217.20706"
       y="565"
       id="text3604"
       sodipodi:linespacing="125%"><tspan
         sodipodi:role="line"
         id="tspan3606"
         x="217.20706"
         y="565"
         style="font-size:12px;font-style:normal;font-variant:normal;font-weight:normal;font-stretch:normal;font-family:Cambria Math;-inkscape-font-specification:Cambria Math">n = 1</tspan></text>
    <text
       xml:space="preserve"
       style="font-size:20.86950684px;font-style:normal;font-weight:normal;line-height:125%;letter-spacing:0px;word-spacing:0px;fill:#000000;fill-opacity:1;stroke:none;font-family:Sans"
       x="373.12488"
       y="400"
       id="text3608"
       sodipodi:linespacing="125%"><tspan
         sodipodi:role="line"
         id="tspan3610"
         x="373.12488"
         y="400"
         style="font-size:12px;font-style:normal;font-variant:normal;font-weight:normal;font-stretch:normal;font-family:Cambria Math;-inkscape-font-specification:Cambria Math">n = 2</tspan></text>
    <text
       xml:space="preserve"
       style="font-size:20.50734329px;font-style:normal;font-weight:normal;line-height:125%;letter-spacing:0px;word-spacing:0px;fill:#000000;fill-opacity:1;stroke:none;font-family:Sans"
       x="518.91455"
       y="564.90625"
       id="text3612"
       sodipodi:linespacing="125%"><tspan
         sodipodi:role="line"
         id="tspan3614"
         x="518.91455"
         y="564.90625"
         style="font-size:12px;font-style:normal;font-variant:normal;font-weight:normal;font-stretch:normal;font-family:Cambria Math;-inkscape-font-specification:Cambria Math">n = 3</tspan></text>
    <text
       xml:space="preserve"
       style="font-size:20.95491982px;font-style:normal;font-weight:normal;line-height:125%;letter-spacing:0px;word-spacing:0px;fill:#000000;fill-opacity:1;stroke:none;font-family:Sans"
       x="660.7984"
       y="400"
       id="text3616"
       sodipodi:linespacing="125%"><tspan
         sodipodi:role="line"
         id="tspan3618"
         x="660.7984"
         y="400"
         style="font-size:12px;font-style:normal;font-variant:normal;font-weight:normal;font-stretch:normal;font-family:Cambria Math;-inkscape-font-specification:Cambria Math">n = 4</tspan></text>
    <text
       xml:space="preserve"
       style="font-size:40px;font-style:normal;font-weight:normal;line-height:125%;letter-spacing:0px;word-spacing:0px;fill:#000000;fill-opacity:1;stroke:none;font-family:Sans"
       x="87.5"
       y="399.90625"
       id="text3006"
       sodipodi:linespacing="125%"><tspan
         sodipodi:role="line"
         id="tspan3008"
         x="87.5"
         y="399.90625"
         style="font-size:12px;font-style:normal;font-variant:normal;font-weight:normal;font-stretch:normal;font-family:Cambria Math;-inkscape-font-specification:Cambria Math">n = 0</tspan></text>
  </g>
  <path
     style="fill:#f2f2f2;fill-opacity:0;stroke:#000000;stroke-width:1;stroke-linecap:butt;stroke-linejoin:miter;stroke-miterlimit:4;stroke-opacity:1;stroke-dasharray:none"
     d="m 327.72873,57.147308 57.36663,0 0,11.2 18.75988,-14.7 -18.75988,-14.700001 0,11.200001 -57.28847,0 z"
     id="path4806"
     inkscape:connector-curvature="0"
     sodipodi:nodetypes="cccccccc" />
</svg>
