<?xml version="1.0" encoding="UTF-8" standalone="no"?>
<!-- Created with Inkscape (http://www.inkscape.org/) -->

<svg
   xmlns:dc="http://purl.org/dc/elements/1.1/"
   xmlns:cc="http://creativecommons.org/ns#"
   xmlns:rdf="http://www.w3.org/1999/02/22-rdf-syntax-ns#"
   xmlns:svg="http://www.w3.org/2000/svg"
   xmlns="http://www.w3.org/2000/svg"
   xmlns:sodipodi="http://sodipodi.sourceforge.net/DTD/sodipodi-0.dtd"
   xmlns:inkscape="http://www.inkscape.org/namespaces/inkscape"
   width="849.98773"
   height="142.29172"
   id="svg2"
   inkscape:label="Pozadí"
   version="1.1"
   inkscape:version="0.48.4 r9939"
   sodipodi:docname="sierpinski_other.pdf">
  <sodipodi:namedview
     id="base"
     pagecolor="#ffffff"
     bordercolor="#666666"
     borderopacity="1.0"
     inkscape:pageopacity="0.0"
     inkscape:pageshadow="2"
     inkscape:zoom="0.98994949"
     inkscape:cx="284.25801"
     inkscape:cy="48.379033"
     inkscape:document-units="px"
     inkscape:current-layer="layer1"
     showgrid="false"
     inkscape:window-width="1366"
     inkscape:window-height="715"
     inkscape:window-x="-8"
     inkscape:window-y="-8"
     inkscape:window-maximized="1"
     showguides="true"
     inkscape:guide-bbox="true"
     fit-margin-top="0"
     fit-margin-left="0"
     fit-margin-right="0"
     fit-margin-bottom="0">
    <sodipodi:guide
       id="guide4022"
       position="113.78663,-84.869207"
       orientation="0,1" />
  </sodipodi:namedview>
  <defs
     id="defs3" />
  <metadata
     id="metadata6">
    <rdf:RDF>
      <cc:Work
         rdf:about="">
        <dc:format>image/svg+xml</dc:format>
        <dc:type
           rdf:resource="http://purl.org/dc/dcmitype/StillImage" />
        <dc:title></dc:title>
      </cc:Work>
    </rdf:RDF>
  </metadata>
  <g
     transform="translate(-236.21337,-203.77272)"
     id="layer1"
     inkscape:groupmode="layer"
     inkscape:label="Vrstva 1">
    <path
       inkscape:connector-curvature="0"
       style="fill:none;stroke:#000000;stroke-width:1.16529024;stroke-linecap:round;stroke-linejoin:round;stroke-miterlimit:4;stroke-opacity:1;stroke-dasharray:none"
       d="m 236.77656,345.46857 80.959,0 -40.47949,-70.11255 80.95899,0 -40.4795,70.11255 80.95899,0 -40.47949,-70.11255 -40.4795,-70.11253 -40.47949,70.11253 -40.47951,70.11255"
       id="path3155" />
    <path
       id="path3189"
       d="m 408.44678,345.50077 40.47949,0 -20.23975,-35.05627 40.4795,0 -20.23975,35.05627 40.47951,0 -20.23976,-35.05627 -20.23975,-35.05627 40.47951,0 -20.23976,-35.05627 40.4795,0 -20.23974,35.05627 40.47948,0 -20.23974,35.05627 -20.23974,35.05627 40.47948,0 -20.23974,-35.05627 40.47949,0 -20.23975,35.05627 40.47951,0 -20.23976,-35.05627 -20.23975,-35.05627 -20.23974,-35.05627 -20.23974,-35.05628 -20.23976,35.05628 -20.23975,35.05627 -20.23975,35.05627 -20.23974,35.05627"
       style="fill:none;stroke:#000000;stroke-width:1.16529024;stroke-linecap:round;stroke-linejoin:round;stroke-miterlimit:4;stroke-opacity:1;stroke-dasharray:none"
       inkscape:connector-curvature="0" />
    <path
       inkscape:connector-curvature="0"
       style="fill:none;stroke:#000000;stroke-width:1.16529024;stroke-linecap:round;stroke-linejoin:round;stroke-miterlimit:4;stroke-opacity:1;stroke-dasharray:none"
       d="m 580.66805,345.4369 20.2405,0 -10.12025,-17.52877 20.24049,0 -10.12024,17.52877 20.24049,0 -10.12025,-17.52877 -10.12024,-17.5288 20.24049,0 -10.12025,-17.52878 20.2405,0 -10.12025,17.52878 20.24051,0 -10.12026,17.5288 -10.12025,17.52877 20.24051,0 -10.12026,-17.52877 20.24051,0 -10.12025,17.52877 20.2405,0 -10.12025,-17.52877 -10.12025,-17.5288 -10.12026,-17.52878 -10.12025,-17.52879 20.24051,0 -10.12026,-17.52879 20.24051,0 -10.12025,17.52879 20.2405,0 -10.12025,-17.52879 -10.12025,-17.52878 20.2405,0 -10.12025,-17.52879 20.2405,0 -10.12025,17.52879 20.24049,0 -10.12024,17.52878 -10.12025,17.52879 20.24049,0 -10.12024,-17.52879 20.24048,0 -10.12024,17.52879 20.2405,0 -10.12026,17.52879 -10.12024,17.52878 -10.12024,17.5288 -10.12025,17.52877 20.24049,0 -10.12024,-17.52877 20.24048,0 -10.12024,17.52877 20.2405,0 -10.12026,-17.52877 -10.12024,-17.5288 20.2405,0 -10.12026,-17.52878 20.2405,0 -10.12024,17.52878 20.24049,0 -10.12025,17.5288 -10.12024,17.52877 20.24049,0 -10.12025,-17.52877 20.2405,0 -10.12025,17.52877 20.2405,0 -10.12025,-17.52877 -10.12025,-17.5288 -10.12025,-17.52878 -10.12024,-17.52879 -10.12026,-17.52879 -10.12024,-17.52878 -10.12024,-17.52879 -10.12025,-17.52877 -10.12025,17.52877 -10.12025,17.52879 -10.12026,17.52878 -10.12025,17.52879 -10.12025,17.52879 -10.12024,17.52878 -10.12025,17.5288 -10.12025,17.52877"
       id="path3205" />
    <path
       id="path3223"
       d="m 749.90831,345.42814 10.12025,0 -5.06014,-8.76438 10.12028,0 -5.06014,8.76438 10.12025,0 -5.06011,-8.76438 -5.06014,-8.76443 10.12025,0 -5.06011,-8.76438 10.12021,0 -5.0601,8.76438 10.12021,0 -5.06011,8.76443 -5.0601,8.76438 10.12021,0 -5.06011,-8.76438 10.12027,0 -5.06016,8.76438 10.12026,0 -5.0601,-8.76438 -5.06016,-8.76443 -5.06011,-8.76438 -5.0601,-8.7644 10.12027,0 -5.06017,-8.76439 10.12027,0 -5.0601,8.76439 10.1202,0 -5.0601,-8.76439 -5.0601,-8.76438 10.1202,0 -5.0601,-8.76441 10.1202,0 -5.0601,8.76441 10.12026,0 -5.06016,8.76438 -5.0601,8.76439 10.12026,0 -5.06016,-8.76439 10.12027,0 -5.06011,8.76439 10.12022,0 -5.06011,8.7644 -5.06011,8.76438 -5.06016,8.76443 -5.0601,8.76438 10.12026,0 -5.06016,-8.76438 10.12027,0 -5.06011,8.76438 10.12022,0 -5.06011,-8.76438 -5.06011,-8.76443 10.12022,0 -5.06011,-8.76438 10.12029,0 -5.06018,8.76438 10.12033,0 -5.06015,8.76443 -5.06018,8.76438 10.12033,0 -5.06015,-8.76438 10.12025,0 -5.0601,8.76438 10.12024,0 -5.06014,-8.76438 -5.0601,-8.76443 -5.06015,-8.76438 -5.06018,-8.7644 -5.06011,-8.76439 -5.06011,-8.76438 -5.06016,-8.76441 -5.0601,-8.76438 10.12026,0 -5.06016,-8.76437 10.12027,0 -5.06011,8.76437 10.12022,0 -5.06011,-8.76437 -5.06011,-8.76442 10.12022,0 -5.06011,-8.76438 10.12029,0 -5.06018,8.76438 10.12033,0 -5.06015,8.76442 -5.06018,8.76437 10.12033,0 -5.06015,-8.76437 10.12025,0 -5.0601,8.76437 10.12024,0 -5.06014,-8.76437 -5.0601,-8.76442 -5.06015,-8.76438 -5.06018,-8.76438 10.12033,0 -5.06015,-8.76441 10.12025,0 -5.0601,8.76441 10.12024,0 -5.06014,-8.76441 -5.0601,-8.76438 10.12024,0 -5.06014,-8.76438 10.12024,0 -5.0601,8.76438 10.1202,0 -5.0601,8.76438 -5.0601,8.76441 10.1202,0 -5.0601,-8.76441 10.1202,0 -5.0601,8.76441 10.12034,0 -5.06024,8.76438 -5.0601,8.76438 -5.0601,8.76442 -5.0601,8.76437 10.1202,0 -5.0601,-8.76437 10.1202,0 -5.0601,8.76437 10.12034,0 -5.06024,-8.76437 -5.0601,-8.76442 10.12034,0 -5.06024,-8.76438 10.12034,0 -5.0601,8.76438 10.1202,0 -5.0601,8.76442 -5.0601,8.76437 10.1202,0 -5.0601,-8.76437 10.1202,0 -5.0601,8.76437 10.1202,0 -5.0601,8.76438 -5.0601,8.76441 -5.0601,8.76438 -5.0601,8.76439 -5.06024,8.7644 -5.0601,8.76438 -5.0601,8.76442 -5.0601,8.76438 10.1202,0 -5.0601,-8.76438 10.1202,0 -5.0601,8.76438 10.12034,0 -5.06024,-8.76438 -5.0601,-8.76442 10.12034,0 -5.06024,-8.76438 10.12034,0 -5.0601,8.76438 10.1202,0 -5.0601,8.76442 -5.0601,8.76438 10.1202,0 -5.0601,-8.76438 10.1202,0 -5.0601,8.76438 10.1202,0 -5.0601,-8.76438 -5.0601,-8.76442 -5.0601,-8.76438 -5.0601,-8.7644 10.1202,0 -5.0601,-8.76439 10.1202,0 -5.0601,8.76439 10.1202,0 -5.0601,-8.76439 -5.0601,-8.76438 10.1202,0 -5.0601,-8.76441 10.12025,0 -5.06015,8.76441 10.12025,0 -5.0601,8.76438 -5.06015,8.76439 10.12025,0 -5.0601,-8.76439 10.12025,0 -5.06015,8.76439 10.12029,0 -5.06014,8.7644 -5.06015,8.76438 -5.0601,8.76442 -5.06015,8.76438 10.12025,0 -5.0601,-8.76438 10.12025,0 -5.06015,8.76438 10.12029,0 -5.06014,-8.76438 -5.06015,-8.76442 10.12029,0 -5.06014,-8.76438 10.12024,0 -5.0601,8.76438 10.1202,0 -5.0601,8.76442 -5.0601,8.76438 10.1202,0 -5.0601,-8.76438 10.1203,0 -5.0602,8.76438 10.1203,0 -5.0601,-8.76438 -5.0602,-8.76442 -5.0601,-8.76438 -5.0601,-8.7644 -5.06014,-8.76439 -5.06015,-8.76438 -5.0601,-8.76441 -5.06015,-8.76438 -5.0601,-8.76437 -5.0601,-8.76442 -5.0601,-8.76438 -5.0601,-8.76438 -5.06024,-8.76441 -5.0601,-8.76438 -5.0601,-8.76438 -5.0601,-8.76442 -5.06014,8.76442 -5.0601,8.76438 -5.06015,8.76438 -5.06018,8.76441 -5.06011,8.76438 -5.06011,8.76438 -5.06016,8.76442 -5.0601,8.76437 -5.0601,8.76438 -5.0601,8.76441 -5.06017,8.76438 -5.0601,8.76439 -5.06011,8.7644 -5.06014,8.76438 -5.06014,8.76442 -5.06011,8.76438"
       style="fill:none;stroke:#000000;stroke-width:1.16529024;stroke-linecap:round;stroke-linejoin:round;stroke-miterlimit:4;stroke-opacity:1;stroke-dasharray:none"
       inkscape:connector-curvature="0" />
    <path
       id="path3095"
       d="m 922.80951,345.37306 5.08629,0 -2.54317,-4.40486 5.08634,0 -2.54317,4.40486 5.08629,0 -2.54312,-4.40486 -2.54317,-4.40488 5.08629,0 -2.54312,-4.40487 5.08629,0 -2.54317,4.40487 5.08634,0 -2.54317,4.40488 -2.54317,4.40486 5.08634,0 -2.54317,-4.40486 5.08633,0 -2.54316,4.40486 5.08629,0 -2.54313,-4.40486 -2.54316,-4.40488 -2.54317,-4.40487 -2.54317,-4.40487 5.08634,0 -2.54317,-4.40488 5.08633,0 -2.54316,4.40488 5.08629,0 -2.54313,-4.40488 -2.54316,-4.40487 5.08629,0 -2.54313,-4.40488 5.08629,0 -2.54316,4.40488 5.08633,0 -2.54317,4.40487 -2.54316,4.40488 5.08633,0 -2.54317,-4.40488 5.0863,0 -2.54313,4.40488 5.08629,0 -2.54316,4.40487 -2.54313,4.40487 -2.54317,4.40488 -2.54316,4.40486 5.08633,0 -2.54317,-4.40486 5.0863,0 -2.54313,4.40486 5.08629,0 -2.54316,-4.40486 -2.54313,-4.40488 5.08629,0 -2.54316,-4.40487 5.08633,0 -2.54317,4.40487 5.0863,0 -2.54313,4.40488 -2.54317,4.40486 5.0863,0 -2.54313,-4.40486 5.08629,0 -2.54316,4.40486 5.08633,0 -2.54317,-4.40486 -2.54316,-4.40488 -2.54313,-4.40487 -2.54317,-4.40487 -2.54316,-4.40488 -2.54313,-4.40487 -2.54317,-4.40488 -2.54316,-4.40486 5.08633,0 -2.54317,-4.40488 5.0863,0 -2.54313,4.40488 5.08629,0 -2.54316,-4.40488 -2.54313,-4.40487 5.08629,0 -2.54316,-4.40487 5.08633,0 -2.54317,4.40487 5.0863,0 -2.54313,4.40487 -2.54317,4.40488 5.0863,0 -2.54313,-4.40488 5.08629,0 -2.54316,4.40488 5.08633,0 -2.54317,-4.40488 -2.54316,-4.40487 -2.54313,-4.40487 -2.54317,-4.40488 5.0863,0 -2.54313,-4.40487 5.08629,0 -2.54316,4.40487 5.08633,0 -2.54317,-4.40487 -2.54316,-4.40488 5.08633,0 -2.54317,-4.40486 5.08629,0 -2.54312,4.40486 5.08629,0 -2.54317,4.40488 -2.54312,4.40487 5.08629,0 -2.54317,-4.40487 5.08634,0 -2.54317,4.40487 5.08634,0 -2.54317,4.40488 -2.54317,4.40487 -2.54317,4.40487 -2.54312,4.40488 5.08629,0 -2.54317,-4.40488 5.08634,0 -2.54317,4.40488 5.08634,0 -2.54317,-4.40488 -2.54317,-4.40487 5.08634,0 -2.54317,-4.40487 5.08629,0 -2.54312,4.40487 5.08629,0 -2.54317,4.40487 -2.54312,4.40488 5.08629,0 -2.54317,-4.40488 5.08634,0 -2.54317,4.40488 5.08629,0 -2.54312,4.40486 -2.54317,4.40488 -2.54317,4.40487 -2.54312,4.40488 -2.54317,4.40487 -2.54317,4.40487 -2.54317,4.40488 -2.54312,4.40486 5.08629,0 -2.54317,-4.40486 5.08634,0 -2.54317,4.40486 5.08634,0 -2.54317,-4.40486 -2.54317,-4.40488 5.08634,0 -2.54317,-4.40487 5.08629,0 -2.54312,4.40487 5.08629,0 -2.54317,4.40488 -2.54312,4.40486 5.08629,0 -2.54317,-4.40486 5.08634,0 -2.54317,4.40486 5.08629,0 -2.54312,-4.40486 -2.54317,-4.40488 -2.54317,-4.40487 -2.54312,-4.40487 5.08629,0 -2.54317,-4.40488 5.08634,0 -2.54317,4.40488 5.08629,0 -2.54312,-4.40488 -2.54317,-4.40487 5.08629,0 -2.54312,-4.40488 5.08629,0 -2.54317,4.40488 5.08634,0 -2.54317,4.40487 -2.54317,4.40488 5.08634,0 -2.54317,-4.40488 5.08629,0 -2.54312,4.40488 5.08629,0 -2.54317,4.40487 -2.54312,4.40487 -2.54317,4.40488 -2.54317,4.40486 5.08634,0 -2.54317,-4.40486 5.08629,0 -2.54312,4.40486 5.08629,0 -2.54317,-4.40486 -2.54312,-4.40488 5.08629,0 -2.54317,-4.40487 5.08638,0 -2.54321,4.40487 5.08638,0 -2.54317,4.40488 -2.54321,4.40486 5.08638,0 -2.54317,-4.40486 5.08628,0 -2.54311,4.40486 5.08631,0 -2.5432,-4.40486 -2.54311,-4.40488 -2.54317,-4.40487 -2.54321,-4.40487 -2.54317,-4.40488 -2.54312,-4.40487 -2.54317,-4.40488 -2.54317,-4.40486 -2.54312,-4.40488 -2.54317,-4.40487 -2.54317,-4.40487 -2.54312,-4.40488 -2.54317,-4.40487 -2.54317,-4.40488 -2.54317,-4.40486 -2.54312,-4.40488 5.08629,0 -2.54317,-4.40487 5.08634,0 -2.54317,4.40487 5.08634,0 -2.54317,-4.40487 -2.54317,-4.40487 5.08634,0 -2.54317,-4.40488 5.08629,0 -2.54312,4.40488 5.08629,0 -2.54317,4.40487 -2.54312,4.40487 5.08629,0 -2.54317,-4.40487 5.08634,0 -2.54317,4.40487 5.08629,0 -2.54312,-4.40487 -2.54317,-4.40487 -2.54317,-4.40488 -2.54312,-4.40487 5.08629,0 -2.54317,-4.40487 5.08634,0 -2.54317,4.40487 5.08629,0 -2.54312,-4.40487 -2.54317,-4.40488 5.08629,0 -2.54312,-4.40487 5.08629,0 -2.54317,4.40487 5.08634,0 -2.54317,4.40488 -2.54317,4.40487 5.08634,0 -2.54317,-4.40487 5.08629,0 -2.54312,4.40487 5.08629,0 -2.54317,4.40487 -2.54312,4.40488 -2.54317,4.40487 -2.54317,4.40487 5.08634,0 -2.54317,-4.40487 5.08629,0 -2.54312,4.40487 5.08629,0 -2.54317,-4.40487 -2.54312,-4.40487 5.08629,0 -2.54317,-4.40488 5.08638,0 -2.54321,4.40488 5.08638,0 -2.54317,4.40487 -2.54321,4.40487 5.08638,0 -2.54317,-4.40487 5.08628,0 -2.54311,4.40487 5.08631,0 -2.5432,-4.40487 -2.54311,-4.40487 -2.54317,-4.40488 -2.54321,-4.40487 -2.54317,-4.40487 -2.54312,-4.40488 -2.54317,-4.40487 -2.54317,-4.40487 5.08634,0 -2.54317,-4.40487 5.08629,0 -2.54312,4.40487 5.08629,0 -2.54317,-4.40487 -2.54312,-4.40487 5.08629,0 -2.54317,-4.40488 5.08638,0 -2.54321,4.40488 5.08638,0 -2.54317,4.40487 -2.54321,4.40487 5.08638,0 -2.54317,-4.40487 5.08628,0 -2.54311,4.40487 5.08631,0 -2.5432,-4.40487 -2.54311,-4.40487 -2.54317,-4.40488 -2.54321,-4.40487 5.08638,0 -2.54317,-4.40488 5.08628,0 -2.54311,4.40488 5.08631,0 -2.5432,-4.40488 -2.54311,-4.40487 5.08631,0 -2.5432,-4.40487 5.0864,0 -2.5432,4.40487 5.0863,0 -2.5431,4.40487 -2.5432,4.40488 5.0863,0 -2.5431,-4.40488 5.0862,0 -2.5431,4.40488 5.0863,0 -2.5432,4.40487 -2.5431,4.40488 -2.5431,4.40487 -2.5432,4.40487 5.0863,0 -2.5431,-4.40487 5.0862,0 -2.5431,4.40487 5.0863,0 -2.5432,-4.40487 -2.5431,-4.40487 5.0863,0 -2.5432,-4.40488 5.0864,0 -2.5432,4.40488 5.0863,0 -2.5431,4.40487 -2.5432,4.40487 5.0863,0 -2.5431,-4.40487 5.0863,0 -2.5432,4.40487 5.0863,0 -2.5431,4.40487 -2.5432,4.40487 -2.5431,4.40488 -2.5432,4.40487 -2.5432,4.40487 -2.5431,4.40488 -2.5431,4.40487 -2.5432,4.40487 5.0863,0 -2.5431,-4.40487 5.0862,0 -2.5431,4.40487 5.0863,0 -2.5432,-4.40487 -2.5431,-4.40487 5.0863,0 -2.5432,-4.40488 5.0864,0 -2.5432,4.40488 5.0863,0 -2.5431,4.40487 -2.5432,4.40487 5.0863,0 -2.5431,-4.40487 5.0863,0 -2.5432,4.40487 5.0863,0 -2.5431,-4.40487 -2.5432,-4.40487 -2.5431,-4.40488 -2.5432,-4.40487 5.0863,0 -2.5431,-4.40487 5.0863,0 -2.5432,4.40487 5.0863,0 -2.5431,-4.40487 -2.5432,-4.40488 5.0863,0 -2.5431,-4.40487 5.0863,0 -2.5432,4.40487 5.0863,0 -2.5431,4.40488 -2.5432,4.40487 5.0863,0 -2.5431,-4.40487 5.0863,0 -2.5432,4.40487 5.0863,0 -2.5431,4.40487 -2.5432,4.40488 -2.5431,4.40487 -2.5432,4.40487 5.0863,0 -2.5431,-4.40487 5.0863,0 -2.5432,4.40487 5.0863,0 -2.5431,-4.40487 -2.5432,-4.40487 5.0863,0 -2.5431,-4.40488 5.0863,0 -2.5432,4.40488 5.0864,0 -2.5432,4.40487 -2.5432,4.40487 5.0864,0 -2.5432,-4.40487 5.0863,0 -2.5431,4.40487 5.0862,0 -2.5431,4.40488 -2.5431,4.40486 -2.5432,4.40488 -2.5432,4.40487 -2.5431,4.40488 -2.5432,4.40487 -2.5431,4.40487 -2.5432,4.40488 -2.5431,4.40486 -2.5432,4.40488 -2.5431,4.40487 -2.5432,4.40488 -2.5432,4.40487 -2.5431,4.40487 -2.5431,4.40488 -2.5432,4.40486 5.0863,0 -2.5431,-4.40486 5.0862,0 -2.5431,4.40486 5.0863,0 -2.5432,-4.40486 -2.5431,-4.40488 5.0863,0 -2.5432,-4.40487 5.0864,0 -2.5432,4.40487 5.0863,0 -2.5431,4.40488 -2.5432,4.40486 5.0863,0 -2.5431,-4.40486 5.0863,0 -2.5432,4.40486 5.0863,0 -2.5431,-4.40486 -2.5432,-4.40488 -2.5431,-4.40487 -2.5432,-4.40487 5.0863,0 -2.5431,-4.40488 5.0863,0 -2.5432,4.40488 5.0863,0 -2.5431,-4.40488 -2.5432,-4.40487 5.0863,0 -2.5431,-4.40488 5.0863,0 -2.5432,4.40488 5.0863,0 -2.5431,4.40487 -2.5432,4.40488 5.0863,0 -2.5431,-4.40488 5.0863,0 -2.5432,4.40488 5.0863,0 -2.5431,4.40487 -2.5432,4.40487 -2.5431,4.40488 -2.5432,4.40486 5.0863,0 -2.5431,-4.40486 5.0863,0 -2.5432,4.40486 5.0863,0 -2.5431,-4.40486 -2.5432,-4.40488 5.0863,0 -2.5431,-4.40487 5.0863,0 -2.5432,4.40487 5.0864,0 -2.5432,4.40488 -2.5432,4.40486 5.0864,0 -2.5432,-4.40486 5.0863,0 -2.5431,4.40486 5.0862,0 -2.5431,-4.40486 -2.5431,-4.40488 -2.5432,-4.40487 -2.5432,-4.40487 -2.5431,-4.40488 -2.5432,-4.40487 -2.5431,-4.40488 -2.5432,-4.40486 5.0863,0 -2.5431,-4.40488 5.0863,0 -2.5432,4.40488 5.0863,0 -2.5431,-4.40488 -2.5432,-4.40487 5.0863,0 -2.5431,-4.40487 5.0863,0 -2.5432,4.40487 5.0864,0 -2.5432,4.40487 -2.5432,4.40488 5.0864,0 -2.5432,-4.40488 5.0863,0 -2.5431,4.40488 5.0862,0 -2.5431,-4.40488 -2.5431,-4.40487 -2.5432,-4.40487 -2.5432,-4.40488 5.0864,0 -2.5432,-4.40487 5.0863,0 -2.5431,4.40487 5.0862,0 -2.5431,-4.40487 -2.5431,-4.40488 5.0862,0 -2.5431,-4.40486 5.0863,0 -2.5432,4.40486 5.0864,0 -2.5432,4.40488 -2.5432,4.40487 5.0864,0 -2.5432,-4.40487 5.0863,0 -2.5431,4.40487 5.0863,0 -2.5432,4.40488 -2.5431,4.40487 -2.5432,4.40487 -2.5432,4.40488 5.0864,0 -2.5432,-4.40488 5.0863,0 -2.5431,4.40488 5.0863,0 -2.5432,-4.40488 -2.5431,-4.40487 5.0863,0 -2.5432,-4.40487 5.0863,0 -2.5431,4.40487 5.0863,0 -2.5432,4.40487 -2.5431,4.40488 5.0863,0 -2.5432,-4.40488 5.0863,0 -2.5431,4.40488 5.0863,0 -2.5432,4.40486 -2.5431,4.40488 -2.5432,4.40487 -2.5431,4.40488 -2.5432,4.40487 -2.5431,4.40487 -2.5432,4.40488 -2.5432,4.40486 5.0864,0 -2.5432,-4.40486 5.0863,0 -2.5431,4.40486 5.0863,0 -2.5432,-4.40486 -2.5431,-4.40488 5.0863,0 -2.5432,-4.40487 5.0863,0 -2.5431,4.40487 5.0863,0 -2.5432,4.40488 -2.5431,4.40486 5.0863,0 -2.5432,-4.40486 5.0863,0 -2.5431,4.40486 5.0863,0 -2.5432,-4.40486 -2.5431,-4.40488 -2.5432,-4.40487 -2.5431,-4.40487 5.0863,0 -2.5432,-4.40488 5.0863,0 -2.5431,4.40488 5.0863,0 -2.5432,-4.40488 -2.5431,-4.40487 5.0863,0 -2.5432,-4.40488 5.0863,0 -2.5431,4.40488 5.0863,0 -2.5432,4.40487 -2.5431,4.40488 5.0863,0 -2.5432,-4.40488 5.0864,0 -2.5432,4.40488 5.0863,0 -2.5431,4.40487 -2.5432,4.40487 -2.5432,4.40488 -2.5431,4.40486 5.0863,0 -2.5432,-4.40486 5.0864,0 -2.5432,4.40486 5.0863,0 -2.5431,-4.40486 -2.5432,-4.40488 5.0863,0 -2.5431,-4.40487 5.0863,0 -2.5432,4.40487 5.0863,0 -2.5431,4.40488 -2.5432,4.40486 5.0863,0 -2.5431,-4.40486 5.0863,0 -2.5432,4.40486 5.0863,0 -2.5431,-4.40486 -2.5432,-4.40488 -2.5431,-4.40487 -2.5432,-4.40487 -2.5431,-4.40488 -2.5432,-4.40487 -2.5432,-4.40488 -2.5431,-4.40486 -2.5432,-4.40488 -2.5431,-4.40487 -2.5432,-4.40487 -2.5431,-4.40488 -2.5432,-4.40487 -2.5431,-4.40488 -2.5432,-4.40486 -2.5432,-4.40488 -2.5431,-4.40487 -2.5431,-4.40487 -2.5432,-4.40488 -2.5432,-4.40487 -2.5431,-4.40487 -2.5432,-4.40488 -2.5431,-4.40487 -2.5432,-4.40487 -2.5431,-4.40487 -2.5432,-4.40487 -2.5431,-4.40488 -2.5432,-4.40487 -2.5432,-4.40488 -2.5431,-4.40487 -2.5431,-4.40487 -2.5432,-4.40487 -2.5432,4.40487 -2.54311,4.40487 -2.54317,4.40487 -2.54321,4.40488 -2.54317,4.40487 -2.54312,4.40488 -2.54317,4.40487 -2.54317,4.40487 -2.54312,4.40487 -2.54317,4.40487 -2.54317,4.40488 -2.54312,4.40487 -2.54317,4.40487 -2.54317,4.40488 -2.54317,4.40487 -2.54312,4.40487 -2.54317,4.40488 -2.54316,4.40486 -2.54313,4.40488 -2.54317,4.40487 -2.54316,4.40488 -2.54313,4.40487 -2.54317,4.40487 -2.54316,4.40488 -2.54313,4.40486 -2.54316,4.40488 -2.54317,4.40487 -2.54317,4.40488 -2.54312,4.40487 -2.54317,4.40487 -2.54317,4.40488 -2.54312,4.40486"
       style="fill:none;stroke:#000000;stroke-width:1.16529024;stroke-linecap:round;stroke-linejoin:round;stroke-miterlimit:4;stroke-opacity:1;stroke-dasharray:none"
       inkscape:connector-curvature="0" />
  </g>
</svg>
